<?xml version="1.0" encoding="UTF-8" standalone="no"?>
<svg
   xmlns:dc="http://purl.org/dc/elements/1.1/"
   xmlns:cc="http://creativecommons.org/ns#"
   xmlns:rdf="http://www.w3.org/1999/02/22-rdf-syntax-ns#"
   xmlns:svg="http://www.w3.org/2000/svg"
   xmlns="http://www.w3.org/2000/svg"
   height="121.5"
   width="1370"
   version="1.1"
   id="splitsvg">
  <metadata
     id="metadata11">
    <rdf:RDF>
      <cc:Work
         rdf:about="">
        <dc:format>image/svg+xml</dc:format>
        <dc:type
           rdf:resource="http://purl.org/dc/dcmitype/StillImage" />
      </cc:Work>
    </rdf:RDF>
  </metadata>
  <defs
     id="defs9" />
  <g
     transform="translate(-5)"
     id="svgg">
    <path
       style="fill:#202019;fill-rule:evenodd;stroke:none"
       transform="translate(30)"
       d="m 233.083,24.523 c -0.733,0.181 -2.083,0.462 -3,0.625 -3.303,0.588 -3.083,-0.085 -3.083,9.443 0,9.429 -0.032,9.591 -1.837,9.232 -12.277,-2.443 -23.096,-0.243 -26.481,5.385 -0.207,0.344 -0.445,0.625 -0.529,0.625 -0.084,0 -0.153,0.071 -0.153,0.157 0,0.086 -0.34,0.878 -0.755,1.761 -0.415,0.882 -0.866,2.143 -1.003,2.801 -0.137,0.659 -0.391,1.648 -0.565,2.198 -0.98,3.097 -0.938,16.731 0.062,20.167 0.213,0.733 0.553,1.933 0.754,2.666 0.201,0.734 0.459,1.446 0.572,1.584 0.113,0.137 0.348,0.587 0.521,1 0.174,0.412 0.488,0.962 0.698,1.221 0.211,0.259 0.383,0.523 0.383,0.588 0,0.103 1.232,1.354 2.527,2.565 0.245,0.229 0.788,0.582 1.209,0.785 0.42,0.204 0.764,0.43 0.764,0.503 0,0.073 0.131,0.172 0.291,0.221 0.161,0.049 0.929,0.326 1.709,0.616 6.506,2.422 22.5,1.958 27.963,-0.811 0.341,-0.173 0.897,-0.455 1.235,-0.628 0.337,-0.172 0.804,-0.575 1.036,-0.895 0.232,-0.32 0.538,-0.74 0.68,-0.932 0.56,-0.759 0.596,-2.875 0.549,-31.817 -0.037,-22.978 -0.089,-28.741 -0.261,-29.041 -0.275,-0.482 -1.374,-0.488 -3.286,-0.019 m 74.055,-0.186 c -0.428,0.072 -1.178,0.248 -1.666,0.39 -0.489,0.142 -1.578,0.37 -2.42,0.506 -1.969,0.318 -2.438,0.562 -2.689,1.4 -0.271,0.905 -0.284,60.731 -0.014,61.508 0.341,0.978 1.196,1.192 4.756,1.192 5.107,0 4.715,0.799 4.722,-9.621 0.007,-9.151 0.028,-9.346 1.045,-9.7 1.993,-0.695 3.004,0.031 7.045,5.066 0.641,0.8 1.466,1.808 1.833,2.241 0.367,0.433 0.967,1.157 1.333,1.609 0.367,0.451 0.97,1.159 1.341,1.572 0.371,0.412 0.783,0.912 0.917,1.109 0.335,0.496 3.66,4.519 4.281,5.18 0.279,0.297 0.547,0.643 0.595,0.769 0.176,0.457 1.55,1.398 2.315,1.585 1.646,0.401 9.382,0.252 9.591,-0.185 0.458,-0.955 0.55,-0.776 -1.68,-3.306 -0.289,-0.329 -0.835,-0.966 -1.213,-1.416 -0.831,-0.992 -1.901,-2.265 -2.617,-3.113 -0.292,-0.345 -0.83,-0.959 -1.196,-1.364 -0.367,-0.406 -0.939,-1.061 -1.271,-1.457 -0.332,-0.395 -1.198,-1.394 -1.925,-2.219 -0.727,-0.825 -1.684,-1.95 -2.126,-2.5 -0.442,-0.55 -1.638,-1.966 -2.658,-3.147 -3.823,-4.43 -3.42,-3.853 -3.242,-4.646 0.087,-0.386 0.253,-0.815 0.369,-0.954 1.091,-1.304 3.437,-4.034 4.584,-5.336 0.766,-0.869 3.324,-3.869 4.753,-5.575 0.542,-0.646 1.329,-1.556 1.75,-2.021 1.274,-1.408 2.529,-2.858 2.908,-3.36 0.197,-0.262 0.49,-0.622 0.652,-0.801 1.847,-2.046 2.158,-2.66 1.699,-3.36 l -0.272,-0.415 -4.292,0.057 -4.292,0.058 -0.944,0.627 c -0.519,0.345 -0.943,0.7 -0.943,0.79 0,0.09 -0.357,0.574 -0.792,1.075 -0.435,0.502 -1.129,1.329 -1.542,1.838 -0.412,0.509 -0.937,1.144 -1.166,1.411 -0.229,0.266 -0.942,1.139 -1.584,1.939 -0.641,0.799 -1.504,1.852 -1.916,2.339 -0.413,0.487 -1.068,1.282 -1.457,1.766 -5.993,7.474 -6.046,7.525 -7.772,7.509 -1.094,-0.01 -1.768,-0.374 -1.959,-1.059 -0.062,-0.221 -0.12,-8.628 -0.129,-18.682 -0.018,-19.73 0.018,-19.018 -0.967,-19.292 -0.696,-0.193 -0.642,-0.193 -1.745,-0.007 M 355,24.521 c -0.779,0.178 -2.231,0.469 -3.227,0.646 -1.99,0.355 -2.15,0.438 -2.619,1.357 -0.44,0.864 -0.509,60.694 -0.071,61.535 0.66,1.265 0.672,1.268 4.052,1.271 5.677,0.006 5.198,0.879 5.198,-9.486 0,-9.835 0.039,-10.011 2.19,-10.011 1.54,0 2.357,0.773 7.396,7 0.408,0.504 0.966,1.179 1.24,1.5 0.899,1.055 2.742,3.275 3.591,4.326 0.458,0.568 1.152,1.39 1.542,1.829 0.389,0.438 0.708,0.838 0.708,0.888 0,0.05 0.244,0.354 0.542,0.677 0.298,0.322 0.943,1.042 1.433,1.599 1.446,1.644 1.597,1.681 6.767,1.681 4.317,0 4.37,-0.004 4.704,-0.375 0.75,-0.832 0.745,-0.842 -2.438,-4.478 -0.692,-0.79 -1.558,-1.792 -1.925,-2.228 -1.149,-1.364 -1.821,-2.14 -2.17,-2.505 -0.185,-0.193 -0.587,-0.668 -0.893,-1.055 -0.306,-0.387 -0.755,-0.922 -0.997,-1.19 -0.742,-0.821 -1.612,-1.83 -3.45,-4.002 -0.97,-1.146 -2.433,-2.85 -3.252,-3.788 -0.818,-0.937 -1.488,-1.763 -1.488,-1.834 0,-0.072 -0.262,-0.371 -0.583,-0.666 -0.979,-0.899 -0.756,-1.734 0.994,-3.712 1.537,-1.737 1.722,-1.951 2.669,-3.084 0.461,-0.55 1.062,-1.257 1.337,-1.571 0.628,-0.718 1.923,-2.221 2.667,-3.095 0.312,-0.367 1.114,-1.309 1.783,-2.094 0.669,-0.785 1.592,-1.869 2.05,-2.409 0.458,-0.54 1.032,-1.211 1.275,-1.49 0.242,-0.279 0.819,-0.957 1.282,-1.507 0.463,-0.55 1.064,-1.225 1.337,-1.5 0.272,-0.275 0.594,-0.725 0.714,-1 0.12,-0.275 0.295,-0.557 0.389,-0.628 0.104,-0.078 -0.041,-0.32 -0.375,-0.625 L 386.828,44 h -3.717 c -4.577,0 -5.041,0.103 -6.187,1.375 -0.434,0.481 -1.036,1.137 -1.337,1.458 -0.301,0.321 -0.575,0.674 -0.609,0.785 -0.034,0.11 -0.344,0.523 -0.689,0.916 -0.345,0.394 -1.233,1.466 -1.974,2.383 -0.741,0.916 -1.583,1.959 -1.872,2.317 -0.29,0.357 -0.774,0.913 -1.077,1.234 -0.303,0.321 -0.663,0.801 -0.8,1.066 -0.138,0.266 -0.357,0.524 -0.488,0.574 -0.131,0.051 -0.405,0.366 -0.61,0.7 -0.204,0.335 -0.899,1.217 -1.545,1.959 -0.645,0.743 -1.435,1.68 -1.756,2.081 -1.986,2.485 -3.606,3.212 -4.946,2.22 -0.892,-0.661 -0.868,-0.127 -0.878,-19.758 -0.009,-17.157 -0.027,-18.293 -0.301,-18.607 -0.429,-0.492 -1.426,-0.552 -3.042,-0.182 m -268.75,4.41 c -4.283,0.732 -5.663,1.103 -6.121,1.645 -0.393,0.464 -0.451,48.959 -0.061,50.674 0.315,1.387 1.516,4.026 2.096,4.606 0.265,0.265 0.528,0.627 0.584,0.804 0.056,0.178 0.267,0.373 0.469,0.433 0.201,0.061 0.591,0.323 0.866,0.584 0.275,0.26 0.8,0.597 1.167,0.748 0.367,0.152 0.971,0.414 1.342,0.581 2.826,1.278 11.909,1.224 16.825,-0.099 1.668,-0.449 2.025,-1.165 1.656,-3.324 -0.562,-3.293 -0.936,-3.517 -4.406,-2.641 -2.659,0.671 -5.939,0.671 -7.586,0 -1.813,-0.739 -1.952,-0.823 -2.293,-1.4 C 90.611,81.244 90.405,81 90.329,81 90.253,81 90.02,80.569 89.812,80.042 L 89.433,79.083 89.369,66.75 C 89.299,53.074 89.363,51.661 90.077,51.046 l 0.442,-0.379 h 6.314 6.315 l 0.468,-0.402 0.467,-0.403 v -2.418 c 0,-3.811 0.49,-3.572 -7.364,-3.594 -8.2,-0.023 -7.384,0.848 -7.385,-7.886 L 89.333,29.512 88.711,29.089 C 88.013,28.615 88.075,28.619 86.25,28.931 M 48.833,42.936 c -2.017,0.247 -5.314,0.765 -5.666,0.89 -4.501,1.601 -6.675,3.255 -8.459,6.433 -0.561,1 -1.271,4.484 -1.271,6.241 0,4.554 2.369,9.18 5.412,10.565 0.312,0.143 0.755,0.41 0.984,0.595 0.23,0.185 1.045,0.491 1.812,0.68 0.767,0.19 1.554,0.448 1.75,0.574 0.389,0.251 1.713,0.502 3.522,0.67 0.641,0.059 1.954,0.286 2.916,0.503 0.963,0.218 2.417,0.478 3.232,0.579 0.815,0.1 1.715,0.294 2,0.43 2.854,1.365 3.432,2.035 3.775,4.377 0.488,3.345 -0.982,6.398 -3.391,7.038 -0.384,0.103 -0.931,0.328 -1.214,0.501 -1.477,0.904 -9.508,0.892 -12.663,-0.018 -0.635,-0.184 -1.913,-0.441 -2.838,-0.573 -0.926,-0.131 -2.072,-0.392 -2.548,-0.58 -1.216,-0.479 -1.451,-0.442 -1.923,0.306 -0.925,1.464 -1.426,4.324 -0.883,5.036 1.009,1.321 10.52,3.152 16.366,3.149 3.26,-10e-4 9.137,-0.815 9.66,-1.338 0.088,-0.088 0.286,-0.161 0.439,-0.161 0.923,0 4.086,-1.891 5.522,-3.301 0.854,-0.838 1.8,-2.269 1.8,-2.721 0,-0.114 0.154,-0.371 0.344,-0.572 1.312,-1.397 1.437,-10.875 0.162,-12.322 -0.162,-0.184 -0.484,-0.746 -0.717,-1.25 -0.686,-1.484 -2.773,-3.382 -4.318,-3.927 -0.377,-0.133 -0.931,-0.394 -1.233,-0.58 -0.301,-0.187 -1.35,-0.491 -2.331,-0.677 -0.981,-0.186 -2.159,-0.486 -2.617,-0.667 -0.565,-0.222 -1.567,-0.381 -3.104,-0.493 -2.462,-0.178 -3.867,-0.408 -4.52,-0.739 -0.229,-0.116 -1.002,-0.371 -1.717,-0.566 -4.291,-1.171 -5.786,-6.844 -2.457,-9.327 0.325,-0.242 0.685,-0.529 0.799,-0.637 0.27,-0.255 2.611,-1.156 3.65,-1.406 0.493,-0.118 2.175,-0.189 4.309,-0.181 3.526,0.012 4.855,0.144 8.653,0.858 3.154,0.592 3.717,0.463 4.322,-0.994 0.407,-0.979 0.652,-3.048 0.45,-3.799 l -0.177,-0.658 -1.958,-0.539 c -1.076,-0.297 -2.857,-0.644 -3.957,-0.771 -1.1,-0.127 -2.525,-0.31 -3.167,-0.406 -1.211,-0.182 -7.727,-0.348 -8.75,-0.222 m 81.917,0.017 c -3.973,0.38 -8.146,0.936 -9.5,1.266 -0.917,0.224 -2.282,0.54 -3.034,0.703 -3.041,0.658 -3.327,1.155 -2.736,4.744 0.419,2.546 1.176,2.725 5.684,1.346 0.32,-0.098 1.408,-0.292 2.417,-0.432 1.01,-0.14 2.548,-0.406 3.419,-0.59 3.57,-0.757 9.898,-0.613 12.696,0.29 2.552,0.823 3.381,1.95 3.657,4.97 0.339,3.715 0.092,4.383 -1.732,4.664 -0.387,0.06 -1.154,0.248 -1.704,0.417 -0.918,0.283 -2.221,0.469 -5.331,0.761 -0.64,0.06 -1.63,0.254 -2.2,0.43 -1.431,0.442 -2.461,0.61 -4.914,0.805 -1.361,0.107 -2.407,0.284 -2.947,0.496 -0.46,0.182 -1.347,0.412 -1.972,0.513 -1.79,0.287 -2.774,0.529 -3.152,0.775 -0.192,0.125 -0.797,0.402 -1.345,0.617 -0.548,0.215 -1.173,0.532 -1.391,0.706 -0.814,0.651 -2.498,2.311 -2.498,2.463 0,0.086 -0.218,0.501 -0.483,0.922 -0.94,1.488 -1.664,6.108 -1.351,8.62 0.279,2.235 0.828,4.575 1.227,5.227 0.196,0.32 0.477,0.849 0.625,1.174 0.269,0.594 2.882,3.327 3.18,3.327 0.087,0 0.472,0.213 0.855,0.474 6.372,4.341 30.325,3.191 33.336,-1.601 0.216,-0.343 0.572,-1.073 0.793,-1.623 l 0.401,-1 0.05,-14.75 c 0.063,-18.827 -0.018,-19.419 -3.034,-22.232 -2.858,-2.666 -11.327,-4.217 -19.016,-3.482 m 53.417,10e-4 c -9.057,0.583 -16.652,2.666 -18.094,4.963 -0.927,1.475 -0.879,0.362 -0.893,21.009 l -0.013,19.009 0.563,0.545 c 0.821,0.797 4.595,1.168 7.635,0.751 1.311,-0.179 1.209,1.292 1.302,-18.731 0.072,-15.483 0.117,-17.983 0.333,-18.407 0.548,-1.076 2.274,-1.407 10.423,-2 4.638,-0.338 4.509,-0.228 4.371,-3.691 -0.143,-3.591 -0.453,-3.781 -5.627,-3.448 m 79.583,0.127 c -5.703,0.73 -8.698,1.931 -11.333,4.547 -1.473,1.461 -2.373,2.772 -2.996,4.361 -0.226,0.576 -0.498,1.154 -0.606,1.283 -0.107,0.129 -0.404,1.265 -0.659,2.523 -0.255,1.259 -0.586,2.813 -0.735,3.455 -0.658,2.826 -0.504,12.674 0.236,15.115 0.175,0.578 0.439,1.727 0.586,2.552 0.15,0.837 0.496,1.979 0.783,2.583 0.283,0.596 0.595,1.271 0.692,1.5 0.908,2.137 3.912,5.318 5.966,6.32 0.403,0.196 0.942,0.473 1.199,0.615 1.576,0.871 5.243,1.768 9.113,2.23 3.853,0.46 11.886,-0.101 15.504,-1.082 3.977,-1.078 4.829,-1.422 5.372,-2.165 0.195,-0.267 0.135,-0.946 -0.148,-1.668 -0.143,-0.367 -0.387,-1.128 -0.541,-1.691 C 285.828,82.261 285.608,82 284.869,82 c -0.726,0 -3.297,0.439 -4.536,0.774 -2.337,0.632 -2.947,0.728 -5.607,0.88 -3.524,0.201 -8.342,-0.012 -9.413,-0.416 -0.401,-0.152 -1.241,-0.453 -1.866,-0.67 -0.625,-0.217 -1.337,-0.548 -1.583,-0.736 -0.246,-0.188 -0.784,-0.587 -1.196,-0.886 -0.962,-0.699 -2.835,-3.103 -2.835,-3.638 0,-0.109 -0.194,-0.684 -0.431,-1.277 -0.606,-1.514 -0.728,-3.294 -0.265,-3.876 0.652,-0.821 0.672,-0.822 16.186,-0.822 h 14.534 l 0.716,-0.492 c 0.912,-0.628 0.929,-0.723 0.918,-4.987 -0.01,-3.655 -0.095,-4.716 -0.647,-8.021 -0.192,-1.145 -0.392,-2.366 -0.445,-2.712 -0.053,-0.346 -0.265,-0.946 -0.471,-1.333 -0.205,-0.388 -0.508,-1.117 -0.671,-1.621 -0.164,-0.504 -0.468,-1.104 -0.675,-1.334 -0.208,-0.229 -0.498,-0.655 -0.645,-0.946 -2.545,-5.047 -12.373,-8.062 -22.187,-6.806 m -41.267,6.573 c 2.378,0.359 3.848,0.86 4.152,1.416 0.383,0.697 0.438,29.977 0.058,30.875 -0.765,1.814 -12.857,2.558 -15.879,0.977 -0.444,-0.232 -0.907,-0.422 -1.029,-0.422 -0.988,0 -3.096,-2.764 -3.882,-5.091 -1.705,-5.04 -1.777,-16.645 -0.134,-21.559 0.891,-2.665 2.936,-5.35 4.076,-5.35 0.08,0 0.554,-0.187 1.055,-0.416 1.569,-0.718 8.077,-0.959 11.583,-0.43 m 49.585,-0.143 c 3.456,0.639 6.2,3.502 6.777,7.072 0.103,0.642 0.331,1.725 0.505,2.407 0.223,0.873 0.317,1.82 0.317,3.204 v 1.964 l -0.542,0.296 c -0.669,0.365 -20.635,0.554 -21.483,0.202 -1.018,-0.421 -1.05,-0.551 -0.839,-3.449 0.552,-7.597 2.966,-11.171 7.947,-11.764 1.199,-0.143 6.441,-0.094 7.318,0.068 M 142.731,66.855 c 0.761,0.347 0.79,0.653 0.736,7.909 -0.067,9.008 0.305,8.461 -6.217,9.159 -4.501,0.481 -9.268,0.09 -10.917,-0.896 -0.412,-0.247 -0.967,-0.56 -1.232,-0.696 -2.362,-1.209 -3.478,-5.387 -2.524,-9.455 0.352,-1.504 1.706,-3.053 2.955,-3.379 0.395,-0.103 1.168,-0.364 1.718,-0.579 0.722,-0.283 1.751,-0.467 3.699,-0.659 1.814,-0.179 3.116,-0.403 3.972,-0.682 0.942,-0.308 1.906,-0.459 3.704,-0.58 1.337,-0.09 2.468,-0.201 2.514,-0.247 0.153,-0.153 1.173,-0.086 1.592,0.105 M -25,0 h 20 v 20 h -20 z m 430,0 h 20 v 20 h -20 z"
       id="path0" />
    <path
       style="fill:#fbfbfb;fill-rule:evenodd;stroke:none"
       transform="translate(490)"
       d="M 0,60.75 V 121.5 H 200 400 V 60.75 0 H 200 0 V 60.75 M 236.242,23.403 c 0.31,0.129 0.664,0.411 0.786,0.625 0.323,0.566 0.33,60.367 0.007,61.431 -0.411,1.355 -2.399,3.171 -3.868,3.534 -0.505,0.124 -1.112,0.37 -1.351,0.546 -0.304,0.225 -1.097,0.413 -2.666,0.631 -1.228,0.171 -2.513,0.428 -2.856,0.571 -2.089,0.876 -16.061,0.835 -18.253,-0.053 -0.435,-0.176 -1.331,-0.409 -1.991,-0.518 -0.788,-0.13 -1.447,-0.359 -1.917,-0.669 -0.394,-0.259 -1.023,-0.552 -1.398,-0.652 -0.375,-0.099 -0.82,-0.334 -0.989,-0.52 -0.169,-0.187 -0.575,-0.5 -0.902,-0.697 -1.15,-0.691 -3.366,-3.079 -3.783,-4.077 -0.123,-0.293 -0.4,-0.794 -0.616,-1.113 -0.217,-0.319 -0.487,-0.942 -0.601,-1.386 -0.115,-0.443 -0.267,-0.956 -0.34,-1.139 -0.072,-0.184 -0.251,-0.634 -0.398,-1 -0.383,-0.954 -0.57,-1.952 -0.688,-3.667 -0.057,-0.825 -0.224,-2.25 -0.371,-3.167 -0.376,-2.345 -0.38,-8.164 -0.006,-10.833 0.154,-1.1 0.356,-2.802 0.449,-3.783 0.107,-1.131 0.328,-2.228 0.605,-3 0.24,-0.669 0.546,-1.615 0.679,-2.102 0.133,-0.487 0.463,-1.246 0.734,-1.685 0.271,-0.44 0.492,-0.883 0.492,-0.984 0,-0.1 0.338,-0.597 0.75,-1.104 0.412,-0.506 0.75,-0.974 0.75,-1.039 0,-0.165 2.346,-2.386 2.521,-2.386 0.079,0 0.487,-0.263 0.907,-0.584 0.42,-0.321 0.843,-0.583 0.939,-0.583 0.096,0 0.625,-0.229 1.175,-0.508 0.549,-0.279 1.569,-0.626 2.264,-0.77 0.696,-0.143 1.418,-0.357 1.605,-0.475 1.248,-0.784 12.717,-0.772 14.867,0.016 0.779,0.285 3.076,0.585 3.253,0.424 0.063,-0.057 0.138,-3.816 0.167,-8.354 0.044,-6.929 0.092,-8.328 0.302,-8.742 0.464,-0.915 2.945,-1.695 7.083,-2.229 1.732,-0.223 2.04,-0.218 2.659,0.041 m 74.033,0.457 c 0.713,0.664 0.725,0.979 0.725,19.681 v 17.894 l 0.542,0.51 0.541,0.511 0.717,-0.321 c 0.395,-0.177 0.845,-0.525 1,-0.773 0.279,-0.444 0.456,-0.654 1.613,-1.92 0.323,-0.353 0.587,-0.703 0.587,-0.778 0,-0.075 0.3,-0.449 0.667,-0.831 0.366,-0.381 0.666,-0.748 0.666,-0.814 0,-0.066 0.289,-0.416 0.642,-0.778 0.353,-0.362 0.717,-0.798 0.809,-0.97 0.188,-0.347 1.015,-1.33 1.841,-2.187 0.298,-0.309 0.542,-0.635 0.542,-0.724 0,-0.089 0.264,-0.451 0.586,-0.803 0.323,-0.352 1.043,-1.203 1.601,-1.89 0.557,-0.688 1.103,-1.325 1.212,-1.417 0.109,-0.092 0.37,-0.449 0.581,-0.794 0.21,-0.345 0.532,-0.707 0.715,-0.805 0.183,-0.098 0.443,-0.442 0.579,-0.766 0.135,-0.323 0.372,-0.623 0.527,-0.666 0.155,-0.044 0.432,-0.31 0.615,-0.593 0.612,-0.945 1.44,-1.464 2.601,-1.632 1.487,-0.215 8.086,-0.2 8.879,0.021 1.332,0.369 1.913,1.745 1.104,2.613 -0.184,0.197 -0.334,0.434 -0.334,0.526 0,0.093 -0.342,0.564 -0.761,1.049 -0.419,0.484 -0.984,1.143 -1.256,1.464 -0.273,0.32 -1.112,1.284 -1.864,2.142 -0.753,0.857 -1.481,1.726 -1.619,1.931 -0.137,0.205 -0.418,0.554 -0.623,0.775 -0.206,0.221 -0.668,0.717 -1.028,1.103 -0.361,0.386 -0.7,0.843 -0.755,1.015 -0.054,0.173 -0.285,0.413 -0.513,0.535 -0.228,0.122 -0.414,0.313 -0.414,0.425 0,0.112 -0.319,0.549 -0.708,0.972 -0.39,0.424 -1.009,1.12 -1.375,1.547 -0.367,0.428 -0.912,1.036 -1.21,1.351 -0.299,0.316 -0.709,0.809 -0.911,1.097 -0.201,0.288 -0.557,0.729 -0.79,0.981 -0.232,0.252 -0.662,0.739 -0.954,1.083 -0.292,0.344 -0.752,0.867 -1.022,1.161 -0.781,0.851 -0.835,1.598 -0.163,2.281 0.302,0.307 0.812,0.874 1.133,1.26 0.321,0.386 0.808,0.953 1.083,1.26 0.275,0.306 0.913,1.062 1.417,1.68 0.504,0.618 1.198,1.394 1.542,1.724 0.343,0.33 0.625,0.725 0.625,0.877 0,0.153 0.144,0.323 0.321,0.379 0.177,0.056 0.459,0.316 0.625,0.577 0.167,0.261 0.729,0.951 1.248,1.534 0.519,0.583 1.269,1.443 1.666,1.911 0.398,0.469 1.117,1.307 1.598,1.864 0.481,0.557 0.875,1.055 0.875,1.107 0,0.052 0.3,0.366 0.667,0.697 0.366,0.332 0.666,0.662 0.666,0.733 0,0.072 0.256,0.408 0.569,0.746 0.312,0.338 0.781,0.874 1.041,1.19 0.261,0.317 0.755,0.855 1.099,1.197 0.343,0.342 0.625,0.682 0.625,0.755 0,0.073 0.229,0.466 0.509,0.873 0.779,1.132 0.667,1.992 -0.327,2.516 -0.719,0.379 -0.837,0.387 -5.45,0.387 -5.653,0 -6.054,-0.064 -7.098,-1.131 -1.609,-1.645 -1.968,-2.052 -1.968,-2.236 0,-0.105 -0.268,-0.458 -0.596,-0.786 -0.526,-0.526 -2.051,-2.305 -2.37,-2.766 -0.174,-0.251 -2.304,-2.778 -2.667,-3.164 -0.173,-0.183 -0.457,-0.558 -0.631,-0.833 -0.175,-0.275 -0.488,-0.638 -0.696,-0.807 -0.209,-0.168 -0.487,-0.506 -0.619,-0.75 -0.132,-0.244 -0.541,-0.781 -0.909,-1.193 -0.368,-0.413 -0.728,-0.825 -0.799,-0.917 -0.409,-0.527 -2.253,-2.73 -2.578,-3.081 -0.212,-0.228 -0.512,-0.618 -0.669,-0.866 -0.419,-0.669 -1.527,-0.935 -2.255,-0.544 l -0.544,0.293 -0.009,8.266 c -0.013,11.305 0.475,10.432 -5.824,10.432 -4.552,0 -4.983,-0.078 -5.361,-0.973 -0.183,-0.433 -0.223,-6.095 -0.223,-31.86 0,-33.583 -0.033,-32.264 0.81,-32.51 0.196,-0.058 0.669,-0.251 1.051,-0.43 2.31,-1.085 7.908,-1.476 8.831,-0.617 m 48.043,-0.309 c 1.371,0.481 1.255,-1.218 1.349,19.669 0.064,14.338 0.13,18.612 0.29,18.892 0.422,0.736 2.018,-0.071 3.156,-1.596 1.154,-1.547 1.279,-1.704 1.929,-2.407 0.343,-0.372 0.625,-0.751 0.625,-0.842 0,-0.091 0.233,-0.394 0.519,-0.674 0.504,-0.494 2.694,-3.169 3.948,-4.822 0.339,-0.446 0.86,-1.052 1.158,-1.345 0.298,-0.293 0.541,-0.612 0.541,-0.709 0,-0.097 0.125,-0.279 0.276,-0.405 0.152,-0.126 0.695,-0.754 1.206,-1.395 4.213,-5.287 3.825,-5.081 9.536,-5.083 5.554,-0.001 6.155,0.173 6.143,1.783 -0.008,1.139 -0.363,1.647 -3.967,5.693 -0.519,0.583 -1.08,1.273 -1.247,1.534 -0.167,0.261 -0.448,0.52 -0.625,0.576 -0.177,0.057 -0.322,0.209 -0.322,0.339 0,0.13 -0.297,0.557 -0.661,0.947 -0.363,0.391 -1.057,1.174 -1.541,1.741 -0.485,0.566 -1.219,1.417 -1.631,1.892 -0.94,1.079 -1.364,1.575 -2.045,2.387 -0.296,0.353 -0.857,0.969 -1.247,1.369 -0.389,0.399 -0.708,0.795 -0.708,0.879 0,0.084 -0.282,0.444 -0.627,0.798 -2.666,2.744 -2.838,3.312 -1.457,4.815 0.505,0.548 0.958,1.124 1.009,1.279 0.051,0.156 0.239,0.33 0.419,0.387 0.179,0.057 0.434,0.312 0.566,0.566 0.131,0.255 0.501,0.741 0.821,1.082 0.838,0.889 1.3,1.406 2.103,2.349 0.389,0.458 1.031,1.208 1.425,1.667 0.394,0.458 1.06,1.245 1.48,1.75 1.074,1.288 1.922,2.239 2.553,2.86 0.298,0.294 0.541,0.619 0.541,0.723 0,0.104 0.244,0.42 0.542,0.702 0.578,0.547 1.95,2.096 2.153,2.43 0.175,0.289 1.119,1.362 1.847,2.1 0.344,0.348 0.625,0.717 0.625,0.82 0,0.103 0.266,0.453 0.592,0.778 0.555,0.556 0.588,0.649 0.541,1.531 -0.087,1.636 -0.061,1.629 -5.897,1.692 -6.479,0.07 -6.94,-0.049 -8.414,-2.164 -0.213,-0.306 -0.541,-0.71 -0.73,-0.899 -0.188,-0.188 -0.717,-0.818 -1.175,-1.399 -0.459,-0.581 -1.115,-1.343 -1.459,-1.692 -0.343,-0.35 -0.625,-0.711 -0.625,-0.803 0,-0.091 -0.281,-0.461 -0.625,-0.822 -0.343,-0.361 -0.962,-1.085 -1.375,-1.609 -0.412,-0.524 -0.992,-1.226 -1.287,-1.559 -0.296,-0.333 -0.54,-0.653 -0.542,-0.71 -0.002,-0.058 -0.301,-0.42 -0.664,-0.805 -0.362,-0.385 -0.704,-0.841 -0.758,-1.012 -0.055,-0.172 -0.246,-0.359 -0.427,-0.416 -0.18,-0.057 -0.432,-0.355 -0.56,-0.662 -0.129,-0.306 -0.385,-0.639 -0.57,-0.738 -0.186,-0.099 -0.506,-0.48 -0.712,-0.847 -0.206,-0.366 -0.424,-0.666 -0.484,-0.666 -0.06,0 -0.463,-0.456 -0.895,-1.012 -1.078,-1.388 -2.657,-1.983 -3.095,-1.166 -0.112,0.21 -0.172,3.133 -0.172,8.343 0,11.367 0.378,10.737 -6.393,10.635 -4.1,-0.061 -4.365,-0.121 -4.986,-1.12 l -0.371,-0.597 V 57.417 c 0,-35.594 -0.186,-31.849 1.618,-32.709 2.207,-1.051 7.206,-1.71 8.783,-1.157 M 89.309,27.738 c 0.922,0.476 0.937,0.593 0.99,7.928 0.031,4.232 0.111,6.811 0.216,6.916 0.104,0.104 2.664,0.2 6.731,0.251 8.519,0.108 8.133,-0.117 8.051,4.692 -0.073,4.305 0.171,4.179 -8.352,4.303 -5.893,0.085 -6.149,0.102 -6.383,0.422 -0.392,0.536 -0.267,26.579 0.13,27.024 0.151,0.17 0.384,0.573 0.517,0.896 0.77,1.866 3.322,2.328 9.291,1.681 3.576,-0.387 4.912,-0.079 5.219,1.204 0.048,0.199 0.213,0.699 0.368,1.112 0.191,0.51 0.289,1.321 0.305,2.535 l 0.025,1.784 -0.584,0.509 c -0.934,0.815 -1.337,0.969 -3.263,1.244 -1.001,0.142 -2.145,0.374 -2.542,0.514 -2.047,0.722 -9.305,0.723 -11.441,0.001 -0.644,-0.217 -1.597,-0.48 -2.118,-0.584 -0.58,-0.116 -1.183,-0.377 -1.556,-0.673 -0.335,-0.266 -0.771,-0.532 -0.969,-0.59 -0.198,-0.059 -0.602,-0.343 -0.898,-0.632 -0.296,-0.289 -0.696,-0.675 -0.889,-0.858 -0.82,-0.778 -1.162,-1.222 -1.418,-1.842 -0.15,-0.362 -0.452,-0.897 -0.673,-1.19 -0.278,-0.369 -0.45,-0.903 -0.563,-1.75 -0.089,-0.67 -0.24,-1.818 -0.337,-2.552 C 79.07,79.35 78.917,78.261 78.826,77.662 78.72,76.97 78.676,68.347 78.705,53.912 L 78.75,31.25 79.273,30.243 c 0.612,-1.176 0.698,-1.224 3.227,-1.79 4.551,-1.019 5.94,-1.165 6.809,-0.715 M 57.5,41.838 c 1.054,0.094 2.254,0.274 2.667,0.4 0.412,0.126 1.275,0.31 1.916,0.409 0.642,0.1 1.671,0.259 2.286,0.354 2.923,0.452 3.41,1.233 3.141,5.033 -0.176,2.473 -0.283,2.73 -1.426,3.427 l -0.894,0.545 -1.553,-0.327 c -0.855,-0.18 -2.079,-0.375 -2.72,-0.432 -0.642,-0.057 -2.067,-0.222 -3.167,-0.366 -6.839,-0.895 -11.964,0.188 -13.144,2.777 -0.845,1.854 -0.256,4.991 1.045,5.565 0.336,0.149 0.776,0.423 0.976,0.609 0.53,0.494 1.01,0.636 2.756,0.815 0.947,0.096 1.86,0.299 2.314,0.512 0.557,0.262 1.41,0.412 3.318,0.581 2.625,0.234 2.738,0.256 3.917,0.777 0.375,0.165 1.14,0.374 1.699,0.464 1.026,0.166 1.646,0.41 1.952,0.769 0.092,0.107 0.501,0.29 0.91,0.406 0.421,0.12 0.964,0.443 1.25,0.744 0.279,0.292 0.711,0.62 0.961,0.727 0.249,0.107 0.499,0.376 0.554,0.596 0.056,0.221 0.287,0.486 0.513,0.59 0.227,0.103 0.53,0.469 0.674,0.812 0.143,0.344 0.438,0.803 0.656,1.021 0.449,0.45 0.73,1.309 0.731,2.239 0.001,0.35 0.198,1.052 0.439,1.561 0.793,1.675 0.737,5.654 -0.102,7.3 -0.185,0.362 -0.336,0.984 -0.336,1.383 0,0.742 -0.588,2.371 -0.856,2.371 -0.081,0 -0.331,0.413 -0.554,0.919 -0.224,0.505 -0.525,0.964 -0.67,1.019 -0.145,0.056 -0.355,0.269 -0.466,0.473 -0.184,0.334 -0.901,0.99 -2.504,2.286 -0.304,0.246 -0.886,0.578 -1.293,0.737 -0.407,0.16 -0.919,0.427 -1.137,0.594 -0.409,0.313 -1.187,0.564 -2.511,0.81 -0.417,0.077 -1.209,0.31 -1.759,0.517 C 55.044,91.621 43.641,91.502 41,90.686 40.404,90.502 39.135,90.235 38.18,90.092 37.157,89.939 36.211,89.696 35.879,89.5 c -0.51,-0.301 -0.931,-0.43 -2.433,-0.747 -1.26,-0.265 -1.554,-2.642 -0.764,-6.176 0.492,-2.2 2.36,-2.585 6.068,-1.25 0.458,0.165 1.321,0.351 1.917,0.413 0.595,0.062 1.983,0.269 3.083,0.46 3.15,0.547 7.093,0.51 9.481,-0.09 1.929,-0.484 2.249,-0.665 3.737,-2.107 l 0.942,-0.914 0.004,-2.39 0.003,-2.389 -0.525,-0.447 C 57.103,73.618 56.785,73.253 56.684,73.054 56.565,72.817 56.19,72.6 55.61,72.432 55.12,72.289 54.526,72.021 54.29,71.835 53.961,71.577 53.44,71.459 52.056,71.33 c -3.291,-0.307 -4.439,-0.493 -4.972,-0.808 -0.346,-0.204 -1.042,-0.352 -2.015,-0.43 -1.977,-0.159 -2.793,-0.35 -3.534,-0.83 -0.34,-0.22 -1.054,-0.494 -1.586,-0.609 -0.584,-0.127 -1.029,-0.325 -1.122,-0.499 -0.085,-0.158 -0.505,-0.458 -0.932,-0.665 -1.332,-0.644 -4.062,-3.482 -4.062,-4.221 0,-0.103 -0.188,-0.54 -0.417,-0.972 -1.249,-2.345 -1.371,-8.887 -0.21,-11.196 0.18,-0.358 0.433,-0.953 0.563,-1.321 C 34.395,48.004 38.474,44 39.655,44 c 0.122,0 0.605,-0.218 1.075,-0.484 0.487,-0.276 1.461,-0.606 2.27,-0.768 0.779,-0.157 1.609,-0.384 1.844,-0.505 1.005,-0.516 8.649,-0.761 12.656,-0.405 m 82.929,10e-4 c 1.002,0.095 2.083,0.283 2.404,0.417 0.321,0.135 1.324,0.391 2.229,0.57 0.905,0.179 1.767,0.433 1.917,0.563 0.149,0.131 0.459,0.295 0.688,0.365 1.465,0.444 3.786,2.399 4.524,3.811 0.187,0.357 0.47,0.789 0.63,0.96 0.294,0.315 0.837,2.798 1.174,5.362 0.105,0.797 0.172,6.371 0.172,14.347 v 13.043 l -0.402,2.017 c -0.222,1.109 -0.503,2.199 -0.625,2.421 -0.448,0.813 -1.148,1.785 -1.285,1.785 -0.078,0 -0.414,0.257 -0.747,0.571 -0.375,0.353 -0.965,0.676 -1.545,0.844 -0.517,0.151 -1.136,0.418 -1.376,0.595 -0.284,0.208 -1.05,0.411 -2.187,0.578 -0.963,0.142 -2.2,0.403 -2.75,0.581 -2.563,0.83 -17.443,0.975 -19.5,0.191 -0.55,-0.21 -1.413,-0.454 -1.917,-0.543 -1.322,-0.231 -2.014,-0.473 -2.594,-0.906 -0.282,-0.21 -0.817,-0.464 -1.189,-0.564 -0.373,-0.101 -0.776,-0.301 -0.896,-0.446 -0.12,-0.144 -0.546,-0.488 -0.947,-0.764 -0.942,-0.648 -2.023,-1.806 -2.504,-2.684 -0.21,-0.381 -0.534,-0.857 -0.721,-1.056 -0.187,-0.199 -0.457,-0.874 -0.6,-1.499 -0.142,-0.626 -0.399,-1.327 -0.57,-1.559 -0.885,-1.204 -0.893,-8.22 -0.011,-10.048 0.286,-0.593 0.593,-1.4 0.681,-1.792 0.088,-0.393 0.319,-0.872 0.513,-1.065 0.195,-0.193 0.576,-0.711 0.848,-1.151 0.272,-0.441 0.729,-0.928 1.015,-1.084 0.287,-0.155 0.704,-0.48 0.926,-0.722 0.223,-0.242 0.751,-0.572 1.173,-0.734 0.423,-0.161 1.019,-0.463 1.324,-0.67 0.331,-0.225 1.042,-0.452 1.762,-0.564 0.664,-0.102 1.432,-0.295 1.707,-0.427 1.05,-0.504 1.574,-0.612 4.082,-0.837 1.99,-0.179 2.75,-0.316 3.303,-0.595 0.582,-0.293 1.294,-0.407 3.746,-0.602 2.211,-0.175 3.213,-0.325 3.719,-0.555 0.895,-0.408 1.834,-0.607 3.483,-0.739 2.239,-0.18 2.217,-0.17 2.346,-1.03 0.311,-2.07 -0.543,-5.594 -1.47,-6.072 -0.207,-0.107 -0.526,-0.324 -0.709,-0.483 -0.592,-0.515 -5.885,-1.095 -8.333,-0.913 -4.154,0.308 -7.964,0.78 -9.31,1.154 -0.811,0.226 -1.936,0.459 -2.5,0.519 -0.563,0.06 -1.382,0.222 -1.82,0.36 -1.897,0.601 -3.107,-0.026 -3.452,-1.789 -0.099,-0.504 -0.252,-1.029 -0.341,-1.167 -0.422,-0.654 -0.541,-1.195 -0.558,-2.559 L 113.917,45.798 114.5,45.3 c 0.994,-0.847 1.278,-0.986 2.533,-1.242 0.67,-0.136 1.78,-0.425 2.467,-0.641 0.688,-0.217 2.21,-0.518 3.383,-0.668 1.173,-0.151 2.448,-0.38 2.833,-0.51 1.511,-0.507 10.895,-0.762 14.713,-0.4 m 48.943,0.064 c 1.395,0.628 2.01,5.561 0.977,7.839 -0.621,1.369 -0.574,1.357 -6.016,1.569 -5.024,0.195 -7.592,0.666 -8.132,1.49 -0.262,0.4 -0.291,1.798 -0.368,17.874 -0.059,12.506 -0.136,17.507 -0.27,17.674 -0.102,0.129 -0.277,0.516 -0.388,0.861 -0.326,1.013 -0.459,1.04 -5.092,1.04 -4.644,0 -4.957,-0.064 -5.539,-1.128 -0.276,-0.506 -0.294,-1.729 -0.294,-20.455 V 48.75 l 0.393,-0.737 c 0.599,-1.124 2.007,-2.446 2.874,-2.698 0.403,-0.118 0.995,-0.384 1.316,-0.591 0.321,-0.208 1.093,-0.496 1.716,-0.64 0.623,-0.144 1.523,-0.415 2,-0.603 0.477,-0.188 1.88,-0.49 3.118,-0.671 1.237,-0.18 2.625,-0.436 3.083,-0.567 1.653,-0.476 9.744,-0.734 10.622,-0.34 m 83.961,-0.068 c 0.871,0.089 1.846,0.274 2.167,0.411 0.321,0.137 1.281,0.397 2.133,0.579 0.874,0.186 1.738,0.478 1.98,0.669 0.237,0.186 0.709,0.413 1.05,0.505 0.341,0.092 0.875,0.352 1.187,0.577 0.312,0.226 0.829,0.556 1.15,0.734 0.321,0.178 0.754,0.556 0.963,0.84 0.209,0.284 0.483,0.517 0.609,0.517 0.126,0 0.383,0.262 0.573,0.583 0.189,0.321 0.421,0.583 0.515,0.583 0.094,0 0.407,0.419 0.696,0.931 0.289,0.513 0.627,0.971 0.752,1.019 0.125,0.047 0.343,0.486 0.484,0.973 0.142,0.488 0.393,1.061 0.558,1.274 0.568,0.732 0.733,1.21 0.864,2.509 0.081,0.81 0.256,1.507 0.461,1.84 0.933,1.52 1.26,13.867 0.389,14.682 -0.155,0.145 -0.527,0.49 -0.828,0.768 l -0.547,0.504 h -14.753 c -12.559,0 -14.822,0.036 -15.22,0.242 l -0.467,0.241 0.225,1.634 c 0.27,1.96 0.381,2.307 1.021,3.19 0.271,0.374 0.587,0.909 0.703,1.189 0.118,0.285 0.376,0.55 0.585,0.602 0.206,0.052 0.472,0.277 0.591,0.5 0.125,0.233 0.661,0.615 1.258,0.897 0.572,0.27 1.085,0.564 1.139,0.652 0.055,0.089 0.342,0.211 0.639,0.271 0.297,0.061 1.177,0.27 1.957,0.465 1.898,0.476 8.81,0.526 10.833,0.079 0.688,-0.152 1.925,-0.364 2.75,-0.471 0.825,-0.107 1.762,-0.306 2.083,-0.443 2.591,-1.105 4.19,-0.911 4.678,0.569 0.114,0.348 0.352,0.828 0.527,1.065 0.437,0.591 0.62,1.493 0.624,3.068 0.006,1.979 -0.256,2.405 -1.745,2.832 -0.642,0.184 -1.36,0.466 -1.595,0.626 -0.244,0.166 -1.178,0.403 -2.167,0.551 -0.956,0.143 -2.213,0.405 -2.793,0.584 -2.693,0.828 -15.014,0.952 -17.195,0.173 -0.596,-0.212 -1.738,-0.522 -2.539,-0.687 -0.8,-0.166 -1.663,-0.449 -1.916,-0.63 -0.254,-0.18 -0.8,-0.423 -1.212,-0.539 -0.413,-0.116 -1.013,-0.413 -1.333,-0.66 -0.321,-0.246 -0.809,-0.565 -1.084,-0.707 -1.529,-0.793 -4.699,-4.437 -5.162,-5.935 -0.066,-0.216 -0.289,-0.64 -0.495,-0.943 -0.206,-0.304 -0.465,-0.915 -0.576,-1.358 -0.274,-1.096 -0.441,-1.643 -0.836,-2.743 -1.049,-2.919 -0.91,-19.266 0.182,-21.397 0.14,-0.275 0.349,-0.986 0.462,-1.579 0.201,-1.047 0.681,-2.219 0.987,-2.408 0.083,-0.051 0.198,-0.344 0.255,-0.651 0.058,-0.307 0.366,-0.863 0.686,-1.236 0.319,-0.374 0.581,-0.752 0.581,-0.841 0,-0.15 0.993,-1.297 1.617,-1.868 1.259,-1.152 1.703,-1.5 1.914,-1.5 0.134,0 0.414,-0.182 0.623,-0.404 0.208,-0.221 0.615,-0.494 0.904,-0.605 0.289,-0.112 0.975,-0.414 1.525,-0.672 0.55,-0.258 1.6,-0.588 2.333,-0.733 0.734,-0.145 1.596,-0.373 1.917,-0.507 1.249,-0.523 8.796,-0.774 12.333,-0.411 m -58.75,8.662 c -1.717,0.208 -3.742,0.741 -4.483,1.18 -0.908,0.539 -2.267,1.913 -2.267,2.294 0,0.175 -0.139,0.496 -0.309,0.715 -0.586,0.751 -0.816,1.4 -1,2.814 -0.101,0.779 -0.316,2.392 -0.479,3.583 -0.387,2.843 -0.392,7.749 -0.009,10.5 0.153,1.1 0.362,2.675 0.466,3.5 0.172,1.375 0.419,2.115 1.083,3.25 0.134,0.23 0.245,0.532 0.246,0.673 0.008,0.88 2.452,2.678 4.336,3.191 2.708,0.738 12.924,0.267 13.829,-0.637 0.117,-0.117 0.206,-29.041 0.09,-29.514 -0.138,-0.565 -0.447,-0.656 -3.845,-1.129 -3.566,-0.496 -5.949,-0.627 -7.658,-0.42 m 51.084,-0.055 c -1.179,0.228 -3.426,0.913 -3.812,1.162 -1.17,0.757 -1.838,1.452 -2.188,2.276 -0.204,0.479 -0.463,0.982 -0.577,1.12 -0.358,0.434 -0.588,1.665 -0.842,4.5 -0.353,3.934 -0.339,4.437 0.127,4.562 0.558,0.149 19.675,0.121 19.912,-0.03 0.426,-0.27 -0.109,-7.749 -0.573,-8.009 -0.141,-0.079 -0.425,-0.644 -0.631,-1.256 -0.991,-2.944 -3.588,-4.277 -8.5,-4.362 -1.375,-0.024 -2.687,-0.007 -2.916,0.037 m -127,17.214 c -0.321,0.065 -0.839,0.252 -1.151,0.415 -0.367,0.193 -1.219,0.351 -2.417,0.448 -3.713,0.304 -4.695,0.451 -5.276,0.791 -0.354,0.207 -1.25,0.429 -2.341,0.58 l -1.769,0.245 -0.929,0.922 c -1.469,1.457 -1.482,1.491 -1.574,3.988 -0.097,2.621 0.115,4.038 0.677,4.533 0.212,0.186 0.487,0.545 0.611,0.797 0.124,0.252 0.285,0.458 0.358,0.458 0.073,0 0.379,0.216 0.68,0.479 0.302,0.265 1.257,0.732 2.131,1.042 l 1.583,0.562 3.667,0.053 c 3.093,0.044 3.969,0 5.602,-0.284 4.18,-0.726 3.981,-0.292 3.981,-8.679 v -6.3 l -0.375,-0.101 c -0.492,-0.132 -2.715,-0.099 -3.458,0.051 M -25,0 h 20 v 20 h -20 z m 430,0 h 20 v 20 h -20 z"
       id="path1" />
    <path
       style="fill:#a6a6a4;fill-rule:evenodd;stroke:none"
       transform="translate(950)"
       d="m 233.583,23.362 c -4.138,0.534 -6.619,1.314 -7.083,2.229 -0.21,0.414 -0.258,1.813 -0.302,8.742 -0.029,4.538 -0.104,8.297 -0.167,8.354 -0.177,0.161 -2.474,-0.139 -3.253,-0.424 -2.15,-0.788 -13.619,-0.8 -14.867,-0.016 -0.187,0.118 -0.909,0.332 -1.605,0.475 -0.695,0.144 -1.715,0.491 -2.264,0.77 -0.55,0.279 -1.079,0.508 -1.175,0.508 -0.096,0 -0.519,0.262 -0.939,0.583 -0.42,0.321 -0.828,0.584 -0.907,0.584 -0.175,0 -2.521,2.221 -2.521,2.386 0,0.065 -0.338,0.533 -0.75,1.039 -0.412,0.507 -0.75,1.004 -0.75,1.104 0,0.101 -0.221,0.544 -0.492,0.984 -0.271,0.439 -0.601,1.198 -0.734,1.685 -0.133,0.487 -0.439,1.433 -0.679,2.102 -0.277,0.772 -0.498,1.869 -0.605,3 -0.093,0.981 -0.295,2.683 -0.449,3.783 -0.374,2.669 -0.37,8.488 0.006,10.833 0.147,0.917 0.314,2.342 0.371,3.167 0.118,1.715 0.305,2.713 0.688,3.667 0.147,0.366 0.326,0.816 0.398,1 0.073,0.183 0.225,0.696 0.34,1.139 0.114,0.444 0.384,1.067 0.601,1.386 0.216,0.319 0.493,0.82 0.616,1.113 0.196,0.47 1.032,1.566 1.772,2.323 0.934,0.955 1.493,1.443 2.011,1.754 0.327,0.197 0.733,0.51 0.902,0.697 0.169,0.186 0.614,0.421 0.989,0.52 0.375,0.1 1.004,0.393 1.398,0.652 0.47,0.31 1.129,0.539 1.917,0.669 0.66,0.109 1.556,0.342 1.991,0.518 2.192,0.888 16.164,0.929 18.253,0.053 0.343,-0.143 1.628,-0.4 2.856,-0.571 1.569,-0.218 2.362,-0.406 2.666,-0.631 0.239,-0.176 0.846,-0.422 1.351,-0.546 1.469,-0.363 3.457,-2.179 3.868,-3.534 0.323,-1.064 0.316,-60.865 -0.007,-61.431 -0.449,-0.788 -1.269,-0.946 -3.445,-0.666 m 72.834,0.087 c -2.389,0.267 -4.112,0.623 -4.973,1.028 -0.382,0.179 -0.855,0.372 -1.051,0.43 -0.843,0.246 -0.81,-1.073 -0.81,32.51 0,25.765 0.04,31.427 0.223,31.86 0.378,0.895 0.809,0.973 5.361,0.973 6.299,0 5.811,0.873 5.824,-10.432 l 0.009,-8.266 0.544,-0.293 c 0.728,-0.391 1.836,-0.125 2.255,0.544 0.157,0.248 0.457,0.638 0.669,0.866 0.325,0.351 2.169,2.554 2.578,3.081 0.071,0.092 0.431,0.504 0.799,0.917 0.368,0.412 0.777,0.949 0.909,1.193 0.132,0.244 0.41,0.582 0.619,0.75 0.208,0.169 0.521,0.532 0.696,0.807 0.174,0.275 0.458,0.65 0.631,0.833 0.363,0.386 2.493,2.913 2.667,3.164 0.319,0.461 1.844,2.24 2.37,2.766 0.328,0.328 0.596,0.681 0.596,0.786 0,0.184 0.359,0.591 1.968,2.236 1.044,1.067 1.445,1.131 7.098,1.131 4.613,0 4.731,-0.008 5.45,-0.387 0.994,-0.524 1.106,-1.384 0.327,-2.516 -0.28,-0.407 -0.509,-0.8 -0.509,-0.873 0,-0.073 -0.282,-0.413 -0.625,-0.755 -0.344,-0.342 -0.838,-0.88 -1.099,-1.197 -0.26,-0.316 -0.729,-0.852 -1.041,-1.19 -0.313,-0.338 -0.569,-0.674 -0.569,-0.746 0,-0.071 -0.3,-0.401 -0.666,-0.733 C 336.3,81.605 336,81.291 336,81.239 c 0,-0.052 -0.394,-0.55 -0.875,-1.107 -0.481,-0.557 -1.2,-1.395 -1.598,-1.864 -0.397,-0.468 -1.147,-1.328 -1.666,-1.911 -0.519,-0.583 -1.081,-1.273 -1.248,-1.534 -0.166,-0.261 -0.448,-0.521 -0.625,-0.577 -0.177,-0.056 -0.321,-0.226 -0.321,-0.379 0,-0.152 -0.282,-0.547 -0.625,-0.877 -0.344,-0.33 -1.038,-1.106 -1.542,-1.724 -0.504,-0.618 -1.142,-1.374 -1.417,-1.68 -0.275,-0.307 -0.762,-0.874 -1.083,-1.26 -0.321,-0.386 -0.831,-0.953 -1.133,-1.26 -0.672,-0.683 -0.618,-1.43 0.163,-2.281 0.27,-0.294 0.73,-0.817 1.022,-1.161 0.292,-0.344 0.722,-0.831 0.954,-1.083 0.233,-0.252 0.589,-0.693 0.79,-0.981 0.202,-0.288 0.612,-0.781 0.911,-1.097 0.298,-0.315 0.843,-0.923 1.21,-1.351 0.366,-0.427 0.985,-1.123 1.375,-1.547 0.389,-0.423 0.708,-0.86 0.708,-0.972 0,-0.112 0.186,-0.303 0.414,-0.425 0.228,-0.122 0.459,-0.362 0.513,-0.535 0.055,-0.172 0.394,-0.629 0.755,-1.015 0.36,-0.386 0.822,-0.882 1.028,-1.103 0.205,-0.221 0.486,-0.57 0.623,-0.775 0.138,-0.205 0.866,-1.074 1.619,-1.931 0.752,-0.858 1.591,-1.822 1.864,-2.142 0.272,-0.321 0.837,-0.98 1.256,-1.464 0.419,-0.485 0.761,-0.956 0.761,-1.049 0,-0.092 0.15,-0.329 0.334,-0.526 0.809,-0.868 0.228,-2.244 -1.104,-2.613 -0.793,-0.221 -7.392,-0.236 -8.879,-0.021 -1.161,0.168 -1.989,0.687 -2.601,1.632 -0.183,0.283 -0.46,0.549 -0.615,0.593 -0.155,0.043 -0.392,0.343 -0.527,0.666 -0.136,0.324 -0.396,0.668 -0.579,0.766 -0.183,0.098 -0.505,0.46 -0.715,0.805 -0.211,0.345 -0.472,0.702 -0.581,0.794 -0.109,0.092 -0.655,0.729 -1.212,1.417 -0.558,0.687 -1.278,1.538 -1.601,1.89 -0.322,0.352 -0.586,0.714 -0.586,0.803 0,0.089 -0.244,0.415 -0.542,0.724 -0.826,0.857 -1.653,1.84 -1.841,2.187 -0.092,0.172 -0.456,0.608 -0.809,0.97 -0.353,0.362 -0.642,0.712 -0.642,0.778 0,0.066 -0.3,0.433 -0.666,0.814 -0.367,0.382 -0.667,0.756 -0.667,0.831 0,0.075 -0.264,0.425 -0.587,0.778 -1.157,1.266 -1.334,1.476 -1.613,1.92 -0.155,0.248 -0.605,0.596 -1,0.773 l -0.717,0.321 -0.541,-0.511 L 311,61.435 V 43.541 c 0,-12.441 -0.056,-18.115 -0.183,-18.62 -0.369,-1.466 -1.394,-1.809 -4.4,-1.472 m 47.5,0.124 c -2.126,0.29 -3.181,0.563 -4.382,1.135 -1.804,0.86 -1.618,-2.885 -1.618,32.709 v 31.166 l 0.371,0.597 c 0.621,0.999 0.886,1.059 4.986,1.12 6.771,0.102 6.393,0.732 6.393,-10.635 0,-5.21 0.06,-8.133 0.172,-8.343 0.438,-0.817 2.017,-0.222 3.095,1.166 0.432,0.556 0.835,1.012 0.895,1.012 0.06,0 0.278,0.3 0.484,0.666 0.206,0.367 0.526,0.748 0.712,0.847 0.185,0.099 0.441,0.432 0.57,0.738 0.128,0.307 0.38,0.605 0.56,0.662 0.181,0.057 0.372,0.244 0.427,0.416 0.054,0.171 0.396,0.627 0.758,1.012 0.363,0.385 0.662,0.747 0.664,0.805 0.002,0.057 0.246,0.377 0.542,0.71 0.295,0.333 0.875,1.035 1.287,1.559 0.413,0.524 1.032,1.248 1.375,1.609 0.344,0.361 0.625,0.731 0.625,0.822 0,0.092 0.282,0.453 0.625,0.803 0.344,0.349 1,1.111 1.459,1.692 0.458,0.581 0.987,1.211 1.175,1.399 0.189,0.189 0.517,0.593 0.73,0.899 1.474,2.115 1.935,2.234 8.414,2.164 5.836,-0.063 5.81,-0.056 5.897,-1.692 0.047,-0.882 0.014,-0.975 -0.541,-1.531 C 389.266,86.755 389,86.405 389,86.302 c 0,-0.103 -0.281,-0.472 -0.625,-0.82 -0.728,-0.738 -1.672,-1.811 -1.847,-2.1 -0.203,-0.334 -1.575,-1.883 -2.153,-2.43 -0.298,-0.282 -0.542,-0.598 -0.542,-0.702 0,-0.104 -0.243,-0.429 -0.541,-0.723 -0.631,-0.621 -1.479,-1.572 -2.553,-2.86 -0.42,-0.505 -1.086,-1.292 -1.48,-1.75 -0.394,-0.459 -1.036,-1.209 -1.425,-1.667 -0.803,-0.943 -1.265,-1.46 -2.103,-2.349 -0.32,-0.341 -0.69,-0.827 -0.821,-1.082 -0.132,-0.254 -0.387,-0.509 -0.566,-0.566 -0.18,-0.057 -0.368,-0.231 -0.419,-0.387 -0.051,-0.155 -0.504,-0.731 -1.009,-1.279 -1.381,-1.503 -1.209,-2.071 1.457,-4.815 0.345,-0.354 0.627,-0.714 0.627,-0.798 0,-0.084 0.319,-0.48 0.708,-0.879 0.39,-0.4 0.951,-1.016 1.247,-1.369 0.681,-0.812 1.105,-1.308 2.045,-2.387 0.412,-0.475 1.146,-1.326 1.631,-1.892 0.484,-0.567 1.178,-1.35 1.541,-1.741 0.364,-0.39 0.661,-0.817 0.661,-0.947 0,-0.13 0.145,-0.282 0.322,-0.339 0.177,-0.056 0.458,-0.315 0.625,-0.576 0.167,-0.261 0.728,-0.951 1.247,-1.534 3.604,-4.046 3.959,-4.554 3.967,-5.693 0.012,-1.61 -0.589,-1.784 -6.143,-1.783 -5.442,0.002 -5.5,0.027 -8.407,3.666 -0.11,0.137 -0.618,0.775 -1.129,1.417 -0.511,0.641 -1.054,1.269 -1.206,1.395 -0.151,0.126 -0.276,0.308 -0.276,0.405 0,0.097 -0.243,0.416 -0.541,0.709 -0.298,0.293 -0.819,0.899 -1.158,1.345 -1.254,1.653 -3.444,4.328 -3.948,4.822 -0.286,0.28 -0.519,0.583 -0.519,0.674 0,0.091 -0.282,0.47 -0.625,0.842 -0.65,0.703 -0.775,0.86 -1.929,2.407 -1.138,1.525 -2.734,2.332 -3.156,1.596 -0.16,-0.28 -0.226,-4.554 -0.29,-18.892 -0.083,-18.48 -0.085,-18.53 -0.433,-19 -0.655,-0.883 -2.203,-1.071 -5.317,-0.647 m -117.548,0.969 c 0.172,0.3 0.224,6.063 0.261,29.041 0.047,28.942 0.011,31.058 -0.549,31.817 -0.142,0.192 -0.448,0.612 -0.68,0.932 -0.232,0.32 -0.699,0.723 -1.036,0.895 -0.338,0.173 -0.894,0.455 -1.235,0.628 -5.463,2.769 -21.457,3.233 -27.963,0.811 -0.78,-0.29 -1.548,-0.567 -1.709,-0.616 -0.16,-0.049 -0.291,-0.148 -0.291,-0.221 0,-0.073 -0.344,-0.299 -0.764,-0.503 -0.421,-0.203 -0.964,-0.556 -1.209,-0.785 -1.295,-1.211 -2.527,-2.462 -2.527,-2.565 0,-0.065 -0.172,-0.329 -0.383,-0.588 -0.21,-0.259 -0.524,-0.809 -0.698,-1.221 -0.173,-0.413 -0.408,-0.863 -0.521,-1 -0.113,-0.138 -0.371,-0.85 -0.572,-1.584 -0.201,-0.733 -0.541,-1.933 -0.754,-2.666 -1,-3.436 -1.042,-17.07 -0.062,-20.167 0.174,-0.55 0.428,-1.539 0.565,-2.198 0.137,-0.658 0.588,-1.919 1.003,-2.801 0.415,-0.883 0.755,-1.675 0.755,-1.761 0,-0.086 0.069,-0.157 0.153,-0.157 0.084,0 0.322,-0.281 0.529,-0.625 3.385,-5.628 14.204,-7.828 26.481,-5.385 1.805,0.359 1.837,0.197 1.837,-9.232 0,-9.528 -0.22,-8.855 3.083,-9.443 0.917,-0.163 2.267,-0.444 3,-0.625 1.912,-0.469 3.011,-0.463 3.286,0.019 m 72.514,-0.198 c 0.985,0.274 0.949,-0.438 0.967,19.292 0.009,10.054 0.067,18.461 0.129,18.682 0.191,0.685 0.865,1.049 1.959,1.059 1.726,0.016 1.779,-0.035 7.772,-7.509 0.389,-0.484 1.044,-1.279 1.457,-1.766 0.412,-0.487 1.275,-1.54 1.916,-2.339 0.642,-0.8 1.355,-1.673 1.584,-1.939 0.229,-0.267 0.754,-0.902 1.166,-1.411 0.413,-0.509 1.107,-1.336 1.542,-1.838 0.435,-0.501 0.792,-0.985 0.792,-1.075 0,-0.09 0.424,-0.445 0.943,-0.79 l 0.944,-0.627 4.292,-0.058 4.292,-0.057 0.272,0.415 c 0.459,0.7 0.148,1.314 -1.699,3.36 -0.162,0.179 -0.455,0.539 -0.652,0.801 -0.379,0.502 -1.634,1.952 -2.908,3.36 -0.421,0.465 -1.208,1.375 -1.75,2.021 -1.429,1.706 -3.987,4.706 -4.753,5.575 -1.147,1.302 -3.493,4.032 -4.584,5.336 -0.116,0.139 -0.282,0.568 -0.369,0.954 -0.178,0.793 -0.581,0.216 3.242,4.646 1.02,1.181 2.216,2.597 2.658,3.147 0.442,0.55 1.399,1.675 2.126,2.5 0.727,0.825 1.593,1.824 1.925,2.219 0.332,0.396 0.904,1.051 1.271,1.457 0.366,0.405 0.904,1.019 1.196,1.364 0.716,0.848 1.786,2.121 2.617,3.113 0.378,0.45 0.924,1.087 1.213,1.416 2.23,2.53 2.138,2.351 1.68,3.306 -0.209,0.437 -7.945,0.586 -9.591,0.185 -0.765,-0.187 -2.139,-1.128 -2.315,-1.585 -0.048,-0.126 -0.316,-0.472 -0.595,-0.769 -0.621,-0.661 -3.946,-4.684 -4.281,-5.18 -0.134,-0.197 -0.546,-0.697 -0.917,-1.109 -0.371,-0.413 -0.974,-1.121 -1.341,-1.572 -0.366,-0.452 -0.966,-1.176 -1.333,-1.609 -0.367,-0.433 -1.192,-1.441 -1.833,-2.241 -4.041,-5.035 -5.052,-5.761 -7.045,-5.066 -1.017,0.354 -1.038,0.549 -1.045,9.7 -0.007,10.42 0.385,9.621 -4.722,9.621 -3.56,0 -4.415,-0.214 -4.756,-1.192 -0.27,-0.777 -0.257,-60.603 0.014,-61.508 0.251,-0.838 0.72,-1.082 2.689,-1.4 0.842,-0.136 1.931,-0.364 2.42,-0.506 0.747,-0.217 1.947,-0.465 2.611,-0.54 0.092,-0.01 0.452,0.061 0.8,0.157 m 49.159,0.359 c 0.274,0.314 0.292,1.45 0.301,18.607 0.01,19.631 -0.014,19.097 0.878,19.758 1.34,0.992 2.96,0.265 4.946,-2.22 0.321,-0.401 1.111,-1.338 1.756,-2.081 0.646,-0.742 1.341,-1.624 1.545,-1.959 0.205,-0.334 0.479,-0.649 0.61,-0.7 0.131,-0.05 0.35,-0.308 0.488,-0.574 0.137,-0.265 0.497,-0.745 0.8,-1.066 0.303,-0.321 0.787,-0.877 1.077,-1.234 0.289,-0.358 1.131,-1.401 1.872,-2.317 0.741,-0.917 1.629,-1.989 1.974,-2.383 0.345,-0.393 0.655,-0.806 0.689,-0.916 0.034,-0.111 0.308,-0.464 0.609,-0.785 0.301,-0.321 0.903,-0.977 1.337,-1.458 1.146,-1.272 1.61,-1.375 6.187,-1.375 h 3.717 l 0.544,0.497 c 0.334,0.305 0.479,0.547 0.375,0.625 -0.094,0.071 -0.269,0.353 -0.389,0.628 -0.12,0.275 -0.442,0.725 -0.714,1 -0.273,0.275 -0.874,0.95 -1.337,1.5 -0.463,0.55 -1.04,1.228 -1.282,1.507 -0.243,0.279 -0.817,0.95 -1.275,1.49 -0.458,0.54 -1.381,1.624 -2.05,2.409 -0.669,0.785 -1.471,1.727 -1.783,2.094 -0.744,0.874 -2.039,2.377 -2.667,3.095 -0.275,0.314 -0.876,1.021 -1.337,1.571 -0.947,1.133 -1.132,1.347 -2.669,3.084 -1.75,1.978 -1.973,2.813 -0.994,3.712 0.321,0.295 0.583,0.594 0.583,0.666 0,0.071 0.67,0.897 1.488,1.834 0.819,0.938 2.282,2.642 3.252,3.788 1.838,2.172 2.708,3.181 3.45,4.002 0.242,0.268 0.691,0.803 0.997,1.19 0.306,0.387 0.708,0.862 0.893,1.055 0.349,0.365 1.021,1.141 2.17,2.505 0.367,0.436 1.233,1.438 1.925,2.228 3.183,3.636 3.188,3.646 2.438,4.478 -0.334,0.371 -0.387,0.375 -4.704,0.375 -5.17,0 -5.321,-0.037 -6.767,-1.681 -0.49,-0.557 -1.135,-1.277 -1.433,-1.599 C 375.244,85.73 375,85.426 375,85.376 c 0,-0.05 -0.319,-0.45 -0.708,-0.888 -0.39,-0.439 -1.084,-1.261 -1.542,-1.829 -0.849,-1.051 -2.692,-3.271 -3.591,-4.326 -0.274,-0.321 -0.832,-0.996 -1.24,-1.5 -5.039,-6.227 -5.856,-7 -7.396,-7 -2.151,0 -2.19,0.176 -2.19,10.011 0,10.365 0.479,9.492 -5.198,9.486 -3.38,-0.003 -3.392,-0.006 -4.052,-1.271 -0.438,-0.841 -0.369,-60.671 0.071,-61.535 0.469,-0.919 0.629,-1.002 2.619,-1.357 0.996,-0.177 2.448,-0.468 3.227,-0.646 1.616,-0.37 2.613,-0.31 3.042,0.182 m -272.459,3.08 c -5.577,1.151 -5.642,1.177 -6.31,2.46 L 78.75,31.25 78.705,53.912 c -0.029,14.435 0.015,23.058 0.121,23.75 0.091,0.599 0.244,1.688 0.34,2.421 0.097,0.734 0.248,1.882 0.337,2.552 0.113,0.847 0.285,1.381 0.563,1.75 0.221,0.293 0.523,0.828 0.673,1.19 0.256,0.62 0.598,1.064 1.418,1.842 0.193,0.183 0.593,0.569 0.889,0.858 0.296,0.289 0.7,0.573 0.898,0.632 0.198,0.058 0.634,0.324 0.969,0.59 0.373,0.296 0.976,0.557 1.556,0.673 0.521,0.104 1.474,0.367 2.118,0.584 2.136,0.722 9.394,0.721 11.441,-0.001 0.397,-0.14 1.541,-0.372 2.542,-0.514 1.926,-0.275 2.329,-0.429 3.263,-1.244 l 0.584,-0.509 -0.025,-1.784 c -0.016,-1.214 -0.114,-2.025 -0.305,-2.535 -0.155,-0.413 -0.32,-0.913 -0.368,-1.112 -0.307,-1.283 -1.643,-1.591 -5.219,-1.204 -5.969,0.647 -8.521,0.185 -9.291,-1.681 -0.133,-0.323 -0.366,-0.726 -0.517,-0.896 -0.397,-0.445 -0.522,-26.488 -0.13,-27.024 0.234,-0.32 0.49,-0.337 6.383,-0.422 8.523,-0.124 8.279,0.002 8.352,-4.303 0.082,-4.809 0.468,-4.584 -8.051,-4.692 -4.067,-0.051 -6.627,-0.147 -6.731,-0.251 -0.105,-0.105 -0.185,-2.684 -0.216,-6.916 -0.064,-8.792 -0.091,-8.837 -4.716,-7.883 m 3.128,1.306 0.622,0.423 0.001,6.452 c 10e-4,8.734 -0.815,7.863 7.385,7.886 7.854,0.022 7.364,-0.217 7.364,3.594 v 2.418 l -0.467,0.403 -0.468,0.402 h -6.315 -6.314 l -0.442,0.379 c -0.714,0.615 -0.778,2.028 -0.708,15.704 l 0.064,12.333 0.379,0.959 C 90.02,80.569 90.253,81 90.329,81 c 0.076,0 0.282,0.244 0.459,0.542 0.341,0.577 0.48,0.661 2.293,1.4 1.647,0.671 4.927,0.671 7.586,0 3.47,-0.876 3.844,-0.652 4.406,2.641 0.369,2.159 0.012,2.875 -1.656,3.324 -4.916,1.323 -13.999,1.377 -16.825,0.099 -0.371,-0.167 -0.975,-0.429 -1.342,-0.581 -0.367,-0.151 -0.892,-0.488 -1.167,-0.748 -0.275,-0.261 -0.665,-0.523 -0.866,-0.584 -0.202,-0.06 -0.413,-0.255 -0.469,-0.433 -0.056,-0.177 -0.319,-0.539 -0.584,-0.804 -0.58,-0.58 -1.781,-3.219 -2.096,-4.606 -0.39,-1.715 -0.332,-50.21 0.061,-50.674 0.458,-0.542 1.838,-0.913 6.121,-1.645 1.825,-0.312 1.763,-0.316 2.461,0.158 M 46.677,41.867 c -0.773,0.086 -1.598,0.256 -1.833,0.376 C 44.609,42.364 43.779,42.591 43,42.748 42.191,42.91 41.217,43.24 40.73,43.516 40.26,43.782 39.777,44 39.655,44 c -1.181,0 -5.26,4.004 -5.886,5.779 -0.13,0.368 -0.383,0.963 -0.563,1.321 -1.161,2.309 -1.039,8.851 0.21,11.196 0.229,0.432 0.417,0.869 0.417,0.972 0,0.739 2.73,3.577 4.062,4.221 0.427,0.207 0.847,0.507 0.932,0.665 0.093,0.174 0.538,0.372 1.122,0.499 0.532,0.115 1.246,0.389 1.586,0.609 0.741,0.48 1.557,0.671 3.534,0.83 0.973,0.078 1.669,0.226 2.015,0.43 0.533,0.315 1.681,0.501 4.972,0.808 1.384,0.129 1.905,0.247 2.234,0.505 0.236,0.186 0.83,0.454 1.32,0.597 0.58,0.168 0.955,0.385 1.074,0.622 0.101,0.199 0.419,0.564 0.708,0.809 l 0.525,0.447 -0.003,2.389 -0.004,2.39 -0.942,0.914 c -1.488,1.442 -1.808,1.623 -3.737,2.107 -2.388,0.6 -6.331,0.637 -9.481,0.09 -1.1,-0.191 -2.488,-0.398 -3.083,-0.46 -0.596,-0.062 -1.459,-0.248 -1.917,-0.413 -3.708,-1.335 -5.576,-0.95 -6.068,1.25 -0.79,3.534 -0.496,5.911 0.764,6.176 1.502,0.317 1.923,0.446 2.433,0.747 0.332,0.196 1.278,0.439 2.301,0.592 0.955,0.143 2.224,0.41 2.82,0.594 2.641,0.816 14.044,0.935 16.083,0.169 0.55,-0.207 1.342,-0.44 1.759,-0.517 1.324,-0.246 2.102,-0.497 2.511,-0.81 0.218,-0.167 0.73,-0.434 1.137,-0.594 0.407,-0.159 0.989,-0.491 1.293,-0.737 1.603,-1.296 2.32,-1.952 2.504,-2.286 0.111,-0.204 0.321,-0.417 0.466,-0.473 0.145,-0.055 0.446,-0.514 0.67,-1.019 0.223,-0.506 0.473,-0.919 0.554,-0.919 0.268,0 0.856,-1.629 0.856,-2.371 0,-0.399 0.151,-1.021 0.336,-1.383 0.839,-1.646 0.895,-5.625 0.102,-7.3 -0.241,-0.509 -0.438,-1.211 -0.439,-1.561 -10e-4,-0.93 -0.282,-1.789 -0.731,-2.239 -0.218,-0.218 -0.513,-0.677 -0.656,-1.021 -0.144,-0.343 -0.447,-0.709 -0.674,-0.812 -0.226,-0.104 -0.457,-0.369 -0.513,-0.59 -0.055,-0.22 -0.305,-0.489 -0.554,-0.596 -0.25,-0.107 -0.682,-0.435 -0.961,-0.727 -0.286,-0.301 -0.829,-0.624 -1.25,-0.744 -0.409,-0.116 -0.818,-0.299 -0.91,-0.406 -0.306,-0.359 -0.926,-0.603 -1.952,-0.769 -0.559,-0.09 -1.324,-0.299 -1.699,-0.464 -1.179,-0.521 -1.292,-0.543 -3.917,-0.777 -1.908,-0.169 -2.761,-0.319 -3.318,-0.581 -0.454,-0.213 -1.367,-0.416 -2.314,-0.512 -1.746,-0.179 -2.226,-0.321 -2.756,-0.815 -0.2,-0.186 -0.64,-0.46 -0.976,-0.609 -1.301,-0.574 -1.89,-3.711 -1.045,-5.565 1.18,-2.589 6.305,-3.672 13.144,-2.777 1.1,0.144 2.525,0.309 3.167,0.366 0.641,0.057 1.865,0.252 2.72,0.432 l 1.553,0.327 0.894,-0.545 c 1.143,-0.697 1.25,-0.954 1.426,-3.427 0.269,-3.8 -0.218,-4.581 -3.141,-5.033 C 63.754,42.906 62.725,42.747 62.083,42.647 61.442,42.548 60.579,42.364 60.167,42.238 58.43,41.707 50.162,41.48 46.677,41.867 m 81.573,-0.008 c -1.008,0.08 -2.149,0.251 -2.534,0.38 -0.385,0.13 -1.66,0.359 -2.833,0.51 -1.173,0.15 -2.695,0.451 -3.383,0.668 -0.687,0.216 -1.797,0.505 -2.467,0.641 -1.255,0.256 -1.539,0.395 -2.533,1.242 l -0.583,0.498 0.019,1.476 c 0.017,1.364 0.136,1.905 0.558,2.559 0.089,0.138 0.242,0.663 0.341,1.167 0.345,1.763 1.555,2.39 3.452,1.789 0.438,-0.138 1.257,-0.3 1.82,-0.36 0.564,-0.06 1.689,-0.293 2.5,-0.519 1.346,-0.374 5.156,-0.846 9.31,-1.154 2.448,-0.182 7.741,0.398 8.333,0.913 0.183,0.159 0.502,0.376 0.709,0.483 0.927,0.478 1.781,4.002 1.47,6.072 -0.129,0.86 -0.107,0.85 -2.346,1.03 -1.649,0.132 -2.588,0.331 -3.483,0.739 -0.506,0.23 -1.508,0.38 -3.719,0.555 -2.452,0.195 -3.164,0.309 -3.746,0.602 -0.553,0.279 -1.313,0.416 -3.303,0.595 -2.508,0.225 -3.032,0.333 -4.082,0.837 -0.275,0.132 -1.043,0.325 -1.707,0.427 -0.72,0.112 -1.431,0.339 -1.762,0.564 -0.305,0.207 -0.901,0.509 -1.324,0.67 -0.422,0.162 -0.95,0.492 -1.173,0.734 -0.222,0.242 -0.639,0.567 -0.926,0.722 -0.286,0.156 -0.743,0.643 -1.015,1.084 -0.272,0.44 -0.653,0.958 -0.848,1.151 -0.194,0.193 -0.425,0.672 -0.513,1.065 -0.088,0.392 -0.395,1.199 -0.681,1.792 -0.882,1.828 -0.874,8.844 0.011,10.048 0.171,0.232 0.428,0.933 0.57,1.559 0.143,0.625 0.413,1.3 0.6,1.499 0.187,0.199 0.511,0.675 0.721,1.056 0.481,0.878 1.562,2.036 2.504,2.684 0.401,0.276 0.827,0.62 0.947,0.764 0.12,0.145 0.523,0.345 0.896,0.446 0.372,0.1 0.907,0.354 1.189,0.564 0.58,0.433 1.272,0.675 2.594,0.906 0.504,0.089 1.367,0.333 1.917,0.543 2.057,0.784 16.937,0.639 19.5,-0.191 0.55,-0.178 1.787,-0.439 2.75,-0.581 1.137,-0.167 1.903,-0.37 2.187,-0.578 0.24,-0.177 0.859,-0.444 1.376,-0.595 0.58,-0.168 1.17,-0.491 1.545,-0.844 0.333,-0.314 0.669,-0.571 0.747,-0.571 0.137,0 0.837,-0.972 1.285,-1.785 0.122,-0.222 0.403,-1.312 0.625,-2.421 l 0.402,-2.017 V 68.234 c 0,-7.976 -0.067,-13.55 -0.172,-14.347 -0.337,-2.564 -0.88,-5.047 -1.174,-5.362 -0.16,-0.171 -0.443,-0.603 -0.63,-0.96 -0.738,-1.412 -3.059,-3.367 -4.524,-3.811 -0.229,-0.07 -0.539,-0.234 -0.688,-0.365 -0.15,-0.13 -1.012,-0.384 -1.917,-0.563 -0.905,-0.179 -1.908,-0.435 -2.229,-0.57 -1.309,-0.548 -9.774,-0.779 -14.583,-0.397 M 181.5,41.85 c -1.054,0.084 -2.292,0.261 -2.75,0.393 -0.458,0.131 -1.846,0.387 -3.083,0.567 -1.238,0.181 -2.641,0.483 -3.118,0.671 -0.477,0.188 -1.377,0.459 -2,0.603 -0.623,0.144 -1.395,0.432 -1.716,0.64 -0.321,0.207 -0.913,0.473 -1.316,0.591 -0.867,0.252 -2.275,1.574 -2.874,2.698 l -0.393,0.737 v 19.917 c 0,18.726 0.018,19.949 0.294,20.455 0.582,1.064 0.895,1.128 5.539,1.128 4.633,0 4.766,-0.027 5.092,-1.04 0.111,-0.345 0.286,-0.732 0.388,-0.861 0.134,-0.167 0.211,-5.168 0.27,-17.674 0.077,-16.076 0.106,-17.474 0.368,-17.874 0.54,-0.824 3.108,-1.295 8.132,-1.49 5.442,-0.212 5.395,-0.2 6.016,-1.569 1.033,-2.278 0.418,-7.211 -0.977,-7.839 -0.429,-0.192 -5.672,-0.228 -7.872,-0.053 m 81.417,0.006 c -0.734,0.08 -1.596,0.255 -1.917,0.39 -0.321,0.134 -1.183,0.362 -1.917,0.507 -0.733,0.145 -1.783,0.475 -2.333,0.733 -0.55,0.258 -1.236,0.56 -1.525,0.672 -0.289,0.111 -0.696,0.384 -0.904,0.605 -0.209,0.222 -0.489,0.404 -0.623,0.404 -0.211,0 -0.655,0.348 -1.914,1.5 -0.624,0.571 -1.617,1.718 -1.617,1.868 0,0.089 -0.262,0.467 -0.581,0.841 -0.32,0.373 -0.628,0.929 -0.686,1.236 -0.057,0.307 -0.172,0.6 -0.255,0.651 -0.306,0.189 -0.786,1.361 -0.987,2.408 -0.113,0.593 -0.322,1.304 -0.462,1.579 -1.092,2.131 -1.231,18.478 -0.182,21.397 0.395,1.1 0.562,1.647 0.836,2.743 0.111,0.443 0.37,1.054 0.576,1.358 0.206,0.303 0.429,0.727 0.495,0.943 0.463,1.498 3.633,5.142 5.162,5.935 0.275,0.142 0.763,0.461 1.084,0.707 0.32,0.247 0.92,0.544 1.333,0.66 0.412,0.116 0.958,0.359 1.212,0.539 0.253,0.181 1.116,0.464 1.916,0.63 0.801,0.165 1.943,0.475 2.539,0.687 2.181,0.779 14.502,0.655 17.195,-0.173 0.58,-0.179 1.837,-0.441 2.793,-0.584 0.989,-0.148 1.923,-0.385 2.167,-0.551 0.235,-0.16 0.953,-0.442 1.595,-0.626 1.489,-0.427 1.751,-0.853 1.745,-2.832 -0.004,-1.575 -0.187,-2.477 -0.624,-3.068 -0.175,-0.237 -0.413,-0.717 -0.527,-1.065 -0.488,-1.48 -2.087,-1.674 -4.678,-0.569 -0.321,0.137 -1.258,0.336 -2.083,0.443 -0.825,0.107 -2.062,0.319 -2.75,0.471 -2.023,0.447 -8.935,0.397 -10.833,-0.079 -0.78,-0.195 -1.66,-0.404 -1.957,-0.465 -0.297,-0.06 -0.584,-0.182 -0.639,-0.271 -0.054,-0.088 -0.567,-0.382 -1.139,-0.652 -0.597,-0.282 -1.133,-0.664 -1.258,-0.897 -0.119,-0.223 -0.385,-0.448 -0.591,-0.5 -0.209,-0.052 -0.467,-0.317 -0.585,-0.602 -0.116,-0.28 -0.432,-0.815 -0.703,-1.189 -0.64,-0.883 -0.751,-1.23 -1.021,-3.19 l -0.225,-1.634 0.467,-0.241 c 0.398,-0.206 2.661,-0.242 15.22,-0.242 h 14.753 l 0.547,-0.504 c 0.301,-0.278 0.673,-0.623 0.828,-0.768 0.871,-0.815 0.544,-13.162 -0.389,-14.682 -0.205,-0.333 -0.38,-1.03 -0.461,-1.84 -0.131,-1.299 -0.296,-1.777 -0.864,-2.509 -0.165,-0.213 -0.416,-0.786 -0.558,-1.274 -0.141,-0.487 -0.359,-0.926 -0.484,-0.973 -0.125,-0.048 -0.463,-0.506 -0.752,-1.019 -0.289,-0.512 -0.602,-0.931 -0.696,-0.931 -0.094,0 -0.326,-0.262 -0.515,-0.583 -0.19,-0.321 -0.447,-0.583 -0.573,-0.583 -0.126,0 -0.4,-0.233 -0.609,-0.517 -0.209,-0.284 -0.642,-0.662 -0.963,-0.84 -0.321,-0.178 -0.838,-0.508 -1.15,-0.734 -0.312,-0.225 -0.846,-0.485 -1.187,-0.577 -0.341,-0.092 -0.813,-0.319 -1.05,-0.505 -0.242,-0.191 -1.106,-0.483 -1.98,-0.669 -0.852,-0.182 -1.812,-0.442 -2.133,-0.579 -1.252,-0.534 -9.053,-0.776 -12.583,-0.39 M 57.583,43.158 c 0.642,0.096 2.067,0.279 3.167,0.406 1.1,0.127 2.881,0.474 3.957,0.771 l 1.958,0.539 0.177,0.658 c 0.202,0.751 -0.043,2.82 -0.45,3.799 -0.605,1.457 -1.168,1.586 -4.322,0.994 -3.798,-0.714 -5.127,-0.846 -8.653,-0.858 -2.134,-0.008 -3.816,0.063 -4.309,0.181 -1.039,0.25 -3.38,1.151 -3.65,1.406 -0.114,0.108 -0.474,0.395 -0.799,0.637 -3.329,2.483 -1.834,8.156 2.457,9.327 0.715,0.195 1.488,0.45 1.717,0.566 0.653,0.331 2.058,0.561 4.52,0.739 1.537,0.112 2.539,0.271 3.104,0.493 0.458,0.181 1.636,0.481 2.617,0.667 0.981,0.186 2.03,0.49 2.331,0.677 0.302,0.186 0.856,0.447 1.233,0.58 1.545,0.545 3.632,2.443 4.318,3.927 0.233,0.504 0.555,1.066 0.717,1.25 1.275,1.447 1.15,10.925 -0.162,12.322 -0.19,0.201 -0.344,0.458 -0.344,0.572 0,0.452 -0.946,1.883 -1.8,2.721 -1.436,1.41 -4.599,3.301 -5.522,3.301 -0.153,0 -0.351,0.073 -0.439,0.161 -0.523,0.523 -6.4,1.337 -9.66,1.338 -5.846,0.003 -15.357,-1.828 -16.366,-3.149 -0.543,-0.712 -0.042,-3.572 0.883,-5.036 0.472,-0.748 0.707,-0.785 1.923,-0.306 0.476,0.188 1.622,0.449 2.548,0.58 0.925,0.132 2.203,0.389 2.838,0.573 3.155,0.91 11.186,0.922 12.663,0.018 0.283,-0.173 0.83,-0.398 1.214,-0.501 4.147,-1.102 4.843,-8.664 0.987,-10.714 C 54.832,70.945 54.545,70.848 53.065,70.666 52.25,70.565 50.796,70.305 49.833,70.087 48.871,69.87 47.558,69.643 46.917,69.584 45.108,69.416 43.784,69.165 43.395,68.914 43.199,68.788 42.412,68.53 41.645,68.34 40.878,68.151 40.063,67.845 39.833,67.66 39.604,67.475 39.161,67.208 38.849,67.065 35.806,65.68 33.437,61.054 33.437,56.5 c 0,-1.757 0.71,-5.241 1.271,-6.241 1.784,-3.178 3.958,-4.832 8.459,-6.433 0.352,-0.125 3.649,-0.643 5.666,-0.89 1.023,-0.126 7.539,0.04 8.75,0.222 m 81.292,-0.149 c 7.975,0.699 11.65,2.624 13.133,6.878 0.821,2.353 0.845,2.925 0.792,18.78 l -0.05,14.75 -0.401,1 c -0.221,0.55 -0.577,1.28 -0.793,1.623 -3.011,4.792 -26.964,5.942 -33.336,1.601 -0.383,-0.261 -0.768,-0.474 -0.855,-0.474 -0.298,0 -2.911,-2.733 -3.18,-3.327 -0.148,-0.325 -0.429,-0.854 -0.625,-1.174 -0.399,-0.652 -0.948,-2.992 -1.227,-5.227 -0.313,-2.512 0.411,-7.132 1.351,-8.62 0.265,-0.421 0.483,-0.836 0.483,-0.922 0,-0.152 1.684,-1.812 2.498,-2.463 0.218,-0.174 0.843,-0.491 1.391,-0.706 0.548,-0.215 1.153,-0.492 1.345,-0.617 0.378,-0.246 1.362,-0.488 3.152,-0.775 0.625,-0.101 1.512,-0.331 1.972,-0.513 0.54,-0.212 1.586,-0.389 2.947,-0.496 2.453,-0.195 3.483,-0.363 4.914,-0.805 0.57,-0.176 1.56,-0.37 2.2,-0.43 3.11,-0.292 4.413,-0.478 5.331,-0.761 0.55,-0.169 1.317,-0.357 1.704,-0.417 1.824,-0.281 2.071,-0.949 1.732,-4.664 -0.276,-3.02 -1.105,-4.147 -3.657,-4.97 -2.798,-0.903 -9.126,-1.047 -12.696,-0.29 -0.871,0.184 -2.409,0.45 -3.419,0.59 -1.009,0.14 -2.097,0.334 -2.417,0.432 -4.508,1.379 -5.265,1.2 -5.684,-1.346 -0.591,-3.589 -0.305,-4.086 2.736,-4.744 0.752,-0.163 2.117,-0.479 3.034,-0.703 1.354,-0.33 5.527,-0.886 9.5,-1.266 1.459,-0.139 6.277,-0.107 8.125,0.056 m 49.69,0.094 c 1.024,0.349 1.122,0.611 1.229,3.299 0.138,3.463 0.267,3.353 -4.371,3.691 -8.149,0.593 -9.875,0.924 -10.423,2 -0.216,0.424 -0.261,2.924 -0.333,18.407 -0.093,20.023 0.009,18.552 -1.302,18.731 -3.04,0.417 -6.814,0.046 -7.635,-0.751 l -0.563,-0.545 0.013,-19.009 c 0.014,-20.647 -0.034,-19.534 0.893,-21.009 1.204,-1.918 6.652,-3.73 13.51,-4.495 5.832,-0.65 7.804,-0.72 8.982,-0.319 m 86.268,0.285 c 5.133,0.878 9.583,3.482 11.104,6.499 0.147,0.291 0.437,0.717 0.645,0.946 0.207,0.23 0.511,0.83 0.675,1.334 0.163,0.504 0.466,1.233 0.671,1.621 0.206,0.387 0.418,0.987 0.471,1.333 0.053,0.346 0.253,1.567 0.445,2.712 0.552,3.305 0.637,4.366 0.647,8.021 0.011,4.264 -0.006,4.359 -0.918,4.987 l -0.716,0.492 h -14.534 c -15.514,0 -15.534,0.001 -16.186,0.822 -0.463,0.582 -0.341,2.362 0.265,3.876 0.237,0.593 0.431,1.168 0.431,1.277 0,0.535 1.873,2.939 2.835,3.638 0.412,0.299 0.95,0.698 1.196,0.886 0.246,0.188 0.958,0.519 1.583,0.736 0.625,0.217 1.465,0.518 1.866,0.67 1.071,0.404 5.889,0.617 9.413,0.416 2.66,-0.152 3.27,-0.248 5.607,-0.88 1.239,-0.335 3.81,-0.774 4.536,-0.774 0.739,0 0.959,0.261 1.314,1.559 0.154,0.563 0.398,1.324 0.541,1.691 0.772,1.972 0.264,2.345 -5.224,3.833 -3.618,0.981 -11.651,1.542 -15.504,1.082 -3.87,-0.462 -7.537,-1.359 -9.113,-2.23 -0.257,-0.142 -0.796,-0.419 -1.199,-0.615 -2.054,-1.002 -5.058,-4.183 -5.966,-6.32 -0.097,-0.229 -0.409,-0.904 -0.692,-1.5 -0.287,-0.604 -0.633,-1.746 -0.783,-2.583 -0.147,-0.825 -0.411,-1.974 -0.586,-2.552 -0.74,-2.441 -0.894,-12.289 -0.236,-15.115 0.149,-0.642 0.48,-2.196 0.735,-3.455 0.255,-1.258 0.552,-2.394 0.659,-2.523 0.108,-0.129 0.38,-0.707 0.606,-1.283 1.633,-4.167 6.064,-7.535 11.079,-8.423 4.845,-0.857 9.987,-0.921 14.333,-0.178 m -61.887,6.121 c -0.625,0.087 -1.546,0.346 -2.046,0.575 -0.501,0.229 -0.975,0.416 -1.055,0.416 -1.14,0 -3.185,2.685 -4.076,5.35 -1.141,3.412 -1.569,14.635 -0.711,18.62 0.863,4.003 3.233,8.03 4.727,8.03 0.122,0 0.585,0.19 1.029,0.422 3.022,1.581 15.114,0.837 15.879,-0.977 0.38,-0.898 0.325,-30.178 -0.058,-30.875 -0.667,-1.218 -9.183,-2.189 -13.689,-1.561 m 51.804,-0.066 c -2.792,0.332 -5.193,2.016 -6.498,4.557 -0.967,1.881 -1.975,9.46 -1.351,10.15 0.62,0.685 0.803,0.695 11.437,0.647 9.447,-0.043 10.288,-0.07 10.787,-0.343 l 0.542,-0.296 v -1.964 c 0,-1.384 -0.094,-2.331 -0.317,-3.204 -0.174,-0.682 -0.402,-1.765 -0.505,-2.407 -0.908,-5.619 -5.849,-8.122 -14.095,-7.14 m -42.509,1.474 c 3.398,0.473 3.707,0.564 3.845,1.129 0.116,0.473 0.027,29.397 -0.09,29.514 -0.905,0.904 -11.121,1.375 -13.829,0.637 -1.884,-0.513 -4.328,-2.311 -4.336,-3.191 -10e-4,-0.141 -0.112,-0.443 -0.246,-0.673 -0.664,-1.135 -0.911,-1.875 -1.083,-3.25 -0.104,-0.825 -0.313,-2.4 -0.466,-3.5 -0.383,-2.751 -0.378,-7.657 0.009,-10.5 0.163,-1.191 0.378,-2.804 0.479,-3.583 0.184,-1.414 0.414,-2.063 1,-2.814 0.17,-0.219 0.309,-0.54 0.309,-0.715 0,-0.175 0.364,-0.675 0.808,-1.113 2.459,-2.42 6.258,-2.962 13.6,-1.941 m 50.385,-0.038 c 2.317,0.647 3.803,1.943 4.457,3.888 0.206,0.612 0.49,1.177 0.631,1.256 0.464,0.26 0.999,7.739 0.573,8.009 -0.237,0.151 -19.354,0.179 -19.912,0.03 -0.466,-0.125 -0.48,-0.628 -0.127,-4.562 0.254,-2.835 0.484,-4.066 0.842,-4.5 0.114,-0.138 0.373,-0.641 0.577,-1.12 0.35,-0.824 1.018,-1.519 2.188,-2.276 0.386,-0.249 2.633,-0.934 3.812,-1.162 1.279,-0.247 5.447,0.015 6.959,0.437 M 141.139,66.75 c -0.046,0.046 -1.177,0.157 -2.514,0.247 -1.798,0.121 -2.762,0.272 -3.704,0.58 -0.856,0.279 -2.158,0.503 -3.972,0.682 -1.948,0.192 -2.977,0.376 -3.699,0.659 -0.55,0.215 -1.323,0.476 -1.718,0.579 -4.172,1.089 -4.497,10.753 -0.431,12.834 0.265,0.136 0.82,0.449 1.232,0.696 2.061,1.233 9.059,1.455 14.4,0.458 0.976,-0.182 2.162,-0.894 2.465,-1.479 0.295,-0.569 0.416,-13.828 0.133,-14.512 -0.263,-0.634 -1.785,-1.151 -2.192,-0.744 m 0.986,0.855 0.375,0.101 v 6.3 c 0,8.387 0.199,7.953 -3.981,8.679 -1.633,0.284 -2.509,0.328 -5.602,0.284 l -3.667,-0.053 -1.583,-0.562 c -0.874,-0.31 -1.829,-0.777 -2.131,-1.042 -0.301,-0.263 -0.607,-0.479 -0.68,-0.479 -0.073,0 -0.234,-0.206 -0.358,-0.458 -0.124,-0.252 -0.399,-0.611 -0.611,-0.797 -0.562,-0.495 -0.774,-1.912 -0.677,-4.533 0.092,-2.497 0.105,-2.531 1.574,-3.988 l 0.929,-0.922 1.769,-0.245 c 1.091,-0.151 1.987,-0.373 2.341,-0.58 0.581,-0.34 1.563,-0.487 5.276,-0.791 1.198,-0.097 2.05,-0.255 2.417,-0.448 0.942,-0.494 3.529,-0.755 4.609,-0.466 M -25,0 h 20 v 20 h -20 z m 430,0 h 20 v 20 h -20 z"
       id="path2" />
  </g>
</svg>
