<?xml version="1.0" encoding="UTF-8" standalone="no"?>
<svg
   xmlns:dc="http://purl.org/dc/elements/1.1/"
   xmlns:cc="http://creativecommons.org/ns#"
   xmlns:rdf="http://www.w3.org/1999/02/22-rdf-syntax-ns#"
   xmlns:svg="http://www.w3.org/2000/svg"
   xmlns="http://www.w3.org/2000/svg"
   height="389.48401"
   width="1370"
   version="1.1"
   id="splitsvg">
  <metadata
     id="metadata11">
    <rdf:RDF>
      <cc:Work
         rdf:about="">
        <dc:format>image/svg+xml</dc:format>
        <dc:type
           rdf:resource="http://purl.org/dc/dcmitype/StillImage" />
      </cc:Work>
    </rdf:RDF>
  </metadata>
  <defs
     id="defs9" />
  <g
     transform="translate(-5)"
     id="svgg">
    <path
       style="fill:#e46116;fill-rule:evenodd;stroke:none"
       transform="translate(30)"
       d="m 289.1,102.183 c -1.336,0.888 -2.431,1.744 -2.434,1.902 -0.003,0.158 -0.729,0.947 -1.613,1.753 -1.564,1.425 -3.963,3.805 -4.887,4.845 -0.879,0.99 -2.277,2.15 -3.146,2.61 -0.482,0.255 -0.876,0.633 -0.876,0.839 0,0.507 -2.923,3.492 -3.419,3.492 -0.217,0 -0.895,0.633 -1.506,1.407 -1.626,2.058 -4.542,4.811 -5.104,4.818 -0.268,0.004 -0.487,0.233 -0.487,0.509 0,0.611 -2.813,3.782 -3.355,3.782 -0.513,0 -2.877,2.453 -2.877,2.985 0,0.446 -3.415,3.247 -3.958,3.247 -0.18,0 -0.326,0.219 -0.326,0.487 0,0.613 -2.883,3.797 -3.438,3.797 -0.227,0 -0.992,0.725 -1.701,1.61 -1.731,2.164 -3.862,4.185 -4.695,4.454 -0.375,0.121 -0.682,0.457 -0.682,0.747 0,0.628 -2.878,3.705 -3.466,3.705 -0.226,0 -1.106,0.879 -1.955,1.953 -1.635,2.069 -3.167,3.476 -4.608,4.235 -0.482,0.254 -0.877,0.724 -0.877,1.044 0,0.642 -2.475,3.284 -3.076,3.284 -0.36,0 -3.155,3.179 -3.155,3.588 0,0.108 -0.859,1.054 -1.908,2.103 -2.505,2.505 -3.215,5.977 -1.48,7.241 0.551,0.401 1.527,1.582 2.168,2.624 0.641,1.042 1.816,2.394 2.61,3.004 1.617,1.241 2.1,1.726 3.516,3.53 0.54,0.689 1.992,1.807 3.226,2.486 1.234,0.678 2.406,1.604 2.606,2.058 0.845,1.924 6.571,0.566 8.219,-1.95 0.305,-0.465 1.402,-1.21 2.439,-1.656 1.371,-0.59 1.953,-1.086 2.137,-1.819 0.31,-1.234 2.069,-3.009 3.694,-3.728 0.663,-0.293 1.205,-0.669 1.205,-0.836 0,-1.034 2.14,-3.47 3.653,-4.16 1.196,-0.545 1.787,-1.084 1.965,-1.796 0.272,-1.084 1.673,-2.577 3.451,-3.677 0.597,-0.369 1.583,-1.456 2.191,-2.415 0.642,-1.012 1.739,-2.069 2.615,-2.521 0.847,-0.436 1.766,-1.308 2.094,-1.988 0.538,-1.114 3.378,-3.981 3.945,-3.982 0.134,0 0.967,-0.937 1.85,-2.081 0.883,-1.145 2.226,-2.415 2.985,-2.824 0.759,-0.409 1.476,-1.125 1.593,-1.591 0.185,-0.736 1.455,-2.053 4.281,-4.443 0.889,-0.751 2.483,-2.761 2.483,-3.13 0,-0.148 0.754,-0.71 1.676,-1.251 0.922,-0.54 1.994,-1.564 2.382,-2.276 0.389,-0.712 1.394,-1.82 2.235,-2.463 1.857,-1.419 1.962,-1.525 3.56,-3.607 0.701,-0.912 1.868,-1.977 2.594,-2.367 0.726,-0.389 1.638,-1.301 2.027,-2.027 0.661,-1.232 3.561,-3.878 4.25,-3.878 0.17,0 0.424,-0.366 0.566,-0.812 0.142,-0.447 0.765,-1.63 1.385,-2.629 1.123,-1.81 1.169,-4.091 0.151,-7.465 -0.212,-0.703 -6.589,-7.285 -9.435,-9.737 -3.858,-3.324 -7.356,-3.644 -11.288,-1.03 M 113.234,101.77 c -2.019,0.878 -11.07,9.437 -12.068,11.413 -1.954,3.867 -0.506,9.4 3.147,12.024 1.034,0.743 2.074,1.776 2.311,2.296 0.237,0.521 1.1,1.445 1.918,2.054 0.818,0.609 2.714,2.343 4.214,3.852 1.499,1.509 3.208,3.049 3.797,3.421 0.589,0.371 1.071,0.834 1.071,1.026 0,0.365 2.249,2.748 2.593,2.748 0.386,0 3.639,3.453 3.639,3.864 0,0.231 0.219,0.427 0.487,0.436 0.57,0.019 3.793,2.854 3.806,3.348 0.005,0.185 0.726,0.95 1.602,1.699 1.511,1.293 7.879,7.292 8.711,8.206 0.214,0.236 1.143,1.159 2.066,2.051 0.922,0.892 3.605,3.507 5.962,5.81 2.357,2.302 4.45,4.186 4.652,4.186 0.202,0 0.367,0.155 0.367,0.344 0,0.188 1.516,1.809 3.369,3.602 1.853,1.793 4.493,4.354 5.866,5.692 2.974,2.896 5.2,4.474 7.318,5.188 0.857,0.289 1.843,0.76 2.191,1.045 0.543,0.446 0.97,0.323 2.987,-0.859 1.294,-0.759 2.529,-1.38 2.743,-1.38 0.609,0 7.58,-7.039 8.574,-8.659 0.491,-0.8 1.361,-1.823 1.934,-2.273 1.399,-1.1 1.398,-6.332 -0.001,-7.312 -1.417,-0.993 -3.092,-2.931 -3.615,-4.182 -0.306,-0.733 -1.097,-1.514 -2.011,-1.985 -0.829,-0.427 -2.128,-1.593 -2.886,-2.59 -0.759,-0.998 -2.197,-2.333 -3.195,-2.966 -1.117,-0.708 -2.125,-1.756 -2.618,-2.723 -0.488,-0.958 -1.162,-1.662 -1.725,-1.804 -0.809,-0.203 -3.79,-3.008 -4.182,-3.935 -0.079,-0.186 -1.063,-1.007 -2.188,-1.825 -1.125,-0.818 -2.045,-1.65 -2.045,-1.85 0,-0.446 -2.667,-3.076 -3.119,-3.076 -0.53,0 -3.502,-3.193 -3.502,-3.762 0,-0.287 -0.232,-0.522 -0.516,-0.522 -0.284,0 -0.928,-0.438 -1.431,-0.974 -0.503,-0.535 -1.147,-0.973 -1.431,-0.973 -0.284,0 -0.517,-0.213 -0.517,-0.473 0,-0.485 -3.079,-3.812 -3.529,-3.812 -0.138,0 -2.536,-2.234 -5.328,-4.966 -2.792,-2.731 -7.583,-7.332 -10.646,-10.224 -3.063,-2.892 -6.258,-5.915 -7.101,-6.718 -0.843,-0.804 -1.674,-1.461 -1.847,-1.461 -0.173,0 -0.659,-0.438 -1.08,-0.974 -0.421,-0.535 -0.888,-0.973 -1.038,-0.973 -0.149,0 -0.717,-0.351 -1.262,-0.779 -1.148,-0.903 -4.655,-1.053 -6.444,-0.275 m 55.218,120.294 c -2.27,0.42 -4.479,1.369 -4.479,1.923 0,0.405 -3.071,3.472 -3.476,3.472 -0.128,0 -1.002,0.964 -1.942,2.142 -0.94,1.178 -1.87,2.142 -2.067,2.142 -0.388,0 -3.031,2.682 -3.031,3.076 0,0.133 -0.718,0.853 -1.595,1.601 -2.532,2.159 -4.272,4.015 -4.654,4.963 -0.194,0.482 -0.594,0.876 -0.887,0.876 -0.581,0 -3.38,2.559 -3.38,3.089 0,0.286 -1.342,1.567 -3.737,3.569 -0.934,0.78 -2.868,3.177 -2.878,3.566 -0.003,0.161 -0.226,0.297 -0.493,0.303 -0.653,0.014 -3.276,2.481 -3.585,3.371 -0.135,0.389 -0.95,1.233 -1.813,1.876 -0.862,0.643 -1.862,1.495 -2.223,1.894 -0.361,0.398 -0.843,0.924 -1.071,1.168 -0.229,0.244 -0.731,0.925 -1.116,1.515 -0.386,0.589 -0.9,1.072 -1.143,1.074 -0.592,0.005 -3.358,2.65 -3.381,3.234 -0.01,0.255 -0.723,0.989 -1.584,1.631 -0.861,0.643 -1.86,1.49 -2.221,1.883 -1.405,1.53 -2.408,2.803 -2.408,3.057 -10e-4,0.146 -0.333,0.371 -0.74,0.5 -0.847,0.269 -3.545,2.716 -3.545,3.215 0,0.441 -3.342,3.224 -3.872,3.224 -0.227,0 -0.413,0.22 -0.413,0.487 -0.001,0.548 -2.774,3.798 -3.241,3.798 -1.286,0 -2.991,4.063 -2.99,7.127 0.001,2.12 2.001,5.776 3.867,7.07 0.909,0.63 2.171,1.898 2.804,2.818 0.633,0.921 1.566,1.777 2.072,1.904 0.506,0.127 1.318,0.655 1.804,1.172 0.486,0.518 1.058,0.941 1.272,0.941 0.214,0 0.665,0.237 1.003,0.527 1.258,1.079 5.136,1.515 6.041,0.68 0.443,-0.409 1.463,-1.014 2.266,-1.345 1.697,-0.698 4.187,-2.513 4.187,-3.05 0,-0.407 2.681,-3.044 3.095,-3.044 0.142,0 0.95,-0.817 1.795,-1.817 0.845,-0.999 1.712,-1.961 1.926,-2.137 1.629,-1.337 3.7,-3.349 3.7,-3.592 0,-0.385 2.741,-2.97 3.149,-2.97 0.172,0 0.561,-0.354 0.864,-0.787 0.887,-1.266 3.141,-3.574 5.087,-5.207 0.993,-0.834 1.806,-1.653 1.806,-1.82 0,-0.397 2.305,-2.702 2.701,-2.702 0.168,0 0.987,-0.813 1.821,-1.806 0.833,-0.993 1.738,-2.001 2.01,-2.24 2.133,-1.868 3.984,-3.668 3.984,-3.875 0,-0.425 2.896,-2.963 3.394,-2.974 0.261,-0.006 0.679,-0.394 0.929,-0.862 0.251,-0.469 0.783,-1.203 1.182,-1.632 0.4,-0.428 0.727,-0.922 0.727,-1.095 0,-0.174 0.219,-0.316 0.487,-0.316 0.676,0 3.793,-2.907 3.815,-3.558 0.01,-0.293 0.728,-1.058 1.595,-1.7 2.102,-1.557 3.77,-3.268 4.462,-4.577 0.311,-0.589 0.79,-1.071 1.064,-1.071 0.606,0 3.377,-2.482 3.377,-3.024 0,-0.437 3.048,-3.208 3.528,-3.208 0.171,0 0.923,-1.008 1.672,-2.24 0.748,-1.232 1.812,-2.665 2.365,-3.184 1.86,-1.747 1.125,-5.302 -1.689,-8.173 -0.841,-0.858 -1.639,-1.907 -1.773,-2.331 -0.266,-0.837 -2.723,-3.156 -3.343,-3.156 -0.599,0 -2.683,-2.46 -2.696,-3.183 -0.007,-0.414 -0.471,-0.75 -1.277,-0.924 -0.696,-0.15 -1.916,-0.602 -2.711,-1.004 -1.585,-0.802 -1.594,-0.803 -4.397,-0.284 m 69.148,0.355 c -1.17,0.415 -2.438,0.755 -2.818,0.755 -0.404,0 -0.928,0.527 -1.26,1.266 -0.72,1.604 -1.697,2.663 -3.159,3.422 -0.634,0.329 -1.502,1.191 -1.931,1.915 -1.042,1.761 -3.563,4.303 -4.267,4.303 -1.543,0 -1.311,7.058 0.289,8.783 0.581,0.628 1.057,1.254 1.057,1.393 0,0.139 1.438,1.631 3.195,3.315 1.757,1.684 4.713,4.552 6.569,6.373 1.855,1.82 4.186,4.045 5.179,4.943 0.993,0.898 1.805,1.818 1.805,2.044 0,0.227 0.258,0.413 0.573,0.413 0.314,0 0.961,0.526 1.436,1.168 0.475,0.643 1.088,1.169 1.361,1.169 0.274,0 0.69,0.359 0.925,0.798 0.468,0.875 1.817,2.165 4.459,4.265 0.943,0.75 1.725,1.521 1.738,1.714 0.02,0.292 1.828,2.084 4.008,3.973 0.272,0.236 1.133,1.112 1.912,1.947 0.779,0.835 2.212,2.132 3.184,2.882 0.972,0.75 1.936,1.722 2.142,2.161 0.206,0.438 1.237,1.392 2.291,2.119 1.055,0.727 2.504,2.085 3.22,3.018 0.716,0.933 1.67,1.882 2.119,2.109 0.449,0.227 1.883,1.49 3.187,2.806 1.303,1.316 3.1,2.989 3.992,3.718 0.892,0.729 1.627,1.518 1.633,1.753 0.006,0.235 0.641,0.865 1.41,1.401 1.839,1.279 3.671,3.052 4.528,4.381 0.38,0.589 0.957,1.071 1.282,1.071 0.326,0 1.557,0.713 2.736,1.584 2.079,1.536 2.211,1.576 4.365,1.329 2.306,-0.265 4.753,-0.957 4.753,-1.344 0,-0.123 0.657,-0.545 1.461,-0.939 0.803,-0.393 1.723,-0.846 2.045,-1.006 0.321,-0.16 0.648,-0.623 0.726,-1.028 0.142,-0.735 1.517,-2.196 3.808,-4.048 0.663,-0.536 1.669,-1.894 2.237,-3.019 0.567,-1.124 1.185,-2.045 1.373,-2.045 0.755,0 0.818,-1.47 0.167,-3.877 -0.67,-2.474 -1.17,-3.378 -2.567,-4.639 -0.374,-0.338 -0.681,-0.819 -0.681,-1.068 0,-0.249 -0.395,-0.718 -0.877,-1.043 -1.435,-0.967 -6.134,-5.629 -6.134,-6.087 0,-0.232 -0.171,-0.423 -0.38,-0.423 -0.209,0 -1.392,-0.964 -2.628,-2.142 -1.236,-1.178 -2.379,-2.142 -2.541,-2.142 -0.161,0 -0.293,-0.263 -0.293,-0.584 0,-0.322 -0.145,-0.585 -0.321,-0.585 -0.176,0 -2.937,-2.536 -6.134,-5.635 -3.198,-3.1 -7.426,-7.175 -9.397,-9.056 -3.764,-3.593 -4.365,-4.18 -7.012,-6.839 -0.9,-0.904 -2.127,-2.096 -2.726,-2.648 -0.599,-0.552 -1.422,-1.474 -1.829,-2.048 -0.406,-0.575 -1.337,-1.415 -2.069,-1.867 -0.732,-0.453 -1.77,-1.517 -2.306,-2.366 -0.536,-0.849 -1.506,-1.836 -2.156,-2.193 -1.246,-0.684 -2.545,-1.925 -4.83,-4.617 -0.761,-0.897 -1.75,-1.686 -2.197,-1.752 -0.447,-0.067 -1.006,-0.472 -1.241,-0.901 -1.031,-1.874 -2.247,-3.278 -3.059,-3.53 -0.971,-0.301 -2.89,-2.266 -3.215,-3.29 -0.261,-0.823 -1.682,-1.483 -3.809,-1.77 -0.904,-0.122 -1.993,-0.288 -2.422,-0.369 -0.428,-0.081 -1.736,0.193 -2.906,0.609 M -25,0 h 20 v 20 h -20 z m 430,0 h 20 v 20 h -20 z"
       id="path0" />
    <path
       style="fill:#fcfcfb;fill-rule:evenodd;stroke:none"
       transform="translate(490)"
       d="M 0,194.742 V 389.484 H 200 400 V 194.742 0 H 200 0 V 194.742 M 298.053,95.895 c 0.803,0.238 1.46,0.582 1.46,0.764 0,0.315 3.318,2.662 5.306,3.752 0.509,0.279 0.926,0.71 0.926,0.957 0,0.563 2.74,3.401 3.292,3.41 0.462,0.008 2.94,2.873 2.94,3.399 0,0.189 0.541,0.858 1.204,1.487 2.614,2.484 3.797,7.412 2.479,10.334 -0.377,0.837 -0.834,1.521 -1.016,1.521 -0.182,0 -0.33,0.254 -0.33,0.565 0,0.311 -0.242,0.705 -0.538,0.876 -0.295,0.172 -0.865,0.851 -1.265,1.51 -1.189,1.955 -2.685,3.559 -3.586,3.845 -0.464,0.147 -0.843,0.404 -0.843,0.571 0,0.167 -0.369,0.725 -0.819,1.239 -0.451,0.515 -1.02,1.199 -1.266,1.521 -0.246,0.321 -1.213,1.104 -2.15,1.741 -0.936,0.636 -1.9,1.6 -2.142,2.141 -0.548,1.227 -2.077,2.659 -3.368,3.155 -0.54,0.207 -1.154,0.688 -1.364,1.069 -0.966,1.755 -1.964,3.184 -2.226,3.186 -0.667,0.006 -3.409,2.208 -3.638,2.924 -0.365,1.135 -2.545,3.31 -3.318,3.31 -0.573,0 -1.44,1.061 -2.847,3.482 -0.195,0.334 -1.071,0.966 -1.948,1.404 -0.88,0.44 -1.856,1.312 -2.179,1.95 -0.766,1.509 -3.055,3.68 -3.88,3.68 -0.357,0 -0.924,0.57 -1.26,1.266 -0.729,1.509 -1.87,2.68 -4.109,4.221 -0.911,0.627 -1.659,1.445 -1.663,1.819 -0.008,0.76 -2.756,3.21 -3.601,3.21 -0.299,0 -0.793,0.482 -1.096,1.072 -0.304,0.589 -0.658,1.158 -0.787,1.265 -0.129,0.107 -0.442,0.589 -0.696,1.071 -0.254,0.482 -0.712,0.877 -1.018,0.877 -0.748,0 -3.311,2.281 -3.311,2.946 0,0.643 -1.269,1.891 -3.15,3.098 -0.769,0.493 -1.97,1.789 -2.67,2.879 -0.699,1.09 -1.533,1.982 -1.852,1.982 -0.92,0 -2.862,1.557 -3.265,2.615 -0.202,0.532 -0.716,1.057 -1.141,1.169 -0.426,0.111 -0.775,0.349 -0.775,0.528 0,1.255 -7.414,1.529 -9.829,0.362 -0.886,-0.428 -1.76,-0.779 -1.941,-0.779 -0.181,0 -0.905,-0.569 -1.608,-1.266 -0.704,-0.696 -2.119,-1.967 -3.146,-2.823 -1.026,-0.857 -2.154,-1.885 -2.505,-2.284 -0.352,-0.4 -1.423,-1.451 -2.381,-2.337 -2.851,-2.638 -3.906,-3.807 -3.906,-4.329 0,-0.272 -0.374,-1.338 -0.83,-2.37 -1.367,-3.09 0.106,-11.855 1.993,-11.855 0.588,0 1.72,-1.124 2.59,-2.572 0.767,-1.277 2.476,-2.846 3.939,-3.615 0.482,-0.254 0.877,-0.684 0.877,-0.956 0,-0.683 2.3,-3.063 3.616,-3.74 0.596,-0.307 1.458,-1.182 1.916,-1.945 0.925,-1.544 2.296,-2.855 3.913,-3.741 0.589,-0.324 1.071,-0.81 1.071,-1.08 0,-0.771 2.891,-3.772 3.634,-3.772 0.367,0 1.158,-0.774 1.757,-1.72 1.11,-1.75 2.671,-3.249 4.248,-4.078 0.482,-0.254 0.877,-0.697 0.877,-0.985 0,-0.698 2.97,-3.733 3.653,-3.733 0.573,0 2.578,-2.397 2.578,-3.081 0,-0.224 0.482,-0.713 1.071,-1.088 0.59,-0.375 1.159,-0.791 1.266,-0.925 0.107,-0.133 0.589,-0.45 1.071,-0.704 0.482,-0.254 0.877,-0.69 0.877,-0.97 0,-0.667 3.028,-3.748 3.684,-3.748 0.549,0 2.547,-2.416 2.547,-3.081 0,-0.224 0.482,-0.714 1.072,-1.088 0.589,-0.375 1.158,-0.791 1.265,-0.925 0.107,-0.133 0.589,-0.45 1.071,-0.704 0.482,-0.254 0.877,-0.69 0.877,-0.97 0,-0.688 3.038,-3.748 3.721,-3.748 0.3,0 0.852,-0.482 1.227,-1.072 0.375,-0.589 0.791,-1.158 0.924,-1.265 0.134,-0.108 0.451,-0.589 0.704,-1.071 0.254,-0.482 0.681,-0.877 0.948,-0.877 0.268,0 1.051,-0.569 1.74,-1.266 0.689,-0.696 2.069,-2.098 3.067,-3.116 0.998,-1.017 2.036,-1.85 2.307,-1.85 0.27,0 1.061,-0.482 1.757,-1.071 2.772,-2.346 5.636,-2.806 9.798,-1.573 m -177.13,1.246 c 0.676,0.516 1.883,1.211 2.683,1.545 0.799,0.334 2.646,1.839 4.106,3.346 1.459,1.507 2.848,2.739 3.086,2.739 0.238,0 1.161,0.964 2.05,2.142 0.89,1.179 1.816,2.145 2.058,2.147 0.689,0.008 3.75,3.011 3.75,3.68 0,0.33 0.132,0.6 0.292,0.6 0.161,10e-4 0.802,0.439 1.424,0.974 0.623,0.535 1.259,0.973 1.413,0.973 0.155,0 1.026,0.964 1.935,2.142 0.909,1.179 1.85,2.144 2.092,2.146 0.641,0.005 3.266,2.59 3.555,3.502 0.136,0.428 0.387,0.779 0.557,0.779 0.561,0 3.089,2.198 4.53,3.938 0.778,0.94 1.792,1.885 2.253,2.099 0.957,0.444 2.296,1.841 3.265,3.408 0.365,0.589 0.866,1.071 1.114,1.071 0.248,0 1.66,1.271 3.138,2.824 1.478,1.553 3.177,3.142 3.776,3.532 0.599,0.389 1.637,1.484 2.306,2.434 0.669,0.949 1.402,1.725 1.629,1.724 0.226,-0.001 1.814,1.391 3.528,3.093 1.713,1.701 4.791,4.726 6.838,6.72 8.877,8.648 9.291,9.29 9.358,14.519 0.068,5.323 -2.829,9.491 -11.934,17.17 -1.488,1.254 -2.763,2.42 -2.834,2.591 -0.072,0.17 -0.519,0.31 -0.994,0.31 -0.474,0 -1.029,0.151 -1.233,0.336 -2.268,2.057 -8.757,0.769 -11.988,-2.381 -1.044,-1.017 -2.118,-1.85 -2.386,-1.85 -0.269,0 -1.083,-0.626 -1.811,-1.392 -0.727,-0.766 -1.897,-1.949 -2.6,-2.629 -0.703,-0.68 -1.93,-1.869 -2.727,-2.643 -0.796,-0.773 -1.744,-1.843 -2.106,-2.378 -0.362,-0.535 -1.255,-1.256 -1.985,-1.603 -0.729,-0.346 -1.831,-1.358 -2.448,-2.248 -0.617,-0.891 -1.74,-2.011 -2.495,-2.491 -1.782,-1.131 -3.514,-2.886 -3.514,-3.559 0,-0.292 -0.132,-0.531 -0.292,-0.531 -0.161,-10e-4 -0.802,-0.439 -1.424,-0.974 -0.623,-0.535 -1.259,-0.973 -1.413,-0.973 -0.155,0 -1.026,-0.964 -1.935,-2.142 -0.909,-1.179 -1.85,-2.15 -2.092,-2.159 -0.677,-0.025 -3.222,-2.42 -3.5,-3.294 -0.136,-0.429 -0.73,-1.081 -1.32,-1.45 -2.299,-1.437 -2.639,-1.679 -2.888,-2.056 -0.142,-0.214 -0.624,-0.81 -1.071,-1.325 -0.447,-0.515 -0.813,-1.088 -0.813,-1.274 0,-0.186 -0.472,-0.553 -1.049,-0.816 -1.266,-0.577 -3.514,-2.827 -3.835,-3.839 -0.128,-0.401 -0.447,-0.73 -0.71,-0.73 -0.523,0 -4.075,-3.222 -4.956,-4.497 -0.303,-0.438 -1.205,-1.195 -2.004,-1.683 -0.799,-0.487 -1.846,-1.443 -2.326,-2.124 -0.48,-0.681 -1.316,-1.582 -1.857,-2.001 -2.477,-1.92 -7.923,-7.569 -8.652,-8.974 -0.444,-0.857 -1.029,-1.688 -1.3,-1.847 -3.208,-1.879 -3.23,-11.657 -0.03,-12.885 0.28,-0.107 0.997,-1.028 1.594,-2.046 1.17,-1.996 2.872,-4.06 3.348,-4.06 0.423,0 2.551,-2.186 2.826,-2.903 0.128,-0.332 1.333,-1.291 2.678,-2.13 1.345,-0.839 2.972,-1.973 3.615,-2.519 1.721,-1.462 7.846,-1.512 9.725,-0.078 m 51.547,120.775 c 0.637,0.536 1.445,0.974 1.796,0.974 1.329,0 4.718,2.109 6.945,4.322 1.272,1.265 2.552,2.299 2.845,2.299 0.293,0 0.737,0.384 0.988,0.852 0.628,1.173 1.03,1.656 3.295,3.96 3.048,3.101 3.287,3.642 3.287,7.459 0,3.158 -0.825,6.046 -1.947,6.814 -0.157,0.107 -0.408,0.589 -0.558,1.071 -0.151,0.482 -0.412,0.876 -0.581,0.876 -0.367,0 -3.264,2.845 -4.898,4.81 -0.643,0.773 -1.344,1.416 -1.558,1.429 -0.214,0.014 -1.003,0.747 -1.753,1.63 -0.75,0.882 -2.14,2.321 -3.089,3.197 -0.949,0.876 -2.001,1.91 -2.337,2.297 -0.336,0.388 -1.969,2.076 -3.629,3.752 -1.661,1.676 -3.019,3.243 -3.019,3.483 0,0.239 -0.158,0.434 -0.351,0.434 -0.443,0 -4.933,4.444 -5.75,5.691 -0.335,0.512 -0.81,0.931 -1.055,0.931 -0.245,0 -1.057,0.719 -1.805,1.599 -0.748,0.88 -1.766,1.975 -2.262,2.435 -2.269,2.1 -3.864,3.727 -4.941,5.04 -0.642,0.784 -1.333,1.429 -1.535,1.433 -0.409,0.01 -3.333,3.039 -3.333,3.454 0,0.145 -0.964,1.032 -2.142,1.973 -1.178,0.94 -2.142,1.87 -2.142,2.066 0,0.396 -2.687,3.032 -3.091,3.032 -0.14,0 -1.035,0.935 -1.99,2.078 -0.954,1.143 -2.568,2.749 -3.585,3.569 -1.018,0.82 -1.85,1.664 -1.85,1.875 0,0.43 -2.536,2.994 -2.961,2.994 -0.15,0 -1.166,0.932 -2.259,2.071 -5.358,5.586 -14.701,6.207 -18.61,1.238 -0.42,-0.535 -0.951,-0.972 -1.18,-0.972 -0.727,0 -8.233,-7.776 -9.333,-9.67 -2.864,-4.928 -3.169,-5.916 -2.495,-8.086 0.338,-1.09 0.623,-2.229 0.631,-2.532 0.009,-0.302 0.535,-1.156 1.169,-1.898 0.634,-0.742 1.152,-1.549 1.152,-1.793 0,-0.245 0.439,-0.918 0.974,-1.496 0.536,-0.577 0.974,-1.304 0.974,-1.614 0,-0.311 0.184,-0.565 0.408,-0.565 0.507,0 5.824,-5.351 5.824,-5.861 0,-0.204 0.193,-0.37 0.43,-0.37 0.237,0 2.808,-2.366 5.713,-5.258 2.905,-2.892 5.361,-5.258 5.457,-5.258 0.323,0 3.2,-3.113 3.2,-3.461 0,-0.19 0.459,-0.645 1.02,-1.013 1.16,-0.76 4.598,-4.241 5.488,-5.556 0.326,-0.482 0.839,-0.876 1.141,-0.876 0.302,0 0.716,-0.438 0.92,-0.974 0.203,-0.535 0.631,-0.973 0.95,-0.973 0.319,0 0.779,-0.371 1.021,-0.824 0.243,-0.454 1.079,-1.374 1.857,-2.045 0.779,-0.672 2.121,-1.993 2.981,-2.936 0.861,-0.943 1.794,-1.907 2.075,-2.142 0.28,-0.235 1.244,-1.181 2.142,-2.103 0.897,-0.922 2.332,-2.324 3.187,-3.116 0.855,-0.792 2.257,-2.21 3.116,-3.15 0.858,-0.941 1.797,-1.905 2.087,-2.142 0.543,-0.446 3.551,-3.489 4.47,-4.522 0.286,-0.321 1.294,-1.305 2.241,-2.187 0.946,-0.882 2.305,-2.24 3.019,-3.019 0.715,-0.778 1.451,-1.415 1.636,-1.415 0.186,0 1.116,-0.526 2.069,-1.169 0.952,-0.642 1.968,-1.171 2.259,-1.174 0.29,-0.004 1.667,-0.433 3.059,-0.954 3.139,-1.174 2.835,-1.173 4.213,-0.014 m 68.514,0.195 c 0.545,0.428 1.537,0.781 2.204,0.783 1.805,0.005 4.926,1.618 6.471,3.343 0.75,0.837 2.119,2.035 3.042,2.662 0.923,0.627 1.835,1.431 2.025,1.788 0.531,0.991 2.597,3.109 3.034,3.109 0.213,0 1.063,0.814 1.888,1.81 1.952,2.354 2.46,2.863 2.859,2.863 0.18,0 1.656,1.315 3.278,2.921 1.622,1.607 3.052,2.922 3.176,2.922 0.202,0 2.66,2.369 10.512,10.134 1.295,1.281 2.503,2.329 2.685,2.329 0.332,0 4.984,4.488 8.809,8.498 1.304,1.367 2.626,2.408 3.059,2.408 0.191,0 0.695,0.59 1.121,1.312 0.426,0.722 1.255,1.642 1.841,2.045 1.339,0.919 4.47,3.949 4.481,4.337 0.005,0.16 0.969,0.978 2.142,1.819 1.174,0.84 2.134,1.667 2.134,1.836 0,0.572 2.378,3.022 3.18,3.277 1.044,0.331 3.026,2.525 3.04,3.365 0.006,0.363 0.514,0.956 1.127,1.319 5.065,2.992 4.444,11.406 -1.29,17.466 -1.404,1.484 -2.552,2.842 -2.552,3.019 0,0.177 -0.158,0.321 -0.352,0.321 -0.194,0 -1.64,1.293 -3.213,2.873 -8.11,8.144 -14.121,7.397 -24.685,-3.067 -1.081,-1.071 -4.926,-4.752 -8.544,-8.179 -3.617,-3.428 -7.653,-7.284 -8.969,-8.569 -1.315,-1.285 -3.781,-3.695 -5.481,-5.355 -1.699,-1.661 -3.297,-3.019 -3.55,-3.019 -0.254,0 -0.956,-0.738 -1.562,-1.639 -0.606,-0.902 -1.743,-2.085 -2.528,-2.629 -0.785,-0.545 -2.01,-1.714 -2.722,-2.599 -0.713,-0.884 -2.216,-2.281 -3.34,-3.104 -1.125,-0.822 -2.045,-1.706 -2.045,-1.964 0,-0.637 -2.27,-2.865 -2.918,-2.865 -0.287,0 -1.224,-0.884 -2.084,-1.964 -0.86,-1.079 -2.45,-2.613 -3.533,-3.408 -1.083,-0.794 -1.972,-1.655 -1.975,-1.911 -0.008,-0.584 -2.203,-2.709 -3.537,-3.423 -0.55,-0.294 -1.476,-1.223 -2.059,-2.065 -0.583,-0.841 -1.858,-2.102 -2.833,-2.802 -1.793,-1.288 -2.571,-2.619 -3.891,-6.654 -1.295,-3.957 1.11,-10.3 4.421,-11.662 0.265,-0.108 0.878,-0.985 1.363,-1.947 0.679,-1.347 1.308,-1.95 2.732,-2.622 1.018,-0.48 1.851,-1.066 1.851,-1.303 0,-1.584 4.955,-5.03 7.232,-5.03 0.346,0 1.075,-0.351 1.619,-0.779 0.545,-0.428 1.071,-0.779 1.169,-0.779 0.098,0 0.624,0.351 1.168,0.779 M -25,0 h 20 v 20 h -20 z m 430,0 h 20 v 20 h -20 z"
       id="path1" />
    <path
       style="fill:#f4ac84;fill-rule:evenodd;stroke:none"
       transform="translate(950)"
       d="m 290.899,95.752 c -0.758,0.355 -1.947,1.127 -2.644,1.716 -0.696,0.589 -1.487,1.071 -1.757,1.071 -0.271,0 -1.309,0.833 -2.307,1.85 -0.998,1.018 -2.378,2.42 -3.067,3.116 -0.689,0.697 -1.472,1.266 -1.74,1.266 -0.267,0 -0.694,0.395 -0.948,0.877 -0.253,0.482 -0.57,0.963 -0.704,1.071 -0.133,0.107 -0.549,0.676 -0.924,1.265 -0.375,0.59 -0.927,1.072 -1.227,1.072 -0.683,0 -3.721,3.06 -3.721,3.748 0,0.28 -0.395,0.716 -0.877,0.97 -0.482,0.254 -0.964,0.571 -1.071,0.704 -0.107,0.134 -0.676,0.55 -1.265,0.925 -0.59,0.374 -1.072,0.864 -1.072,1.088 0,0.665 -1.998,3.081 -2.547,3.081 -0.656,0 -3.684,3.081 -3.684,3.748 0,0.28 -0.395,0.716 -0.877,0.97 -0.482,0.254 -0.964,0.571 -1.071,0.704 -0.107,0.134 -0.676,0.55 -1.266,0.925 -0.589,0.375 -1.071,0.864 -1.071,1.088 0,0.684 -2.005,3.081 -2.578,3.081 -0.683,0 -3.653,3.035 -3.653,3.733 0,0.288 -0.395,0.731 -0.877,0.985 -1.577,0.829 -3.138,2.328 -4.248,4.078 -0.599,0.946 -1.39,1.72 -1.757,1.72 -0.743,0 -3.634,3.001 -3.634,3.772 0,0.27 -0.482,0.756 -1.071,1.08 -1.617,0.886 -2.988,2.197 -3.913,3.741 -0.458,0.763 -1.32,1.638 -1.916,1.945 -1.316,0.677 -3.616,3.057 -3.616,3.74 0,0.272 -0.395,0.702 -0.877,0.956 -1.463,0.769 -3.172,2.338 -3.939,3.615 -0.87,1.448 -2.002,2.572 -2.59,2.572 -1.887,0 -3.36,8.765 -1.993,11.855 0.456,1.032 0.83,2.098 0.83,2.37 0,0.522 1.055,1.691 3.906,4.329 0.958,0.886 2.029,1.937 2.381,2.337 0.351,0.399 1.479,1.427 2.505,2.284 1.027,0.856 2.442,2.127 3.146,2.823 0.703,0.697 1.427,1.266 1.608,1.266 0.181,0 1.055,0.351 1.941,0.779 2.415,1.167 9.829,0.893 9.829,-0.362 0,-0.179 0.349,-0.417 0.775,-0.528 0.425,-0.112 0.939,-0.637 1.141,-1.169 0.403,-1.058 2.345,-2.615 3.265,-2.615 0.319,0 1.153,-0.892 1.852,-1.982 0.7,-1.09 1.901,-2.386 2.67,-2.879 1.881,-1.207 3.15,-2.455 3.15,-3.098 0,-0.665 2.563,-2.946 3.311,-2.946 0.306,0 0.764,-0.395 1.018,-0.877 0.254,-0.482 0.567,-0.964 0.696,-1.071 0.129,-0.107 0.483,-0.676 0.787,-1.265 0.303,-0.59 0.797,-1.072 1.096,-1.072 0.845,0 3.593,-2.45 3.601,-3.21 0.004,-0.374 0.752,-1.192 1.663,-1.819 2.239,-1.541 3.38,-2.712 4.109,-4.221 0.336,-0.696 0.903,-1.266 1.26,-1.266 0.825,0 3.114,-2.171 3.88,-3.68 0.323,-0.638 1.299,-1.51 2.179,-1.95 0.877,-0.438 1.753,-1.07 1.948,-1.404 1.407,-2.421 2.274,-3.482 2.847,-3.482 0.773,0 2.953,-2.175 3.318,-3.31 0.229,-0.716 2.971,-2.918 3.638,-2.924 0.262,-0.002 1.26,-1.431 2.226,-3.186 0.21,-0.381 0.824,-0.862 1.364,-1.069 1.291,-0.496 2.82,-1.928 3.368,-3.155 0.242,-0.541 1.206,-1.505 2.142,-2.141 0.937,-0.637 1.904,-1.42 2.15,-1.741 0.246,-0.322 0.815,-1.006 1.266,-1.521 0.45,-0.514 0.819,-1.072 0.819,-1.239 0,-0.167 0.379,-0.424 0.843,-0.571 0.901,-0.286 2.397,-1.89 3.586,-3.845 0.4,-0.659 0.97,-1.338 1.265,-1.51 0.296,-0.171 0.538,-0.565 0.538,-0.876 0,-0.311 0.148,-0.565 0.33,-0.565 0.182,0 0.639,-0.684 1.016,-1.521 1.318,-2.922 0.135,-7.85 -2.479,-10.334 -0.663,-0.629 -1.204,-1.298 -1.204,-1.487 0,-0.526 -2.478,-3.391 -2.94,-3.399 -0.552,-0.009 -3.292,-2.847 -3.292,-3.41 0,-0.247 -0.417,-0.678 -0.926,-0.957 -1.988,-1.09 -5.306,-3.437 -5.306,-3.752 0,-1.117 -6.666,-1.819 -8.614,-0.907 m -179.701,1.467 c -0.643,0.546 -2.27,1.68 -3.615,2.519 -1.345,0.839 -2.55,1.798 -2.678,2.13 -0.275,0.717 -2.403,2.903 -2.826,2.903 -0.476,0 -2.178,2.064 -3.348,4.06 -0.597,1.018 -1.314,1.939 -1.594,2.046 -3.2,1.228 -3.178,11.006 0.03,12.885 0.271,0.159 0.856,0.99 1.3,1.847 0.729,1.405 6.175,7.054 8.652,8.974 0.541,0.419 1.377,1.32 1.857,2.001 0.48,0.681 1.527,1.637 2.326,2.124 0.799,0.488 1.701,1.245 2.004,1.683 0.881,1.275 4.433,4.497 4.956,4.497 0.263,0 0.582,0.329 0.71,0.73 0.321,1.012 2.569,3.262 3.835,3.839 0.577,0.263 1.049,0.63 1.049,0.816 0,0.186 0.366,0.759 0.813,1.274 0.447,0.515 0.929,1.111 1.071,1.325 0.249,0.377 0.589,0.619 2.888,2.056 0.59,0.369 1.184,1.021 1.32,1.45 0.278,0.874 2.823,3.269 3.5,3.294 0.242,0.009 1.183,0.98 2.092,2.159 0.909,1.178 1.78,2.142 1.935,2.142 0.154,0 0.79,0.438 1.413,0.973 0.622,0.535 1.263,0.973 1.424,0.974 0.16,0 0.292,0.239 0.292,0.531 0,0.673 1.732,2.428 3.514,3.559 0.755,0.48 1.878,1.6 2.495,2.491 0.617,0.89 1.719,1.902 2.448,2.248 0.73,0.347 1.623,1.068 1.985,1.603 0.362,0.535 1.31,1.605 2.106,2.378 0.797,0.774 2.024,1.963 2.727,2.643 0.703,0.68 1.873,1.863 2.6,2.629 0.728,0.766 1.542,1.392 1.811,1.392 0.268,0 1.342,0.833 2.386,1.85 3.231,3.15 9.72,4.438 11.988,2.381 0.204,-0.185 0.759,-0.336 1.233,-0.336 0.475,0 0.922,-0.14 0.994,-0.31 0.071,-0.171 1.346,-1.337 2.834,-2.591 9.105,-7.679 12.002,-11.847 11.934,-17.17 -0.067,-5.229 -0.481,-5.871 -9.358,-14.519 -2.047,-1.994 -5.125,-5.019 -6.838,-6.72 -1.714,-1.702 -3.302,-3.094 -3.528,-3.093 -0.227,0.001 -0.96,-0.775 -1.629,-1.724 -0.669,-0.95 -1.707,-2.045 -2.306,-2.434 -0.599,-0.39 -2.298,-1.979 -3.776,-3.532 -1.478,-1.553 -2.89,-2.824 -3.138,-2.824 -0.248,0 -0.749,-0.482 -1.114,-1.071 -0.969,-1.567 -2.308,-2.964 -3.265,-3.408 -0.461,-0.214 -1.475,-1.159 -2.253,-2.099 -1.441,-1.74 -3.969,-3.938 -4.53,-3.938 -0.17,0 -0.421,-0.351 -0.557,-0.779 -0.289,-0.912 -2.914,-3.497 -3.555,-3.502 -0.242,-0.002 -1.183,-0.967 -2.092,-2.146 -0.909,-1.178 -1.78,-2.142 -1.935,-2.142 -0.154,0 -0.79,-0.438 -1.413,-0.973 -0.622,-0.535 -1.263,-0.973 -1.424,-0.974 -0.16,0 -0.292,-0.27 -0.292,-0.6 0,-0.669 -3.061,-3.672 -3.75,-3.68 -0.242,-0.002 -1.168,-0.968 -2.058,-2.147 -0.889,-1.178 -1.812,-2.142 -2.05,-2.142 -0.238,0 -1.627,-1.232 -3.086,-2.739 -1.46,-1.507 -3.307,-3.012 -4.106,-3.346 -0.8,-0.334 -2.007,-1.029 -2.683,-1.545 -1.879,-1.434 -8.004,-1.384 -9.725,0.078 m 185.886,3.777 c 2.047,0.749 12.246,10.32 12.739,11.954 1.018,3.374 0.972,5.655 -0.151,7.465 -0.62,0.999 -1.243,2.182 -1.385,2.629 -0.142,0.446 -0.396,0.812 -0.566,0.812 -0.689,0 -3.589,2.646 -4.25,3.878 -0.389,0.726 -1.301,1.638 -2.027,2.027 -0.726,0.39 -1.893,1.455 -2.594,2.367 -1.598,2.082 -1.703,2.188 -3.56,3.607 -0.841,0.643 -1.846,1.751 -2.235,2.463 -0.388,0.712 -1.46,1.736 -2.382,2.276 -0.922,0.541 -1.676,1.103 -1.676,1.251 0,0.369 -1.594,2.379 -2.483,3.13 -2.826,2.39 -4.096,3.707 -4.281,4.443 -0.117,0.466 -0.834,1.182 -1.593,1.591 -0.759,0.409 -2.102,1.679 -2.985,2.824 -0.883,1.144 -1.716,2.081 -1.85,2.081 -0.567,10e-4 -3.407,2.868 -3.945,3.982 -0.328,0.68 -1.247,1.552 -2.094,1.988 -0.876,0.452 -1.973,1.509 -2.615,2.521 -0.608,0.959 -1.594,2.046 -2.191,2.415 -1.778,1.1 -3.179,2.593 -3.451,3.677 -0.178,0.712 -0.769,1.251 -1.965,1.796 -1.513,0.69 -3.653,3.126 -3.653,4.16 0,0.167 -0.542,0.543 -1.205,0.836 -1.625,0.719 -3.384,2.494 -3.694,3.728 -0.184,0.733 -0.766,1.229 -2.137,1.819 -1.037,0.446 -2.134,1.191 -2.439,1.656 -1.648,2.516 -7.374,3.874 -8.219,1.95 -0.2,-0.454 -1.372,-1.38 -2.606,-2.058 -1.234,-0.679 -2.686,-1.797 -3.226,-2.486 -1.416,-1.804 -1.899,-2.289 -3.516,-3.53 -0.794,-0.61 -1.969,-1.962 -2.61,-3.004 -0.641,-1.042 -1.617,-2.223 -2.168,-2.624 -1.735,-1.264 -1.025,-4.736 1.48,-7.241 1.049,-1.049 1.908,-1.995 1.908,-2.103 0,-0.409 2.795,-3.588 3.155,-3.588 0.601,0 3.076,-2.642 3.076,-3.284 0,-0.32 0.395,-0.79 0.877,-1.044 1.441,-0.759 2.973,-2.166 4.608,-4.235 0.849,-1.074 1.729,-1.953 1.955,-1.953 0.588,0 3.466,-3.077 3.466,-3.705 0,-0.29 0.307,-0.626 0.682,-0.747 0.833,-0.269 2.964,-2.29 4.695,-4.454 0.709,-0.885 1.474,-1.61 1.701,-1.61 0.555,0 3.438,-3.184 3.438,-3.797 0,-0.268 0.146,-0.487 0.326,-0.487 0.543,0 3.958,-2.801 3.958,-3.247 0,-0.532 2.364,-2.985 2.877,-2.985 0.542,0 3.355,-3.171 3.355,-3.782 0,-0.276 0.219,-0.505 0.487,-0.509 0.562,-0.007 3.478,-2.76 5.104,-4.818 0.611,-0.774 1.289,-1.407 1.506,-1.407 0.496,0 3.419,-2.985 3.419,-3.492 0,-0.206 0.394,-0.584 0.876,-0.839 0.869,-0.46 2.267,-1.62 3.146,-2.61 0.924,-1.04 3.323,-3.42 4.887,-4.845 0.884,-0.806 1.61,-1.595 1.613,-1.753 0.04,-2.057 7.33,-4.219 10.418,-3.089 m -177.406,1.049 c 0.545,0.428 1.113,0.779 1.262,0.779 0.15,0 0.617,0.438 1.038,0.973 0.421,0.536 0.907,0.974 1.08,0.974 0.173,0 1.004,0.657 1.847,1.461 0.843,0.803 4.038,3.826 7.101,6.718 3.063,2.892 7.854,7.493 10.646,10.224 2.792,2.732 5.19,4.966 5.328,4.966 0.45,0 3.529,3.327 3.529,3.812 0,0.26 0.233,0.473 0.517,0.473 0.284,0 0.928,0.438 1.431,0.973 0.503,0.536 1.147,0.974 1.431,0.974 0.284,0 0.516,0.235 0.516,0.522 0,0.569 2.972,3.762 3.502,3.762 0.452,0 3.119,2.63 3.119,3.076 0,0.2 0.92,1.032 2.045,1.85 1.125,0.818 2.109,1.639 2.188,1.825 0.392,0.927 3.373,3.732 4.182,3.935 0.563,0.142 1.237,0.846 1.725,1.804 0.493,0.967 1.501,2.015 2.618,2.723 0.998,0.633 2.436,1.968 3.195,2.966 0.758,0.997 2.057,2.163 2.886,2.59 0.914,0.471 1.705,1.252 2.011,1.985 0.523,1.251 2.198,3.189 3.615,4.182 1.399,0.98 1.4,6.212 0.001,7.312 -0.573,0.45 -1.443,1.473 -1.934,2.273 -0.994,1.62 -7.965,8.659 -8.574,8.659 -0.214,0 -1.449,0.621 -2.743,1.38 -2.017,1.182 -2.444,1.305 -2.987,0.859 -0.348,-0.285 -1.334,-0.756 -2.191,-1.045 -2.118,-0.714 -4.344,-2.292 -7.318,-5.188 -1.373,-1.338 -4.013,-3.899 -5.866,-5.692 -1.853,-1.793 -3.369,-3.414 -3.369,-3.602 0,-0.189 -0.165,-0.344 -0.367,-0.344 -0.202,0 -2.295,-1.884 -4.652,-4.186 -2.357,-2.303 -5.04,-4.918 -5.962,-5.81 -0.923,-0.892 -1.852,-1.815 -2.066,-2.051 -0.832,-0.914 -7.2,-6.913 -8.711,-8.206 -0.876,-0.749 -1.597,-1.514 -1.602,-1.699 -0.013,-0.494 -3.236,-3.329 -3.806,-3.348 -0.268,-0.009 -0.487,-0.205 -0.487,-0.436 0,-0.411 -3.253,-3.864 -3.639,-3.864 -0.344,0 -2.593,-2.383 -2.593,-2.748 0,-0.192 -0.482,-0.655 -1.071,-1.026 -0.589,-0.372 -2.298,-1.912 -3.797,-3.421 -1.5,-1.509 -3.396,-3.243 -4.214,-3.852 -0.818,-0.609 -1.681,-1.533 -1.918,-2.054 -0.237,-0.52 -1.277,-1.553 -2.311,-2.296 -3.653,-2.624 -5.101,-8.157 -3.147,-12.024 0.998,-1.976 10.049,-10.535 12.068,-11.413 1.789,-0.778 5.296,-0.628 6.444,0.275 m 48.579,115.885 c -1.392,0.521 -2.769,0.95 -3.059,0.954 -0.291,0.003 -1.307,0.532 -2.259,1.174 -0.953,0.643 -1.883,1.169 -2.069,1.169 -0.185,0 -0.921,0.637 -1.636,1.415 -0.714,0.779 -2.073,2.137 -3.019,3.019 -0.947,0.882 -1.955,1.866 -2.241,2.187 -0.919,1.033 -3.927,4.076 -4.47,4.522 -0.29,0.237 -1.229,1.201 -2.087,2.142 -0.859,0.94 -2.261,2.358 -3.116,3.15 -0.855,0.792 -2.29,2.194 -3.187,3.116 -0.898,0.922 -1.862,1.868 -2.142,2.103 -0.281,0.235 -1.214,1.199 -2.075,2.142 -0.86,0.943 -2.202,2.264 -2.981,2.936 -0.778,0.671 -1.614,1.591 -1.857,2.045 -0.242,0.453 -0.702,0.824 -1.021,0.824 -0.319,0 -0.747,0.438 -0.95,0.973 -0.204,0.536 -0.618,0.974 -0.92,0.974 -0.302,0 -0.815,0.394 -1.141,0.876 -0.89,1.315 -4.328,4.796 -5.488,5.556 -0.561,0.368 -1.02,0.823 -1.02,1.013 0,0.348 -2.877,3.461 -3.2,3.461 -0.096,0 -2.552,2.366 -5.457,5.258 -2.905,2.892 -5.476,5.258 -5.713,5.258 -0.237,0 -0.43,0.166 -0.43,0.37 0,0.51 -5.317,5.861 -5.824,5.861 -0.224,0 -0.408,0.254 -0.408,0.565 0,0.31 -0.438,1.037 -0.974,1.614 -0.535,0.578 -0.974,1.251 -0.974,1.496 0,0.244 -0.518,1.051 -1.152,1.793 -0.634,0.742 -1.16,1.596 -1.169,1.898 -0.008,0.303 -0.293,1.442 -0.631,2.532 -0.674,2.17 -0.369,3.158 2.495,8.086 1.1,1.894 8.606,9.67 9.333,9.67 0.229,0 0.76,0.437 1.18,0.972 3.909,4.969 13.252,4.348 18.61,-1.238 1.093,-1.139 2.109,-2.071 2.259,-2.071 0.425,0 2.961,-2.564 2.961,-2.994 0,-0.211 0.832,-1.055 1.85,-1.875 1.017,-0.82 2.631,-2.426 3.585,-3.569 0.955,-1.143 1.85,-2.078 1.99,-2.078 0.404,0 3.091,-2.636 3.091,-3.032 0,-0.196 0.964,-1.126 2.142,-2.066 1.178,-0.941 2.142,-1.828 2.142,-1.973 0,-0.415 2.924,-3.444 3.333,-3.454 0.202,-0.004 0.893,-0.649 1.535,-1.433 1.077,-1.313 2.672,-2.94 4.941,-5.04 0.496,-0.46 1.514,-1.555 2.262,-2.435 0.748,-0.88 1.56,-1.599 1.805,-1.599 0.245,0 0.72,-0.419 1.055,-0.931 0.817,-1.247 5.307,-5.691 5.75,-5.691 0.193,0 0.351,-0.195 0.351,-0.434 0,-0.24 1.358,-1.807 3.019,-3.483 1.66,-1.676 3.293,-3.364 3.629,-3.752 0.336,-0.387 1.388,-1.421 2.337,-2.297 0.949,-0.876 2.339,-2.315 3.089,-3.197 0.75,-0.883 1.539,-1.616 1.753,-1.63 0.214,-0.013 0.915,-0.656 1.558,-1.429 1.634,-1.965 4.531,-4.81 4.898,-4.81 0.169,0 0.43,-0.394 0.581,-0.876 0.15,-0.482 0.401,-0.964 0.558,-1.071 1.122,-0.768 1.947,-3.656 1.947,-6.814 0,-3.817 -0.239,-4.358 -3.287,-7.459 -2.265,-2.304 -2.667,-2.787 -3.295,-3.96 -0.251,-0.468 -0.695,-0.852 -0.988,-0.852 -0.293,0 -1.573,-1.034 -2.845,-2.299 -2.227,-2.213 -5.616,-4.322 -6.945,-4.322 -0.351,0 -1.159,-0.438 -1.796,-0.974 -1.378,-1.159 -1.074,-1.16 -4.213,0.014 m 70.39,0.181 c -0.544,0.428 -1.273,0.779 -1.619,0.779 -2.277,0 -7.232,3.446 -7.232,5.03 0,0.237 -0.833,0.823 -1.851,1.303 -1.424,0.672 -2.053,1.275 -2.732,2.622 -0.485,0.962 -1.098,1.839 -1.363,1.947 -5.865,2.412 -6.207,14.239 -0.53,18.316 0.975,0.7 2.25,1.961 2.833,2.802 0.583,0.842 1.509,1.771 2.059,2.065 1.334,0.714 3.529,2.839 3.537,3.423 0.003,0.256 0.892,1.117 1.975,1.911 1.083,0.795 2.673,2.329 3.533,3.408 0.86,1.08 1.797,1.964 2.084,1.964 0.648,0 2.918,2.228 2.918,2.865 0,0.258 0.92,1.142 2.045,1.964 1.124,0.823 2.627,2.22 3.34,3.104 0.712,0.885 1.937,2.054 2.722,2.599 0.785,0.544 1.922,1.727 2.528,2.629 0.606,0.901 1.308,1.639 1.562,1.639 0.253,0 1.851,1.358 3.55,3.019 1.7,1.66 4.166,4.07 5.481,5.355 1.316,1.285 5.352,5.141 8.969,8.569 3.618,3.427 7.463,7.108 8.544,8.179 10.564,10.464 16.575,11.211 24.685,3.067 1.573,-1.58 3.019,-2.873 3.213,-2.873 0.194,0 0.352,-0.144 0.352,-0.321 0,-0.177 1.148,-1.535 2.552,-3.019 5.734,-6.06 6.355,-14.474 1.29,-17.466 -0.613,-0.363 -1.121,-0.956 -1.127,-1.319 -0.014,-0.84 -1.996,-3.034 -3.04,-3.365 -0.802,-0.255 -3.18,-2.705 -3.18,-3.277 0,-0.169 -0.96,-0.996 -2.134,-1.836 -1.173,-0.841 -2.137,-1.659 -2.142,-1.819 -0.011,-0.388 -3.142,-3.418 -4.481,-4.337 -0.586,-0.403 -1.415,-1.323 -1.841,-2.045 -0.426,-0.722 -0.93,-1.312 -1.121,-1.312 -0.433,0 -1.755,-1.041 -3.059,-2.408 -3.825,-4.01 -8.477,-8.498 -8.809,-8.498 -0.182,0 -1.39,-1.048 -2.685,-2.329 -7.852,-7.765 -10.31,-10.134 -10.512,-10.134 -0.124,0 -1.554,-1.315 -3.176,-2.922 -1.622,-1.606 -3.098,-2.921 -3.278,-2.921 -0.399,0 -0.907,-0.509 -2.859,-2.863 -0.825,-0.996 -1.675,-1.81 -1.888,-1.81 -0.437,0 -2.503,-2.118 -3.034,-3.109 -0.19,-0.357 -1.102,-1.161 -2.025,-1.788 -0.923,-0.627 -2.292,-1.825 -3.042,-2.662 -1.545,-1.725 -4.666,-3.338 -6.471,-3.343 -0.667,-0.002 -1.659,-0.355 -2.204,-0.783 -0.544,-0.428 -1.07,-0.779 -1.168,-0.779 -0.098,0 -0.624,0.351 -1.169,0.779 m -65.798,4.237 c 0.795,0.402 2.015,0.854 2.711,1.004 0.806,0.174 1.27,0.51 1.277,0.924 0.013,0.723 2.097,3.183 2.696,3.183 0.62,0 3.077,2.319 3.343,3.156 0.134,0.424 0.932,1.473 1.773,2.331 2.814,2.871 3.549,6.426 1.689,8.173 -0.553,0.519 -1.617,1.952 -2.365,3.184 -0.749,1.232 -1.501,2.24 -1.672,2.24 -0.48,0 -3.528,2.771 -3.528,3.208 0,0.542 -2.771,3.024 -3.377,3.024 -0.274,0 -0.753,0.482 -1.064,1.071 -0.692,1.309 -2.36,3.02 -4.462,4.577 -0.867,0.642 -1.585,1.407 -1.595,1.7 -0.022,0.651 -3.139,3.558 -3.815,3.558 -0.268,0 -0.487,0.142 -0.487,0.316 0,0.173 -0.327,0.667 -0.727,1.095 -0.399,0.429 -0.931,1.163 -1.182,1.632 -0.25,0.468 -0.668,0.856 -0.929,0.862 -0.498,0.011 -3.394,2.549 -3.394,2.974 0,0.207 -1.851,2.007 -3.984,3.875 -0.272,0.239 -1.177,1.247 -2.01,2.24 -0.834,0.993 -1.653,1.806 -1.821,1.806 -0.396,0 -2.701,2.305 -2.701,2.702 0,0.167 -0.813,0.986 -1.806,1.82 -1.946,1.633 -4.2,3.941 -5.087,5.207 -0.303,0.433 -0.692,0.787 -0.864,0.787 -0.408,0 -3.149,2.585 -3.149,2.97 0,0.243 -2.071,2.255 -3.7,3.592 -0.214,0.176 -1.081,1.138 -1.926,2.137 -0.845,1 -1.653,1.817 -1.795,1.817 -0.414,0 -3.095,2.637 -3.095,3.044 0,0.537 -2.49,2.352 -4.187,3.05 -0.803,0.331 -1.823,0.936 -2.266,1.345 -0.905,0.835 -4.783,0.399 -6.041,-0.68 -0.338,-0.29 -0.789,-0.527 -1.003,-0.527 -0.214,0 -0.786,-0.423 -1.272,-0.941 -0.486,-0.517 -1.298,-1.045 -1.804,-1.172 -0.506,-0.127 -1.439,-0.983 -2.072,-1.904 -0.633,-0.92 -1.895,-2.188 -2.804,-2.818 -1.866,-1.294 -3.866,-4.95 -3.867,-7.07 -10e-4,-3.064 1.704,-7.127 2.99,-7.127 0.467,0 3.24,-3.25 3.241,-3.798 0,-0.267 0.186,-0.487 0.413,-0.487 0.53,0 3.872,-2.783 3.872,-3.224 0,-0.499 2.698,-2.946 3.545,-3.215 0.407,-0.129 0.739,-0.354 0.74,-0.5 0,-0.254 1.003,-1.527 2.408,-3.057 0.361,-0.393 1.36,-1.24 2.221,-1.883 0.861,-0.642 1.574,-1.376 1.584,-1.631 0.023,-0.584 2.789,-3.229 3.381,-3.234 0.243,-0.002 0.757,-0.485 1.143,-1.074 0.385,-0.59 0.887,-1.271 1.116,-1.515 0.228,-0.244 0.71,-0.77 1.071,-1.168 0.361,-0.399 1.361,-1.251 2.223,-1.894 0.863,-0.643 1.678,-1.487 1.813,-1.876 0.309,-0.89 2.932,-3.357 3.585,-3.371 0.267,-0.006 0.49,-0.142 0.493,-0.303 0.01,-0.389 1.944,-2.786 2.878,-3.566 2.395,-2.002 3.737,-3.283 3.737,-3.569 0,-0.53 2.799,-3.089 3.38,-3.089 0.293,0 0.693,-0.394 0.887,-0.876 0.382,-0.948 2.122,-2.804 4.654,-4.963 0.877,-0.748 1.595,-1.468 1.595,-1.601 0,-0.394 2.643,-3.076 3.031,-3.076 0.197,0 1.127,-0.964 2.067,-2.142 0.94,-1.178 1.814,-2.142 1.942,-2.142 0.405,0 3.476,-3.067 3.476,-3.472 0,-0.554 2.209,-1.503 4.479,-1.923 2.803,-0.519 2.812,-0.518 4.397,0.284 m 70.079,-0.169 c 2.127,0.287 3.548,0.947 3.809,1.77 0.325,1.024 2.244,2.989 3.215,3.29 0.812,0.252 2.028,1.656 3.059,3.53 0.235,0.429 0.794,0.834 1.241,0.901 0.447,0.066 1.436,0.855 2.197,1.752 2.285,2.692 3.584,3.933 4.83,4.617 0.65,0.357 1.62,1.344 2.156,2.193 0.536,0.849 1.574,1.913 2.306,2.366 0.732,0.452 1.663,1.292 2.069,1.867 0.407,0.574 1.23,1.496 1.829,2.048 0.599,0.552 1.826,1.744 2.726,2.648 2.647,2.659 3.248,3.246 7.012,6.839 1.971,1.881 6.199,5.956 9.397,9.056 3.197,3.099 5.958,5.635 6.134,5.635 0.176,0 0.321,0.263 0.321,0.585 0,0.321 0.132,0.584 0.293,0.584 0.162,0 1.305,0.964 2.541,2.142 1.236,1.178 2.419,2.142 2.628,2.142 0.209,0 0.38,0.191 0.38,0.423 0,0.458 4.699,5.12 6.134,6.087 0.482,0.325 0.877,0.794 0.877,1.043 0,0.249 0.307,0.73 0.681,1.068 1.397,1.261 1.897,2.165 2.567,4.639 0.651,2.407 0.588,3.877 -0.167,3.877 -0.188,0 -0.806,0.921 -1.373,2.045 -0.568,1.125 -1.574,2.483 -2.237,3.019 -2.291,1.852 -3.666,3.313 -3.808,4.048 -0.078,0.405 -0.405,0.868 -0.726,1.028 -0.322,0.16 -1.242,0.613 -2.045,1.006 -0.804,0.394 -1.461,0.816 -1.461,0.939 0,0.387 -2.447,1.079 -4.753,1.344 -2.154,0.247 -2.286,0.207 -4.365,-1.329 -1.179,-0.871 -2.41,-1.584 -2.736,-1.584 -0.325,0 -0.902,-0.482 -1.282,-1.071 -0.857,-1.329 -2.689,-3.102 -4.528,-4.381 -0.769,-0.536 -1.404,-1.166 -1.41,-1.401 -0.006,-0.235 -0.741,-1.024 -1.633,-1.753 -0.892,-0.729 -2.689,-2.402 -3.992,-3.718 -1.304,-1.316 -2.738,-2.579 -3.187,-2.806 -0.449,-0.227 -1.403,-1.176 -2.119,-2.109 -0.716,-0.933 -2.165,-2.291 -3.22,-3.018 -1.054,-0.727 -2.085,-1.681 -2.291,-2.119 -0.206,-0.439 -1.17,-1.411 -2.142,-2.161 -0.972,-0.75 -2.405,-2.047 -3.184,-2.882 -0.779,-0.835 -1.64,-1.711 -1.912,-1.947 -2.18,-1.889 -3.988,-3.681 -4.008,-3.973 -0.013,-0.193 -0.795,-0.964 -1.738,-1.714 -2.642,-2.1 -3.991,-3.39 -4.459,-4.265 -0.235,-0.439 -0.651,-0.798 -0.925,-0.798 -0.273,0 -0.886,-0.526 -1.361,-1.169 -0.475,-0.642 -1.122,-1.168 -1.436,-1.168 -0.315,0 -0.573,-0.186 -0.573,-0.413 0,-0.226 -0.812,-1.146 -1.805,-2.044 -0.993,-0.898 -3.324,-3.123 -5.179,-4.943 -1.856,-1.821 -4.812,-4.689 -6.569,-6.373 -1.757,-1.684 -3.195,-3.176 -3.195,-3.315 0,-0.139 -0.476,-0.765 -1.057,-1.393 -1.6,-1.725 -1.832,-8.783 -0.289,-8.783 0.704,0 3.225,-2.542 4.267,-4.303 0.429,-0.724 1.297,-1.586 1.931,-1.915 1.462,-0.759 2.439,-1.818 3.159,-3.422 0.332,-0.739 0.856,-1.266 1.26,-1.266 0.38,0 1.648,-0.34 2.818,-0.755 1.17,-0.416 2.478,-0.69 2.906,-0.609 0.429,0.081 1.518,0.247 2.422,0.369 M -25,0 h 20 v 20 h -20 z m 430,0 h 20 v 20 h -20 z"
       id="path2" />
  </g>
</svg>
