<?xml version="1.0" encoding="utf-8"?>
<!-- Generator: Adobe Illustrator 23.0.1, SVG Export Plug-In . SVG Version: 6.00 Build 0)  -->
<svg version="1.1" id="Calque_1" xmlns="http://www.w3.org/2000/svg" xmlns:xlink="http://www.w3.org/1999/xlink" x="0px" y="0px"
	 viewBox="0 0 432 432" style="enable-background:new 0 0 432 432;" xml:space="preserve">
<style type="text/css">
	.st0{fill:#AB8056;}
	.st1{fill:#1A1A1A;}
	.st2{fill:#736358;}
	.st3{fill:#C48C10;}
	.st4{fill:#544841;}
	.st5{fill:#E884A9;}
	.st6{fill:#B3B3B2;}
	.st7{fill:#C0282E;}
	.st8{fill:#333333;}
	.st9{fill:#19854B;}
	.st10{fill:#EBC776;}
	.st11{fill:#D5A953;}
	.st12{fill:#E1DFDB;}
	.st13{fill:#D2B155;}
	.st14{fill:#E8973E;}
	.st15{fill:#3A6C51;}
	.st16{fill:#036838;}
	.st17{fill:#4E695A;}
	.st18{fill:#8B3F43;}
	.st19{fill:#476C58;}
	.st20{fill:#A24F4D;}
	.st21{fill:#C5ADA4;}
	.st22{fill:#CCCBCB;}
	.st23{fill:#B79FA7;}
	.st24{fill:#815969;}
	.st25{fill:#A7A7A6;}
	.st26{fill:#D0AD76;}
	.st27{fill:#E8B953;}
	.st28{fill:#C59B6C;}
	.st29{fill:#F29222;}
	.st30{fill:#E6E5E5;}
	.st31{fill:#D2B79A;}
	.st32{fill:#BE8B65;}
	.st33{fill:#81A993;}
	.st34{fill:#9C7684;}
	.st35{fill:#824D61;}
	.st36{fill:#B14044;}
	.st37{fill:#8F5168;}
	.st38{fill:#D88EA9;}
	.st39{fill:#805C5C;}
	.st40{fill:#CCA3A3;}
	.st41{fill:#FFFFFF;}
	.st42{fill:#6A9DC3;}
	.st43{fill:#F49F5A;}
	.st44{fill:#6A3E4D;}
	.st45{fill:#F8AF3C;}
	.st46{fill:#EA5877;}
	.st47{fill:#F1D86A;}
	.st48{fill:#5EBEBD;}
	.st49{fill:#BDCD55;}
	.st50{fill:#A5A4A5;}
	.st51{fill:#B09FA0;}
	.st52{fill:#60AE9F;}
	.st53{fill:#BB8071;}
	.st54{fill:#9E7BB5;}
	.st55{fill:#A57C52;}
	.st56{fill:#E8973E;stroke:#E8973E;stroke-miterlimit:10;}
	.st57{fill:#AD375A;}
	.st58{fill:#7E8C66;}
	.st59{fill:#7C887F;}
	.st60{fill:#472912;}
	.st61{fill:#2B1A0F;}
	.st62{fill:#E52E31;}
	.st63{fill:#CA656A;}
	.st64{fill:#4E4D4D;}
	.st65{fill:#3A6D86;}
	.st66{fill:#1D1D1B;}
	.st67{fill:#0D0D0D;}
	.st68{fill:#EA94AA;}
	.st69{fill:#8DA198;}
	.st70{fill:#C896A9;}
	.st71{fill:#F5C645;}
	.st72{fill:#EFB443;}
	.st73{fill:#E68A44;}
	.st74{fill:#622C6A;}
	.st75{fill:#279352;}
	.st76{fill:#479754;}
	.st77{fill:#8764A2;}
	.st78{fill:#B59471;}
	.st79{fill:#B8D38E;}
	.st80{fill:#5CAF62;}
	.st81{fill:#F5DB56;}
	.st82{fill:#9C9E9F;}
	.st83{fill:#207242;}
	.st84{fill:#404041;}
	.st85{fill:#C1C2C1;}
	.st86{fill:#CBCACA;}
	.st87{fill:#904290;}
	.st88{fill:#129E56;}
	.st89{fill:#F1CC45;}
	.st90{fill:#5C3289;}
	.st91{fill:#2AA658;}
	.st92{fill:#C49A6C;}
	.st93{fill:#F1F1F1;}
	.st94{fill:#754D27;}
	.st95{fill:#8B6239;}
	.st96{fill:#B3B2B2;}
	.st97{fill:#979796;}
	.st98{fill:#C38045;}
	.st99{fill:#0E1014;}
	.st100{fill:#D8AA58;}
	.st101{fill:#0B0C0E;}
	.st102{fill:#6A4694;}
	.st103{fill:#3EA958;}
	.st104{fill:#FAD96F;}
	.st105{fill:#C58489;}
	.st106{fill:#C98C94;}
	.st107{fill:#2C2E30;}
	.st108{fill:#DDAAB1;}
	.st109{fill:#5A9AB5;}
	.st110{fill:#989898;}
	.st111{fill:#469771;}
	.st112{fill:#B59825;}
	.st113{fill:#E96C99;}
	.st114{fill:#BFA490;}
	.st115{fill:#808080;}
	.st116{fill:#80C9CB;}
	.st117{fill:#C9CE66;}
	.st118{fill:#72A6CB;}
	.st119{fill:#ED799D;}
	.st120{fill:#F4AB5E;}
	.st121{fill:#F2902A;}
	.st122{fill:#7FBB48;}
	.st123{fill:#ED7AA9;}
	.st124{fill:#53A2DA;}
	.st125{fill:#07473E;}
	.st126{fill:#960527;}
	.st127{fill:#110A09;}
	.st128{fill:#F15A24;}
	.st129{fill:#9B0808;}
	.st130{fill:#EFEFEF;}
	.st131{fill:#87C1BF;}
	.st132{fill:#E58645;}
	.st133{fill:#4F3928;}
	.st134{fill:#666666;}
	.st135{fill:#BDCCD4;}
	.st136{fill:#A0C1C0;}
</style>
<g>
	<g>
		<path class="st46" d="M151.87,94.91c3.47,0.11,6.95,0.15,10.42,0.35c1.8,0.1,3.59,0.47,5.38,0.73c0.43,0.06,0.85,0.2,1.28,0.23
			c3.05,0.19,5.85,1.29,8.66,2.36c0.07,0.03,0.13,0.06,0.2,0.08c3.86,1.11,7.32,3.09,10.81,5.01c2.78,1.53,5.11,3.67,7.65,5.53
			c2.48,1.81,4.39,4.2,6.49,6.39c0.43,0.44,0.82,0.93,1.26,1.35c1.69,1.62,3.01,3.52,4.22,5.5c0.39,0.65,0.87,1.24,1.32,1.86
			c0.13,0.18,0.28,0.33,0.4,0.52c1.28,2.06,2.7,4.05,3.81,6.19c1.8,3.47,3.4,7.04,5.09,10.57c0.19,0.39,0.36,0.8,0.62,1.14
			c0.36,0.47,0.82,0.44,1.17-0.05c0.17-0.23,0.28-0.51,0.39-0.77c0.91-2.17,1.77-4.36,2.74-6.5c0.78-1.71,1.65-3.38,2.56-5.03
			c1.1-2,2.17-4.02,3.44-5.91c1.74-2.58,3.52-5.16,5.53-7.52c1.98-2.34,4.14-4.58,6.47-6.57c3.27-2.8,6.77-5.31,10.45-7.58
			c3.02-1.86,6.33-3.03,9.61-4.26c2.33-0.87,4.73-1.61,7.15-2.21c2.1-0.53,4.26-0.86,6.41-1.17c4.85-0.71,9.72-1.02,14.62-0.97
			c5.84,0.06,11.65,0.57,17.4,1.57c2.56,0.44,5.09,1.16,7.57,1.94c2.69,0.84,5.36,1.8,7.95,2.9c1.82,0.77,3.52,1.84,5.27,2.79
			c0.48,0.26,0.89,0.64,1.38,0.86c1.65,0.73,3.01,1.87,4.4,2.97c0.79,0.63,1.61,1.24,2.38,1.9c0.6,0.52,1.16,1.08,1.72,1.65
			c0.58,0.6,1.12,1.23,1.7,1.83c0.53,0.55,1.2,0.99,1.62,1.61c1.78,2.63,4.07,4.9,5.44,7.82c0.31,0.65,0.74,1.25,1.02,1.91
			c1.35,3.16,2.75,6.3,3.96,9.52c0.59,1.58,0.83,3.3,1.16,4.96c0.35,1.74,0.63,3.49,0.92,5.24c0.24,1.39,0.55,2.78,0.66,4.18
			c0.36,4.7,0.61,9.4,0.27,14.11c-0.13,1.77-0.13,3.55-0.29,5.31c-0.19,2.09-0.55,4.16-0.75,6.25c-0.36,3.69-1.35,7.25-2.15,10.86
			c-0.84,3.77-2.41,7.27-3.73,10.87c-1.2,3.27-2.65,6.42-4.3,9.49c-1.96,3.67-3.83,7.39-5.83,11.04c-0.95,1.74-2.13,3.36-3.19,5.04
			c-2.06,3.24-4.11,6.48-6.19,9.71c-0.51,0.79-1.17,1.48-1.71,2.25c-0.94,1.33-1.83,2.69-2.77,4.02c-1.47,2.07-2.96,4.12-4.44,6.17
			c-0.25,0.35-0.51,0.7-0.78,1.05c-2.32,2.96-4.63,5.93-6.96,8.88c-0.9,1.13-1.84,2.23-2.75,3.35c-2.75,3.36-5.5,6.72-8.25,10.08
			c-0.3,0.36-0.59,0.74-0.9,1.09c-3.01,3.42-6,6.87-9.06,10.26c-1.99,2.2-4.1,4.29-6.13,6.46c-2.27,2.43-4.5,4.91-6.75,7.36
			c-0.49,0.53-1.01,1.04-1.5,1.57c-1.01,1.08-2.01,2.18-3.02,3.26c-0.54,0.58-1.1,1.15-1.65,1.73c-1.02,1.08-2.03,2.17-3.04,3.25
			c-0.12,0.13-0.22,0.29-0.35,0.42c-1.9,1.88-3.82,3.76-5.72,5.64c-1.15,1.15-2.29,2.32-3.43,3.48c-0.1,0.1-0.19,0.22-0.3,0.32
			c-2.38,2.28-4.76,4.56-7.12,6.85c-0.6,0.58-1.12,1.23-1.73,1.8c-0.86,0.82-1.77,1.6-2.66,2.39c-0.19,0.17-0.42,0.29-0.6,0.47
			c-2.14,2.06-4.25,4.14-6.42,6.17c-1.69,1.59-3.45,3.1-5.15,4.67c-1.99,1.84-3.95,3.72-5.94,5.57c-1.56,1.45-3.28,2.6-5.45,2.96
			c-2.79,0.46-5.28-0.27-7.39-2.08c-3.1-2.66-6.1-5.45-9.15-8.17c-2.78-2.48-5.59-4.94-8.35-7.44c-1.96-1.77-3.86-3.6-5.79-5.41
			c-2.37-2.23-4.75-4.46-7.12-6.7c-0.66-0.62-1.28-1.28-1.93-1.91c-0.94-0.9-1.89-1.79-2.84-2.69c-0.42-0.4-0.85-0.79-1.27-1.19
			c-1.23-1.18-2.46-2.35-3.68-3.53c-0.47-0.45-0.92-0.93-1.37-1.4c-1.01-1.04-2.02-2.08-3.01-3.13c-0.84-0.89-1.66-1.81-2.51-2.7
			c-0.52-0.55-1.06-1.09-1.6-1.62c-0.77-0.76-1.55-1.52-2.32-2.29c-0.97-0.98-1.92-1.97-2.89-2.95c-0.46-0.46-0.93-0.91-1.39-1.38
			c-1.2-1.21-2.41-2.4-3.57-3.64c-2.03-2.16-4.03-4.36-6.05-6.53c-1.23-1.33-2.48-2.64-3.69-3.98c-2.66-2.96-5.3-5.94-7.94-8.92
			c-2.4-2.71-4.84-5.39-7.12-8.19c-1.44-1.77-2.89-3.52-4.3-5.31c-1.43-1.82-2.88-3.62-4.33-5.42c-2.06-2.57-4.06-5.19-5.98-7.87
			c-3.2-4.48-6.31-9.01-9.45-13.53c-0.39-0.56-0.71-1.18-1.08-1.76c-1.34-2.1-2.74-4.17-4.02-6.31c-1.48-2.49-2.91-5.01-4.27-7.56
			c-1.41-2.65-2.77-5.33-4.03-8.06c-1.13-2.47-2.07-5.02-3.12-7.52c-1.49-3.52-2.3-7.23-3.26-10.91c-0.75-2.89-1.01-5.84-1.5-8.77
			c-1.07-6.4-1.09-12.83-0.96-19.28c0.04-2.1,0.17-4.19,0.58-6.26c0.32-1.59,0.4-3.23,0.65-4.84c0.14-0.93,0.38-1.84,0.59-2.76
			c0.11-0.49,0.3-0.97,0.38-1.47c0.78-4.79,2.89-9.09,4.95-13.4c0.45-0.95,0.93-1.88,1.46-2.79c0.47-0.81,1.01-1.58,1.54-2.36
			c0.59-0.87,1.2-1.72,1.79-2.58c0.17-0.24,0.3-0.5,0.49-0.72c1.89-2.19,3.79-4.36,5.89-6.37c2.58-2.47,5.48-4.49,8.47-6.4
			c1.4-0.89,2.88-1.69,4.39-2.37c3.67-1.65,7.36-3.26,11.27-4.23c2.35-0.58,4.75-0.97,7.14-1.39
			C141.36,94.97,146.61,94.9,151.87,94.91z M277.99,191.98c0.08-0.05,0.17-0.1,0.25-0.15c0.13,0.17,0.24,0.36,0.39,0.5
			c1.73,1.55,3.39,3.17,5.21,4.6c2.77,2.18,5.9,3.68,9.41,4.23c5.83,0.93,10.64-0.86,14.3-5.56c1.46-1.88,2.4-4.03,3.11-6.3
			c1.01-3.23,1.49-6.56,1.95-9.9c0.15-1.08,0.32-2.16,0.49-3.26c0.17,0.05,0.22,0.06,0.24,0.08c0.22,0.19,0.44,0.38,0.64,0.58
			c3.29,3.15,7.15,5.14,11.71,5.67c5.32,0.61,9.88-0.86,13.46-4.97c2.13-2.46,3.49-5.31,4.32-8.43c1.52-5.73,1.17-11.57,0.88-17.39
			c-0.04-0.81-0.55-1.29-1.35-1.49c-1.71-0.44-4.13,0.86-4.15,3.04c-0.03,2.79-0.18,5.58-0.34,8.36c-0.09,1.55-0.24,3.11-0.51,4.63
			c-0.44,2.51-1.18,4.94-2.64,7.07c-0.44,0.65-0.99,1.25-1.56,1.79c-0.63,0.59-1.41,0.75-2.21,0.35c-0.77-0.39-1.56-0.78-2.26-1.27
			c-1.74-1.22-3.16-2.79-4.31-4.55c-1.52-2.33-3.01-4.7-4.35-7.14c-5.56-10.06-10.14-20.58-14.28-31.29
			c-0.09-0.22-0.15-0.46-0.23-0.72c0.43-0.21,0.78-0.38,1.14-0.56c3.38-1.65,6.4-3.8,9.06-6.48c2.04-2.06,3.43-4.57,4.87-7.03
			c0.61-1.04,0.09-2.06-1.12-2.25c-1.28-0.2-2.37,0.26-3.22,1.21c-1.06,1.19-2.12,2.38-3.07,3.66c-2.25,3.04-5.09,5.32-8.46,6.98
			c-0.24,0.12-0.51,0.19-0.81,0.29c-0.17-0.45-0.31-0.82-0.45-1.19c-1.29-3.3-2.56-6.62-3.9-9.9c-0.71-1.75-1.63-3.4-2.87-4.84
			c-0.79-0.93-1.74-1.61-2.95-1.93c-3.56-0.94-7.67,1.49-8.52,5.08c-0.36,1.5-0.3,3.03-0.11,4.54c0.42,3.35,1.28,6.6,2.34,9.81
			c0.11,0.32,0.18,0.65,0.3,1.05c-0.51,0-0.87,0.01-1.23,0c-4.09-0.17-8.18-0.33-12.27-0.51c-4.42-0.19-8.84-0.17-13.22,0.51
			c-4.98,0.77-9.73,2.24-14.18,4.62c-2.64,1.41-5.03,3.18-6.88,5.56c-0.52,0.67-0.97,1.45-1.27,2.25c-0.44,1.16,0.23,2.01,1.47,2.01
			c0.96,0.01,1.75-0.41,2.38-1.12c1.74-1.95,3.83-3.42,6.19-4.51c4.75-2.19,9.75-3.48,14.97-3.79c2.92-0.17,5.86-0.07,8.8-0.05
			c4.82,0.04,9.63,0.13,14.45,0.18c0.9,0.01,1.8-0.09,2.74-0.14c0.21,0.51,0.41,0.97,0.6,1.43c4.97,11.95,10.41,23.66,17.49,34.54
			c0.27,0.41,0.29,0.8,0.21,1.24c-0.8,4.56-1.56,9.13-2.4,13.69c-0.44,2.39-1.04,4.74-2.11,6.94c-0.58,1.18-1.26,2.29-2.26,3.16
			c-1.17,1.03-2.49,1.63-4.08,1.33c-1.43-0.27-2.68-0.93-3.68-1.97c-1.03-1.07-2.05-2.16-2.93-3.35c-3.41-4.56-5.44-9.78-7.17-15.14
			c-0.03-0.09,0.01-0.2,0.02-0.32c0.31-0.2,0.62-0.39,0.93-0.58c2.26-1.4,4.3-3.07,6.1-5.03c1.46-1.58,2.72-3.3,3.58-5.28
			c0.95-2.2,1.45-4.48,1.09-6.88c-0.63-4.15-2.69-7.51-6.02-9.97c-3.91-2.89-8.25-3.41-12.74-1.48c-3.9,1.68-6.58,4.66-8.26,8.53
			c-1.17,2.69-1.62,5.55-1.73,8.46c-0.13,3.43,0.37,6.79,1.19,10.11c0.91,3.72,2.55,7.15,4.36,10.5c0.22,0.4,0.45,0.86,0.46,1.3
			c0.11,5.33,0.01,10.65-1.06,15.9c-0.45,2.2-1.06,4.36-2.11,6.37c-0.7,1.32-1.54,2.53-2.68,3.52c-1.04,0.9-2.17,1.14-3.42,0.57
			c-0.85-0.39-1.71-0.81-2.48-1.33c-2.63-1.76-4.69-4.08-6.45-6.68c-3.22-4.76-5.39-9.99-6.94-15.49c-0.5-1.77-0.91-3.56-1.37-5.36
			c0.31-0.18,0.52-0.31,0.74-0.42c4.47-2.36,7.96-5.76,10.57-10.06c1.22-2.01,1.92-4.22,1.97-6.59c0.08-3.78-1.46-6.89-4.12-9.48
			c-2.11-2.06-4.6-3.47-7.56-3.7c-5.75-0.44-10.32,1.68-13.52,6.57c-2.39,3.65-3.4,7.73-3.64,12.02
			c-0.32,5.67,0.54,11.19,2.28,16.58c0.14,0.43,0.26,0.87,0.39,1.32c-0.34,0.13-0.54,0.21-0.74,0.28c-2.79,0.92-5.63,1.64-8.52,2.13
			c-0.84,0.14-1.71,0.18-2.65,0.27c0.06-0.43,0.08-0.71,0.15-0.98c1.56-6.27,2.08-12.64,1.64-19.08c-0.24-3.63-0.91-7.18-2.32-10.56
			c-0.85-2.06-1.93-3.99-3.57-5.52c-2.71-2.53-5.91-3.44-9.53-2.61c-2.48,0.57-4.31,2.14-5.86,4.08c-2.84,3.58-3.68,7.75-3.39,12.17
			c0.4,6.06,2.44,11.59,5.97,16.54c2.41,3.39,5.41,6.13,9.2,7.94c0.15,0.07,0.28,0.2,0.39,0.28c-0.01,0.14,0,0.22-0.02,0.28
			c-1.68,5.44-3.63,10.77-6.24,15.84c-1.46,2.84-3.15,5.54-5.21,8c-1.15,1.37-2.46,2.55-4.05,3.4c-1.54,0.83-3,0.7-4.37-0.35
			c-0.49-0.37-0.94-0.8-1.34-1.27c-0.86-1.03-1.53-2.19-2.02-3.45c-1.18-3.05-1.61-6.24-1.66-9.47c-0.04-3.37,0.05-6.73,0.17-10.1
			c0.17-4.64,0.73-9.24,1.65-13.79c0.79-3.94,1.73-7.84,2.57-11.77c0.47-2.2,0.86-4.41,0.77-6.67c-0.08-2.17-1.13-3.69-3.11-4.57
			c-1.44-0.63-2.93-0.75-4.47-0.47c-1.88,0.34-3.32,1.38-4.49,2.84c-1.54,1.91-2.65,4.06-3.57,6.31c-1.57,3.83-2.64,7.81-3.51,11.85
			c-0.11,0.49-0.17,1.02-0.41,1.46c-1.78,3.33-3.59,6.64-6.2,9.41c-1.01,1.07-2.19,1.99-3.38,2.87c-0.56,0.42-1.29,0.63-1.98,0.85
			c-0.81,0.26-1.55-0.01-2.01-0.7c-0.45-0.69-0.9-1.43-1.12-2.21c-0.84-3-1.03-6.06-0.67-9.15c0.62-5.45,1.89-10.76,3.35-16.03
			c0.96-3.45,1.99-6.88,2.96-10.33c0.41-1.47,0.68-2.97,0.56-4.51c-0.16-2-1.41-3.43-3.37-3.89c-1.65-0.39-3.16-0.05-4.58,0.8
			c-1.17,0.7-2.1,1.66-2.94,2.72c-1.8,2.25-3.18,4.75-4.36,7.37c-0.16,0.36-0.33,0.71-0.42,0.92c-3.91,0.43-7.68,0.85-11.54,1.27
			c-0.05-0.36-0.11-0.7-0.16-1.05c-0.11-0.82-0.18-1.66-0.33-2.48c-0.94-5.41-2.61-10.6-4.78-15.65c-1.5-3.49-2.94-7.02-3.87-10.71
			c-0.33-1.32-0.54-2.71-0.55-4.07c-0.02-2.74,1.64-4.53,4.36-4.97c2.14-0.35,4.19-0.04,6.17,0.77c3.74,1.53,6.13,4.39,7.66,8.03
			c1.18,2.8,1.32,5.76,1.22,8.75c-0.04,1.01-0.13,2.02-0.16,3.04c-0.03,1.26,0.56,1.86,1.83,1.88c1.32,0.02,2.19-0.65,2.68-1.83
			c0.63-1.52,0.91-3.12,1.06-4.75c0.57-6.24-1.27-11.63-5.97-15.84c-5.45-4.87-11.93-6.47-19.08-5.42
			c-2.58,0.38-4.92,1.47-6.99,3.07c-3.48,2.69-4.85,6.38-4.95,10.64c-0.06,2.7,0.44,5.34,1.16,7.93c1.29,4.62,3.21,9,5.2,13.34
			c1.55,3.39,3.19,6.74,4.3,10.32c0.09,0.3,0.15,0.6,0.24,0.94c-0.32,0.09-0.56,0.16-0.8,0.22c-2.35,0.59-4.73,1.09-7.05,1.77
			c-3.86,1.13-7.6,2.61-11.05,4.71c-1.9,1.16-3.6,2.57-4.94,4.36c-1.49,1.99-2.42,4.21-2.5,6.71c-0.18,5.93,4.08,11.27,9.9,12.46
			c3.87,0.79,7.6,0.19,11.12-1.45c9.58-4.47,14.65-12.23,16.11-22.53c0.2-1.39,0.23-2.8,0.35-4.26c3.29-0.56,6.54-1.19,9.94-1.54
			c-0.11,0.42-0.17,0.7-0.26,0.97c-1.3,4.13-2.14,8.32-2.3,12.67c-0.2,5.35,1,10.35,3.45,15.06c1.01,1.95,2.46,3.6,4.22,4.91
			c3.76,2.8,7.79,3.07,11.96,1c2.47-1.23,4.48-3.05,6.22-5.17c0.23-0.28,0.4-0.64,0.87-0.8c-0.02,0.28-0.03,0.46-0.05,0.64
			c-0.29,4.79-0.13,9.55,0.82,14.27c1.19,5.94,3.56,11.3,7.56,15.9c4.31,4.96,10.29,6.62,16.51,4.52c3.49-1.17,6.32-3.32,8.74-6.05
			c2.62-2.94,4.74-6.21,6.51-9.72c2.55-5.05,4.67-10.28,6.48-15.64c0.11-0.34,0.24-0.67,0.36-1.01c4.98-0.11,9.6-1.71,14.24-3.1
			c0.83,1.67,1.56,3.29,2.43,4.83c3.93,6.95,9.18,12.63,16.16,16.62c2.27,1.3,4.67,2.31,7.25,2.82c5.22,1.03,9.65-0.81,12.58-5.26
			c1.08-1.64,1.87-3.43,2.48-5.3c1.02-3.15,1.59-6.39,1.94-9.67C277.74,194.78,277.86,193.38,277.99,191.98z M247.83,298.15
			c-0.91-0.61-1.45-1.3-1.85-2.06c-0.68-1.31-1.38-2.64-1.85-4.04c-2.2-6.44-2.71-13.09-2.26-19.83c0.18-2.78,0.47-5.56,0.59-8.34
			c0.06-1.36-0.07-2.75-0.28-4.11c-0.31-1.99-1.55-3.24-3.48-3.74c-2.63-0.68-5.02-0.09-7.12,1.63c-0.27,0.22-0.52,0.46-0.76,0.67
			c-0.67-0.46-1.22-0.88-1.8-1.24c-4.87-3.04-9.97-3.49-15.25-1.22c-3.54,1.52-6.03,4.21-7.87,7.51c-1.66,2.96-2.73,6.14-3.3,9.49
			c-0.08,0.48-0.23,1.02-0.54,1.37c-2.52,2.85-5.07,5.67-7.65,8.46c-0.66,0.71-1.44,1.32-2.24,1.88c-1.02,0.72-1.66,0.66-2.68-0.06
			c-1-0.71-1.76-1.66-2.23-2.76c-0.75-1.72-1.52-3.46-2-5.26c-1.37-5.09-1.57-10.29-0.99-15.51c0.09-0.81,0.23-1.62,0.36-2.49
			c0.55,0.19,0.99,0.34,1.44,0.49c3.81,1.24,7.56,1.12,11.23-0.52c1.98-0.89,3.52-2.29,4.38-4.32c1.42-3.35,1.15-8.78-2.86-12.07
			c-3.11-2.55-6.72-3.29-10.62-2.64c-3.29,0.56-6.01,2.23-8.31,4.62c-2.84,2.95-4.45,6.57-5.5,10.46
			c-0.94,3.49-1.23,7.06-1.09,10.66c0.02,0.43,0.06,0.85-0.27,1.23c-1.6,1.83-3.16,3.68-4.78,5.49c-0.47,0.53-1.1,0.91-1.63,1.34
			c-0.82-0.39-1.2-1.01-1.53-1.65c-0.62-1.21-0.9-2.51-0.97-3.87c-0.15-2.71,0.32-5.35,1.04-7.93c1.03-3.66,2.14-7.29,3.21-10.94
			c0.55-1.89,0.88-3.81,0.84-5.78c-0.06-3.81-2.2-6.52-5.89-7.48c-2.6-0.67-5.13-0.36-7.57,0.57c-3.17,1.21-6.3,2.57-9.42,3.91
			c-1.96,0.84-3.87,1.8-5.83,2.65c-0.88,0.39-1.82,0.66-2.72,0.97c-0.42-0.83-0.61-2.02-0.52-3.14c0.2-2.53,0.66-5.02,1.31-7.47
			c0.08-0.3,0.2-0.6,0.3-0.88c0.18,0,0.29-0.02,0.39,0c2.71,0.68,5.39,0.55,8.04-0.24c6.06-1.8,10.67-5.53,14.09-10.78
			c0.93-1.43,1.61-2.99,1.99-4.67c1.06-4.58-0.85-8.53-5.05-10.35c-2.58-1.12-5.26-1.22-7.99-0.62c-3.12,0.68-5.82,2.23-8.25,4.2
			c-7.62,6.19-12.1,14.22-13.51,23.89c-0.5,3.45,0.02,6.88,1.54,10.07c1.59,3.32,4.74,4.92,8.34,4.18c1.41-0.29,2.8-0.76,4.12-1.31
			c2.61-1.08,5.16-2.3,7.75-3.42c2.26-0.98,4.55-1.89,6.97-2.38c0.41-0.08,0.83-0.1,1.41-0.17c-0.22,1.06-0.37,1.98-0.6,2.88
			c-1.31,5.01-2.56,10.03-3,15.21c-0.24,2.82-0.28,5.64,0.35,8.43c0.68,2.96,1.98,5.59,4.22,7.69c3.22,3.02,7.63,3.24,11.1,0.54
			c0.94-0.73,1.74-1.63,2.59-2.47c0.22-0.22,0.38-0.5,0.59-0.78c0.16,0.22,0.22,0.27,0.24,0.33c0.06,0.21,0.11,0.42,0.17,0.63
			c0.65,2.61,1.56,5.12,2.79,7.52c1.13,2.21,2.58,4.2,4.44,5.86c2.93,2.63,6.32,3.75,10.23,2.87c2.26-0.51,4.14-1.74,5.73-3.37
			c1.37-1.4,2.62-2.9,3.93-4.36c0.17-0.19,0.38-0.36,0.63-0.61c0.14,0.99,0.23,1.86,0.39,2.71c0.78,4.4,2.34,8.52,4.7,12.3
			c1.63,2.61,3.7,4.83,6.36,6.43c4.04,2.42,8.49,1.88,11.85-1.42c1.49-1.46,2.61-3.2,3.55-5.04c0.84-1.64,1.6-3.33,2.39-4.99
			c0.08-0.17,0.18-0.32,0.3-0.52c0.91,1.86,1.7,3.64,2.64,5.35c1.59,2.9,3.68,5.38,6.58,7.07c4.28,2.5,9,1.38,11.61-2.84
			c0.79-1.28,1.42-2.7,1.9-4.13c1.89-5.56,2.73-11.32,2.98-17.17c0.28-6.38-0.11-12.73-1.02-19.06c-0.84-5.82-2-11.55-4.14-17.05
			c-0.07-0.19-0.08-0.4-0.14-0.76c0.88,0,1.68,0.02,2.47-0.01c1.48-0.06,2.54,0.58,3.05,1.96c0.56,1.49,1.12,2.98,1.52,4.52
			c0.8,3.08,1.43,6.21,2.22,9.29c0.97,3.8,2.31,7.46,4.45,10.79c1.47,2.28,3.26,4.25,5.51,5.78c1.46,0.99,3.04,1.7,4.81,1.86
			c2.93,0.25,5.31-0.86,7.19-3.07c1.39-1.63,2.14-3.59,2.77-5.61c0.98-3.09,1.45-6.27,1.97-9.45c0.23-1.37,0.46-2.74,0.69-4.1
			c0.15,0.01,0.19,0,0.22,0.01c0.3,0.2,0.6,0.4,0.9,0.61c2.45,1.71,5.13,2.68,8.15,2.49c4.06-0.26,7.11-2.07,8.79-5.88
			c0.42-0.95,0.83-1.95,1-2.97c0.52-3.14,0.96-6.29,1.36-9.45c0.19-1.51-0.74-2.29-2.25-2.05c-1.42,0.23-2.24,1.02-2.48,2.48
			c-0.34,2.07-0.62,4.15-0.95,6.23c-0.31,1.95-0.83,3.83-2.09,5.41c-0.82,1.02-1.48,1.22-2.66,0.65c-0.77-0.38-1.51-0.88-2.15-1.44
			c-1.87-1.63-3.32-3.63-4.62-5.73c-2.68-4.35-4.42-9.1-5.89-13.97c-0.08-0.27-0.14-0.54-0.22-0.86c0.27-0.08,0.46-0.16,0.67-0.21
			c1.83-0.45,3.67-0.84,5.47-1.36c6.15-1.78,11.81-4.52,16.75-8.67c4.96-4.17,8.32-9.31,9.78-15.65c0.11-0.49,0.17-1.01,0.14-1.5
			c-0.06-0.92-0.61-1.45-1.53-1.53c-1.31-0.12-2.36,0.37-3.02,1.51c-0.3,0.52-0.49,1.13-0.62,1.72c-0.63,2.79-1.73,5.37-3.4,7.69
			c-2.84,3.94-6.55,6.82-10.82,9.04c-3.79,1.97-7.87,3.1-12.03,3.95c-0.98,0.2-1.97,0.34-2.97,0.51c-0.45-1.06-0.8-2.01-1.24-2.92
			c-0.56-1.13-1.12-2.28-1.81-3.33c-0.77-1.17-1.96-1.68-3.36-1.64c-2.11,0.06-3.98,1.41-4.52,3.45c-0.27,1.03-0.29,2.14-0.34,3.22
			c-0.03,0.71,0.08,1.43,0.14,2.19c-0.56,0.09-1.06,0.17-1.55,0.25c-1.98,0.3-3.92,0.75-5.75,1.56c-1.05,0.47-2.07,1.05-3,1.72
			c-0.59,0.43-1.08,1.08-1.44,1.73c-0.53,0.96-0.08,1.78,1,2.06c0.83,0.21,1.62,0.02,2.28-0.44c1.85-1.3,3.98-1.69,6.13-2.01
			c1.09-0.16,2.2-0.21,3.22-0.3c0.7,1.82,1.28,3.49,1.98,5.12c2.02,4.72,4.61,9.11,7.88,13.07c0.28,0.34,0.54,0.64,0.43,1.15
			c-1.12,5.05-2.18,10.12-3.35,15.16c-0.32,1.4-0.91,2.74-1.43,4.1c-0.17,0.45-0.48,0.85-0.72,1.28c-0.92-0.6-1.37-1.07-2.12-2.27
			c-1.23-1.98-2.22-4.09-2.76-6.35c-0.81-3.34-1.47-6.71-2.16-10.08c-0.55-2.66-1.12-5.32-2.35-7.77c-1.51-3-3.68-5.27-6.96-6.32
			c-2.13-0.68-4.32-0.95-6.54-0.65c-1.72,0.23-3.43,0.57-5.14,0.85c-0.24,0.04-0.48,0.06-0.57,0.07c-1.23-1.89-2.35-3.72-3.58-5.46
			c-1.22-1.73-2.69-3.23-4.49-4.37c-2.85-1.81-5.93-2.73-9.31-2.05c-3.54,0.7-5.95,2.82-6.92,6.3c-0.96,3.41,0.14,6.28,2.79,8.57
			c2.83,2.44,6.19,3.46,9.86,3.25c2.27-0.13,4.52-0.58,6.77-0.89c0.52-0.07,1.05-0.17,1.6-0.25c0.25,0.74,0.49,1.39,0.69,2.04
			c2.59,8.16,3.7,16.58,4.31,25.08c0.3,4.2,0.26,8.4-0.15,12.59c-0.45,4.56-1.29,9.03-2.86,13.34
			C248.63,296.62,248.23,297.31,247.83,298.15z M209.12,140.47c-0.13-0.35-0.27-0.91-0.53-1.42c-0.59-1.12-1.23-2.21-1.86-3.31
			c-2.45-4.27-4.96-8.52-8.11-12.33c-9.95-12.03-22.66-18.42-38.38-18.37c-3.64,0.01-7.29,0.5-10.93,0.81
			c-1.28,0.11-2.2,1.13-2.27,2.38c-0.07,1.16,0.72,2.32,1.9,2.58c0.73,0.16,1.51,0.17,2.26,0.11c2.13-0.16,4.25-0.43,6.38-0.6
			c4.25-0.35,8.48-0.04,12.63,0.89c7.97,1.78,14.81,5.72,20.68,11.34c3.37,3.23,6.06,7.01,8.48,10.97c1.56,2.56,3.03,5.19,4.56,7.77
			c0.26,0.43,0.53,0.88,0.89,1.22c0.78,0.72,1.72,0.91,2.72,0.47C208.54,142.56,209.01,141.75,209.12,140.47z M336.7,189.29
			c-1.18,0.01-2.02,0.69-2.54,2.01c-0.61,1.55-1.18,3.12-1.88,4.62c-4.41,9.46-9.48,18.55-15.17,27.29c-0.23,0.36-0.5,0.72-0.8,1.02
			c-0.67,0.67-1,1.5-1.17,2.4c-0.2,1.04,0.26,2.08,1.13,2.63c0.9,0.57,2.1,0.54,2.94-0.16c0.38-0.32,0.71-0.72,0.98-1.14
			c1.87-2.93,3.73-5.86,5.56-8.81c4.38-7.09,8.19-14.48,11.68-22.03c0.53-1.15,0.97-2.34,1.43-3.52c0.17-0.44,0.31-0.89,0.39-1.35
			C339.51,190.66,338.29,189.27,336.7,189.29z M93.94,155.91c0.06,1.66,0.12,3.33,0.2,4.99c0.02,0.36,0.09,0.72,0.21,1.06
			c0.39,1.09,1.41,1.76,2.51,1.71c1.12-0.05,2.11-0.79,2.31-1.94c0.16-0.91,0.16-1.87,0.1-2.8c-0.4-6.92,0.08-13.75,1.87-20.46
			c0.93-3.51,2.03-6.95,4-10.05c0.25-0.4,0.53-0.78,0.76-1.19c0.65-1.19,0.39-2.54-0.61-3.32c-1.03-0.81-2.48-0.71-3.45,0.28
			c-0.35,0.36-0.64,0.78-0.92,1.21c-1.39,2.13-2.44,4.43-3.28,6.83C94.93,139.89,93.77,147.79,93.94,155.91z M195.82,302.32
			c-0.79-0.02-1.44,0.27-1.94,0.84c-0.8,0.9-0.88,2.19-0.12,3.32c0.57,0.84,1.2,1.63,1.87,2.39c6.92,7.91,14.36,15.3,22.32,22.16
			c0.46,0.4,0.99,0.76,1.54,0.98c1.63,0.65,3.29-0.29,3.65-2c0.3-1.45-0.68-3.05-2.22-3.71c-0.55-0.24-1.12-0.53-1.55-0.93
			c-4-3.77-8.03-7.52-11.93-11.39c-3.36-3.34-6.6-6.81-9.52-10.56C197.39,302.75,196.71,302.31,195.82,302.32z M274.01,105.68
			c-0.02-1.34-1.05-2.45-2.39-2.46c-0.53-0.01-1.08,0.13-1.57,0.32c-1.22,0.45-2.41,0.99-3.62,1.47c-6.5,2.55-12.61,5.81-18.28,9.89
			c-2.24,1.61-4.41,3.3-6.19,5.42c-0.48,0.57-0.89,1.24-1.15,1.93c-0.35,0.93,0,1.79,0.71,2.46c0.71,0.67,1.59,0.93,2.5,0.53
			c0.54-0.24,1.02-0.66,1.46-1.07c0.97-0.92,1.83-1.97,2.85-2.82c1.5-1.24,3.08-2.4,4.69-3.51c5.15-3.56,10.75-6.25,16.56-8.51
			c0.94-0.37,1.89-0.74,2.8-1.17C273.4,107.68,273.98,106.85,274.01,105.68z M120.68,227.25c1.1,0,2.02-0.66,2.4-1.7
			c0.31-0.86,0.12-1.65-0.32-2.38c-0.64-1.05-1.3-2.09-1.96-3.12c-3.58-5.65-7.29-11.23-10.43-17.14c-0.29-0.54-0.53-1.11-0.82-1.65
			c-0.6-1.12-1.75-1.62-2.92-1.31c-1.18,0.32-1.97,1.32-1.87,2.58c0.05,0.63,0.25,1.28,0.53,1.85c0.6,1.23,1.24,2.46,1.96,3.62
			c3.66,5.94,7.36,11.86,11.05,17.79c0.15,0.24,0.34,0.47,0.54,0.68C119.33,226.98,119.96,227.23,120.68,227.25z M329.42,118.2
			c-1.3,0.01-2.25,0.77-2.54,1.94c-0.25,1.02,0.16,1.82,0.77,2.6c0.98,1.25,2,2.49,2.85,3.83c2.54,4.03,4.51,8.33,5.99,12.86
			c0.17,0.51,0.35,1.04,0.62,1.5c0.58,1.01,1.69,1.47,2.79,1.22c1.03-0.23,1.83-1.11,1.93-2.23c0.04-0.45-0.04-0.95-0.17-1.38
			c-1.78-5.62-4.21-10.94-7.48-15.86c-0.8-1.2-1.75-2.3-2.68-3.42C330.94,118.58,330.23,118.17,329.42,118.2z"/>
		<path class="st46" d="M129.38,167.25c0.09,0.74,0.19,1.48,0.27,2.23c0.4,3.84-0.2,7.52-1.88,10.99c-1.77,3.65-4.6,6.3-8.21,8.08
			c-1.02,0.5-2.18,0.79-3.31,0.99c-5.55,0.98-10.9-5.5-8.52-11.29c0.8-1.93,2.09-3.46,3.76-4.69c2.09-1.54,4.45-2.55,6.87-3.45
			C121.47,168.97,126.69,167.6,129.38,167.25z"/>
		<path class="st46" d="M215.55,189.37c-0.36-0.26-0.69-0.47-0.99-0.72c-1.85-1.49-3.41-3.24-4.72-5.22
			c-2.92-4.4-4.7-9.21-4.97-14.51c-0.13-2.55,0.19-5.06,1.23-7.44c0.54-1.24,1.24-2.39,2.25-3.29c0.56-0.5,1.2-0.93,1.87-1.27
			c0.92-0.47,1.88-0.35,2.61,0.38c0.66,0.66,1.27,1.4,1.75,2.19c1.13,1.88,1.7,3.99,2.1,6.13c1.48,7.78,0.99,15.49-0.91,23.14
			C215.73,188.94,215.65,189.1,215.55,189.37z"/>
		<path class="st46" d="M245.81,179.11c-0.19-1.23-0.35-2.22-0.48-3.21c-0.46-3.48-0.82-6.97-0.79-10.49
			c0.02-1.64,0.16-3.26,0.69-4.82c0.22-0.64,0.53-1.28,0.91-1.83c0.6-0.88,1.24-1.07,2.27-0.75c2.03,0.64,3.5,2.01,4.59,3.78
			c1.54,2.51,1.66,5.18,0.8,7.94c-0.07,0.24-0.16,0.48-0.26,0.71C252.01,174.13,249.25,176.72,245.81,179.11z"/>
		<path class="st46" d="M282.86,171.68c-0.44-2.36-0.89-4.47-1.23-6.6c-0.62-3.89-0.65-7.78,0.12-11.65
			c0.12-0.6,0.26-1.21,0.46-1.78c0.26-0.73,0.47-0.81,1.23-0.66c1.21,0.23,2.21,0.86,3.12,1.67c3.17,2.84,4.29,7.18,2.81,11.18
			C288.17,167.1,285.92,169.54,282.86,171.68z"/>
		<path class="st46" d="M213.23,278.9c-0.12-4.96,0.58-9.76,2.63-14.3c0.4-0.89,0.86-1.76,1.41-2.56c1.32-1.92,3.17-2.57,5.41-2
			c2.16,0.55,3.96,1.75,5.49,3.35c0.19,0.19,0.28,0.59,0.24,0.87c-0.88,6.01-0.1,11.92,1.07,17.79c0.2,1.01,0.14,1.86-0.35,2.78
			c-1.96,3.67-3.84,7.38-5.8,11.06c-0.4,0.76-0.96,1.45-1.53,2.1c-0.8,0.91-1.16,0.96-2.09,0.15c-0.79-0.68-1.55-1.44-2.11-2.31
			c-2.24-3.47-3.36-7.36-3.89-11.41C213.47,282.58,213.38,280.74,213.23,278.9z"/>
		<path class="st46" d="M139.93,228.89c2.39-6.13,5.39-11.69,10.28-16.03c0.81-0.72,1.71-1.34,2.65-1.87
			c0.71-0.4,1.53-0.66,2.33-0.84c1.2-0.26,1.91,0.15,2.44,1.28c0.66,1.41,0.63,2.89,0.3,4.36c-0.19,0.84-0.46,1.69-0.86,2.45
			c-2.74,5.2-6.86,8.78-12.52,10.52c-1.22,0.38-2.48,0.47-3.76,0.34C140.55,229.07,140.31,228.98,139.93,228.89z"/>
		<path class="st46" d="M245.18,239.05c-3,0.69-5.99,1.6-9.15,0.94c-1.45-0.3-2.7-1.03-3.75-2.06c-2.4-2.36-1.99-6.34,0.85-8.18
			c0.79-0.51,1.66-0.69,2.59-0.56c1.7,0.25,3.15,1.03,4.4,2.19c2.25,2.07,3.78,4.63,5.06,7.37
			C245.21,238.8,245.18,238.88,245.18,239.05z"/>
		<path class="st46" d="M185.57,254.44c0.91-3.22,2.1-6.23,4.48-8.59c1.55-1.54,3.26-1.53,4.73,0.09c1.93,2.13,2.4,4.64,1.56,7.37
			c-0.35,1.14-1.15,1.95-2.29,2.28c-0.89,0.25-1.84,0.47-2.76,0.44C189.31,255.95,187.38,255.51,185.57,254.44z"/>
	</g>
	<path class="st47" d="M286.85,297.63c0.55,0.02,1.1,0.02,1.65,0.05c0.28,0.02,0.57,0.07,0.85,0.11c0.07,0.01,0.13,0.03,0.2,0.04
		c0.48,0.03,0.93,0.2,1.37,0.37c0.01,0,0.02,0.01,0.03,0.01c0.61,0.18,1.16,0.49,1.71,0.79c0.44,0.24,0.81,0.58,1.21,0.88
		c0.39,0.29,0.69,0.67,1.03,1.01c0.07,0.07,0.13,0.15,0.2,0.21c0.27,0.26,0.48,0.56,0.67,0.87c0.06,0.1,0.14,0.2,0.21,0.29
		c0.02,0.03,0.04,0.05,0.06,0.08c0.2,0.33,0.43,0.64,0.6,0.98c0.28,0.55,0.54,1.11,0.81,1.67c0.03,0.06,0.06,0.13,0.1,0.18
		c0.06,0.07,0.13,0.07,0.18-0.01c0.03-0.04,0.04-0.08,0.06-0.12c0.14-0.34,0.28-0.69,0.43-1.03c0.12-0.27,0.26-0.54,0.41-0.8
		c0.17-0.32,0.34-0.64,0.54-0.93c0.27-0.41,0.56-0.82,0.87-1.19c0.31-0.37,0.66-0.72,1.02-1.04c0.52-0.44,1.07-0.84,1.65-1.2
		c0.48-0.29,1-0.48,1.52-0.67c0.37-0.14,0.75-0.25,1.13-0.35c0.33-0.08,0.67-0.14,1.01-0.19c0.77-0.11,1.54-0.16,2.31-0.15
		c0.92,0.01,1.84,0.09,2.75,0.25c0.41,0.07,0.8,0.18,1.2,0.31c0.43,0.13,0.85,0.29,1.26,0.46c0.29,0.12,0.56,0.29,0.83,0.44
		c0.08,0.04,0.14,0.1,0.22,0.14c0.26,0.12,0.48,0.3,0.7,0.47c0.13,0.1,0.25,0.2,0.38,0.3c0.1,0.08,0.18,0.17,0.27,0.26
		c0.09,0.09,0.18,0.19,0.27,0.29c0.08,0.09,0.19,0.16,0.26,0.25c0.28,0.42,0.64,0.78,0.86,1.24c0.05,0.1,0.12,0.2,0.16,0.3
		c0.21,0.5,0.44,1,0.63,1.51c0.09,0.25,0.13,0.52,0.18,0.79c0.06,0.28,0.1,0.55,0.15,0.83c0.04,0.22,0.09,0.44,0.1,0.66
		c0.06,0.74,0.1,1.49,0.04,2.23c-0.02,0.28-0.02,0.56-0.05,0.84c-0.03,0.33-0.09,0.66-0.12,0.99c-0.06,0.58-0.21,1.15-0.34,1.72
		c-0.13,0.6-0.38,1.15-0.59,1.72c-0.19,0.52-0.42,1.02-0.68,1.5c-0.31,0.58-0.61,1.17-0.92,1.75c-0.15,0.28-0.34,0.53-0.51,0.8
		c-0.33,0.51-0.65,1.03-0.98,1.54c-0.08,0.12-0.18,0.23-0.27,0.36c-0.15,0.21-0.29,0.43-0.44,0.64c-0.23,0.33-0.47,0.65-0.7,0.98
		c-0.04,0.06-0.08,0.11-0.12,0.17c-0.37,0.47-0.73,0.94-1.1,1.4c-0.14,0.18-0.29,0.35-0.44,0.53c-0.44,0.53-0.87,1.06-1.31,1.6
		c-0.05,0.06-0.09,0.12-0.14,0.17c-0.48,0.54-0.95,1.09-1.43,1.62c-0.31,0.35-0.65,0.68-0.97,1.02c-0.36,0.39-0.71,0.78-1.07,1.16
		c-0.08,0.08-0.16,0.16-0.24,0.25c-0.16,0.17-0.32,0.34-0.48,0.52c-0.09,0.09-0.17,0.18-0.26,0.27c-0.16,0.17-0.32,0.34-0.48,0.51
		c-0.02,0.02-0.03,0.05-0.05,0.07c-0.3,0.3-0.6,0.59-0.9,0.89c-0.18,0.18-0.36,0.37-0.54,0.55c-0.02,0.02-0.03,0.03-0.05,0.05
		c-0.38,0.36-0.75,0.72-1.13,1.08c-0.09,0.09-0.18,0.19-0.27,0.29c-0.14,0.13-0.28,0.25-0.42,0.38c-0.03,0.03-0.07,0.05-0.09,0.07
		c-0.34,0.33-0.67,0.66-1.02,0.98c-0.27,0.25-0.55,0.49-0.81,0.74c-0.32,0.29-0.63,0.59-0.94,0.88c-0.25,0.23-0.52,0.41-0.86,0.47
		c-0.44,0.07-0.84-0.04-1.17-0.33c-0.49-0.42-0.97-0.86-1.45-1.29c-0.44-0.39-0.88-0.78-1.32-1.18c-0.31-0.28-0.61-0.57-0.92-0.86
		c-0.38-0.35-0.75-0.71-1.13-1.06c-0.1-0.1-0.2-0.2-0.31-0.3c-0.15-0.14-0.3-0.28-0.45-0.42c-0.07-0.06-0.13-0.12-0.2-0.19
		c-0.19-0.19-0.39-0.37-0.58-0.56c-0.07-0.07-0.14-0.15-0.22-0.22c-0.16-0.16-0.32-0.33-0.48-0.49c-0.13-0.14-0.26-0.29-0.4-0.43
		c-0.08-0.09-0.17-0.17-0.25-0.26c-0.12-0.12-0.25-0.24-0.37-0.36c-0.15-0.15-0.3-0.31-0.46-0.47c-0.07-0.07-0.15-0.14-0.22-0.22
		c-0.19-0.19-0.38-0.38-0.57-0.58c-0.32-0.34-0.64-0.69-0.96-1.03c-0.19-0.21-0.39-0.42-0.58-0.63c-0.42-0.47-0.84-0.94-1.26-1.41
		c-0.38-0.43-0.77-0.85-1.13-1.3c-0.23-0.28-0.46-0.56-0.68-0.84c-0.23-0.29-0.46-0.57-0.69-0.86c-0.33-0.41-0.64-0.82-0.95-1.24
		c-0.51-0.71-1-1.43-1.5-2.14c-0.06-0.09-0.11-0.19-0.17-0.28c-0.21-0.33-0.43-0.66-0.64-1c-0.23-0.39-0.46-0.79-0.68-1.2
		c-0.22-0.42-0.44-0.84-0.64-1.28c-0.18-0.39-0.33-0.79-0.49-1.19c-0.24-0.56-0.36-1.14-0.52-1.73c-0.12-0.46-0.16-0.92-0.24-1.39
		c-0.17-1.01-0.17-2.03-0.15-3.05c0.01-0.33,0.03-0.66,0.09-0.99c0.05-0.25,0.06-0.51,0.1-0.77c0.02-0.15,0.06-0.29,0.09-0.44
		c0.02-0.08,0.05-0.15,0.06-0.23c0.12-0.76,0.46-1.44,0.78-2.12c0.07-0.15,0.15-0.3,0.23-0.44c0.07-0.13,0.16-0.25,0.24-0.37
		c0.09-0.14,0.19-0.27,0.28-0.41c0.03-0.04,0.05-0.08,0.08-0.11c0.3-0.35,0.6-0.69,0.93-1.01c0.41-0.39,0.87-0.71,1.34-1.01
		c0.22-0.14,0.46-0.27,0.69-0.38c0.58-0.26,1.16-0.52,1.78-0.67c0.37-0.09,0.75-0.15,1.13-0.22
		C285.19,297.64,286.02,297.63,286.85,297.63z"/>
	<path class="st48" d="M319.5,270.72c0.27,0.01,0.53,0.01,0.8,0.03c0.14,0.01,0.27,0.04,0.41,0.06c0.03,0,0.07,0.02,0.1,0.02
		c0.23,0.01,0.45,0.1,0.66,0.18c0.01,0,0.01,0,0.02,0.01c0.29,0.08,0.56,0.24,0.83,0.38c0.21,0.12,0.39,0.28,0.58,0.42
		c0.19,0.14,0.33,0.32,0.5,0.49c0.03,0.03,0.06,0.07,0.1,0.1c0.13,0.12,0.23,0.27,0.32,0.42c0.03,0.05,0.07,0.09,0.1,0.14
		c0.01,0.01,0.02,0.03,0.03,0.04c0.1,0.16,0.21,0.31,0.29,0.47c0.14,0.26,0.26,0.54,0.39,0.81c0.01,0.03,0.03,0.06,0.05,0.09
		c0.03,0.04,0.06,0.03,0.09,0c0.01-0.02,0.02-0.04,0.03-0.06c0.07-0.17,0.14-0.33,0.21-0.5c0.06-0.13,0.13-0.26,0.2-0.38
		c0.08-0.15,0.17-0.31,0.26-0.45c0.13-0.2,0.27-0.39,0.42-0.57c0.15-0.18,0.32-0.35,0.49-0.5c0.25-0.21,0.52-0.41,0.8-0.58
		c0.23-0.14,0.48-0.23,0.73-0.33c0.18-0.07,0.36-0.12,0.55-0.17c0.16-0.04,0.33-0.07,0.49-0.09c0.37-0.05,0.74-0.08,1.12-0.07
		c0.45,0,0.89,0.04,1.33,0.12c0.2,0.03,0.39,0.09,0.58,0.15c0.21,0.06,0.41,0.14,0.61,0.22c0.14,0.06,0.27,0.14,0.4,0.21
		c0.04,0.02,0.07,0.05,0.11,0.07c0.13,0.06,0.23,0.14,0.34,0.23c0.06,0.05,0.12,0.09,0.18,0.14c0.05,0.04,0.09,0.08,0.13,0.13
		c0.04,0.05,0.09,0.09,0.13,0.14c0.04,0.04,0.09,0.08,0.12,0.12c0.14,0.2,0.31,0.37,0.42,0.6c0.02,0.05,0.06,0.1,0.08,0.15
		c0.1,0.24,0.21,0.48,0.3,0.73c0.05,0.12,0.06,0.25,0.09,0.38c0.03,0.13,0.05,0.27,0.07,0.4c0.02,0.11,0.04,0.21,0.05,0.32
		c0.03,0.36,0.05,0.72,0.02,1.08c-0.01,0.14-0.01,0.27-0.02,0.41c-0.01,0.16-0.04,0.32-0.06,0.48c-0.03,0.28-0.1,0.55-0.16,0.83
		c-0.06,0.29-0.18,0.56-0.28,0.83c-0.09,0.25-0.2,0.49-0.33,0.72c-0.15,0.28-0.29,0.56-0.44,0.84c-0.07,0.13-0.16,0.26-0.24,0.38
		c-0.16,0.25-0.31,0.49-0.47,0.74c-0.04,0.06-0.09,0.11-0.13,0.17c-0.07,0.1-0.14,0.21-0.21,0.31c-0.11,0.16-0.23,0.31-0.34,0.47
		c-0.02,0.03-0.04,0.05-0.06,0.08c-0.18,0.23-0.35,0.45-0.53,0.68c-0.07,0.09-0.14,0.17-0.21,0.26c-0.21,0.26-0.42,0.51-0.63,0.77
		c-0.02,0.03-0.04,0.06-0.07,0.08c-0.23,0.26-0.46,0.52-0.69,0.78c-0.15,0.17-0.31,0.33-0.47,0.49c-0.17,0.19-0.34,0.37-0.52,0.56
		c-0.04,0.04-0.08,0.08-0.11,0.12c-0.08,0.08-0.15,0.17-0.23,0.25c-0.04,0.04-0.08,0.09-0.13,0.13c-0.08,0.08-0.15,0.17-0.23,0.25
		c-0.01,0.01-0.02,0.02-0.03,0.03c-0.15,0.14-0.29,0.29-0.44,0.43c-0.09,0.09-0.17,0.18-0.26,0.27c-0.01,0.01-0.01,0.02-0.02,0.02
		c-0.18,0.17-0.36,0.35-0.54,0.52c-0.05,0.04-0.09,0.09-0.13,0.14c-0.07,0.06-0.13,0.12-0.2,0.18c-0.01,0.01-0.03,0.02-0.05,0.04
		c-0.16,0.16-0.32,0.32-0.49,0.47c-0.13,0.12-0.26,0.24-0.39,0.36c-0.15,0.14-0.3,0.28-0.45,0.43c-0.12,0.11-0.25,0.2-0.42,0.23
		c-0.21,0.03-0.4-0.02-0.56-0.16c-0.24-0.2-0.47-0.42-0.7-0.62c-0.21-0.19-0.43-0.38-0.64-0.57c-0.15-0.14-0.29-0.27-0.44-0.41
		c-0.18-0.17-0.36-0.34-0.54-0.51c-0.05-0.05-0.1-0.1-0.15-0.15c-0.07-0.07-0.14-0.14-0.22-0.2c-0.03-0.03-0.06-0.06-0.1-0.09
		c-0.09-0.09-0.19-0.18-0.28-0.27c-0.04-0.03-0.07-0.07-0.1-0.11c-0.08-0.08-0.15-0.16-0.23-0.24c-0.06-0.07-0.13-0.14-0.19-0.21
		c-0.04-0.04-0.08-0.08-0.12-0.12c-0.06-0.06-0.12-0.12-0.18-0.17c-0.07-0.07-0.15-0.15-0.22-0.22c-0.03-0.04-0.07-0.07-0.11-0.11
		c-0.09-0.09-0.18-0.18-0.27-0.28c-0.16-0.17-0.31-0.33-0.46-0.5c-0.09-0.1-0.19-0.2-0.28-0.3c-0.2-0.23-0.4-0.45-0.61-0.68
		c-0.18-0.21-0.37-0.41-0.54-0.63c-0.11-0.13-0.22-0.27-0.33-0.41c-0.11-0.14-0.22-0.28-0.33-0.41c-0.16-0.2-0.31-0.4-0.46-0.6
		c-0.24-0.34-0.48-0.69-0.72-1.03c-0.03-0.04-0.05-0.09-0.08-0.13c-0.1-0.16-0.21-0.32-0.31-0.48c-0.11-0.19-0.22-0.38-0.33-0.58
		c-0.11-0.2-0.21-0.41-0.31-0.62c-0.09-0.19-0.16-0.38-0.24-0.57c-0.11-0.27-0.18-0.55-0.25-0.83c-0.06-0.22-0.08-0.45-0.11-0.67
		c-0.08-0.49-0.08-0.98-0.07-1.47c0-0.16,0.01-0.32,0.04-0.48c0.02-0.12,0.03-0.25,0.05-0.37c0.01-0.07,0.03-0.14,0.05-0.21
		c0.01-0.04,0.02-0.07,0.03-0.11c0.06-0.37,0.22-0.69,0.38-1.02c0.03-0.07,0.07-0.14,0.11-0.21c0.04-0.06,0.08-0.12,0.12-0.18
		c0.04-0.07,0.09-0.13,0.14-0.2c0.01-0.02,0.02-0.04,0.04-0.05c0.14-0.17,0.29-0.33,0.45-0.49c0.2-0.19,0.42-0.34,0.65-0.49
		c0.11-0.07,0.22-0.13,0.33-0.18c0.28-0.13,0.56-0.25,0.86-0.32c0.18-0.04,0.36-0.07,0.54-0.11
		C318.69,270.73,319.1,270.72,319.5,270.72z"/>
	<path class="st49" d="M213.96,89.97c0.34,0.01,0.69,0.01,1.03,0.03c0.18,0.01,0.35,0.05,0.53,0.07c0.04,0.01,0.08,0.02,0.13,0.02
		c0.3,0.02,0.58,0.13,0.85,0.23c0.01,0,0.01,0.01,0.02,0.01c0.38,0.11,0.72,0.3,1.07,0.49c0.27,0.15,0.5,0.36,0.75,0.55
		c0.24,0.18,0.43,0.41,0.64,0.63c0.04,0.04,0.08,0.09,0.12,0.13c0.17,0.16,0.3,0.35,0.42,0.54c0.04,0.06,0.09,0.12,0.13,0.18
		c0.01,0.02,0.03,0.03,0.04,0.05c0.13,0.2,0.27,0.4,0.38,0.61c0.18,0.34,0.34,0.69,0.5,1.04c0.02,0.04,0.04,0.08,0.06,0.11
		c0.04,0.05,0.08,0.04,0.11,0c0.02-0.02,0.03-0.05,0.04-0.08c0.09-0.21,0.17-0.43,0.27-0.64c0.08-0.17,0.16-0.33,0.25-0.5
		c0.11-0.2,0.21-0.4,0.34-0.58c0.17-0.25,0.35-0.51,0.55-0.74c0.2-0.23,0.41-0.45,0.64-0.65c0.32-0.28,0.67-0.52,1.03-0.75
		c0.3-0.18,0.62-0.3,0.95-0.42c0.23-0.09,0.47-0.16,0.71-0.22c0.21-0.05,0.42-0.08,0.63-0.12c0.48-0.07,0.96-0.1,1.44-0.1
		c0.58,0.01,1.15,0.06,1.72,0.16c0.25,0.04,0.5,0.11,0.75,0.19c0.27,0.08,0.53,0.18,0.78,0.29c0.18,0.08,0.35,0.18,0.52,0.28
		c0.05,0.03,0.09,0.06,0.14,0.08c0.16,0.07,0.3,0.18,0.43,0.29c0.08,0.06,0.16,0.12,0.23,0.19c0.06,0.05,0.11,0.11,0.17,0.16
		c0.06,0.06,0.11,0.12,0.17,0.18c0.05,0.05,0.12,0.1,0.16,0.16c0.18,0.26,0.4,0.48,0.54,0.77c0.03,0.06,0.07,0.12,0.1,0.19
		c0.13,0.31,0.27,0.62,0.39,0.94c0.06,0.16,0.08,0.33,0.11,0.49c0.03,0.17,0.06,0.34,0.09,0.52c0.02,0.14,0.05,0.27,0.06,0.41
		c0.04,0.46,0.06,0.93,0.03,1.39c-0.01,0.17-0.01,0.35-0.03,0.52c-0.02,0.21-0.05,0.41-0.07,0.62c-0.04,0.36-0.13,0.72-0.21,1.07
		c-0.08,0.37-0.24,0.72-0.37,1.07c-0.12,0.32-0.26,0.63-0.42,0.94c-0.19,0.36-0.38,0.73-0.58,1.09c-0.09,0.17-0.21,0.33-0.32,0.5
		c-0.2,0.32-0.41,0.64-0.61,0.96c-0.05,0.08-0.12,0.15-0.17,0.22c-0.09,0.13-0.18,0.27-0.27,0.4c-0.14,0.2-0.29,0.41-0.44,0.61
		c-0.03,0.03-0.05,0.07-0.08,0.1c-0.23,0.29-0.46,0.58-0.69,0.88c-0.09,0.11-0.18,0.22-0.27,0.33c-0.27,0.33-0.54,0.66-0.81,0.99
		c-0.03,0.04-0.06,0.07-0.09,0.11c-0.3,0.34-0.59,0.68-0.89,1.01c-0.2,0.22-0.4,0.42-0.6,0.64c-0.22,0.24-0.44,0.48-0.67,0.73
		c-0.05,0.05-0.1,0.1-0.15,0.16c-0.1,0.11-0.2,0.21-0.3,0.32c-0.05,0.06-0.11,0.11-0.16,0.17c-0.1,0.11-0.2,0.21-0.3,0.32
		c-0.01,0.01-0.02,0.03-0.03,0.04c-0.19,0.19-0.38,0.37-0.56,0.56c-0.11,0.11-0.23,0.23-0.34,0.34c-0.01,0.01-0.02,0.02-0.03,0.03
		c-0.23,0.23-0.47,0.45-0.7,0.68c-0.06,0.06-0.11,0.12-0.17,0.18c-0.09,0.08-0.17,0.16-0.26,0.24c-0.02,0.02-0.04,0.03-0.06,0.05
		c-0.21,0.2-0.42,0.41-0.63,0.61c-0.17,0.16-0.34,0.31-0.51,0.46c-0.2,0.18-0.39,0.37-0.59,0.55c-0.15,0.14-0.32,0.26-0.54,0.29
		c-0.28,0.04-0.52-0.03-0.73-0.2c-0.31-0.26-0.6-0.54-0.9-0.81c-0.27-0.25-0.55-0.49-0.82-0.73c-0.19-0.17-0.38-0.36-0.57-0.53
		c-0.23-0.22-0.47-0.44-0.7-0.66c-0.06-0.06-0.13-0.13-0.19-0.19c-0.09-0.09-0.19-0.18-0.28-0.26c-0.04-0.04-0.08-0.08-0.13-0.12
		c-0.12-0.12-0.24-0.23-0.36-0.35c-0.05-0.04-0.09-0.09-0.14-0.14c-0.1-0.1-0.2-0.2-0.3-0.31c-0.08-0.09-0.16-0.18-0.25-0.27
		c-0.05-0.05-0.1-0.11-0.16-0.16c-0.08-0.08-0.15-0.15-0.23-0.23c-0.1-0.1-0.19-0.19-0.29-0.29c-0.05-0.05-0.09-0.09-0.14-0.14
		c-0.12-0.12-0.24-0.24-0.35-0.36c-0.2-0.21-0.4-0.43-0.6-0.64c-0.12-0.13-0.24-0.26-0.36-0.39c-0.26-0.29-0.52-0.59-0.78-0.88
		c-0.24-0.27-0.48-0.53-0.7-0.81c-0.14-0.17-0.29-0.35-0.42-0.52c-0.14-0.18-0.28-0.36-0.43-0.54c-0.2-0.25-0.4-0.51-0.59-0.78
		c-0.32-0.44-0.62-0.89-0.93-1.34c-0.04-0.06-0.07-0.12-0.11-0.17c-0.13-0.21-0.27-0.41-0.4-0.62c-0.15-0.25-0.29-0.49-0.42-0.75
		c-0.14-0.26-0.27-0.53-0.4-0.8c-0.11-0.24-0.2-0.5-0.31-0.74c-0.15-0.35-0.23-0.71-0.32-1.08c-0.07-0.29-0.1-0.58-0.15-0.86
		c-0.11-0.63-0.11-1.27-0.1-1.9c0-0.21,0.02-0.41,0.06-0.62c0.03-0.16,0.04-0.32,0.06-0.48c0.01-0.09,0.04-0.18,0.06-0.27
		c0.01-0.05,0.03-0.1,0.04-0.15c0.08-0.47,0.29-0.9,0.49-1.32c0.04-0.09,0.09-0.19,0.14-0.28c0.05-0.08,0.1-0.16,0.15-0.23
		c0.06-0.09,0.12-0.17,0.18-0.25c0.02-0.02,0.03-0.05,0.05-0.07c0.19-0.22,0.37-0.43,0.58-0.63c0.25-0.24,0.54-0.44,0.84-0.63
		c0.14-0.09,0.28-0.17,0.43-0.23c0.36-0.16,0.73-0.32,1.11-0.42c0.23-0.06,0.47-0.1,0.7-0.14
		C212.92,89.98,213.44,89.97,213.96,89.97z"/>
	<path class="st46" d="M89.52,232.56c0.21,0.01,0.43,0.01,0.64,0.02c0.11,0.01,0.22,0.03,0.33,0.04c0.03,0,0.05,0.01,0.08,0.01
		c0.19,0.01,0.36,0.08,0.53,0.14c0,0,0.01,0,0.01,0c0.24,0.07,0.45,0.19,0.66,0.31c0.17,0.09,0.31,0.23,0.47,0.34
		c0.15,0.11,0.27,0.26,0.4,0.39c0.03,0.03,0.05,0.06,0.08,0.08c0.1,0.1,0.18,0.22,0.26,0.34c0.02,0.04,0.05,0.08,0.08,0.11
		c0.01,0.01,0.02,0.02,0.02,0.03c0.08,0.13,0.17,0.25,0.23,0.38c0.11,0.21,0.21,0.43,0.31,0.65c0.01,0.02,0.02,0.05,0.04,0.07
		c0.02,0.03,0.05,0.03,0.07,0c0.01-0.01,0.02-0.03,0.02-0.05c0.06-0.13,0.11-0.27,0.17-0.4c0.05-0.11,0.1-0.21,0.16-0.31
		c0.07-0.12,0.13-0.25,0.21-0.36c0.11-0.16,0.22-0.32,0.34-0.46c0.12-0.14,0.25-0.28,0.4-0.4c0.2-0.17,0.42-0.33,0.64-0.47
		c0.19-0.11,0.39-0.19,0.59-0.26c0.14-0.05,0.29-0.1,0.44-0.14c0.13-0.03,0.26-0.05,0.39-0.07c0.3-0.04,0.6-0.06,0.9-0.06
		c0.36,0,0.72,0.04,1.07,0.1c0.16,0.03,0.31,0.07,0.46,0.12c0.17,0.05,0.33,0.11,0.49,0.18c0.11,0.05,0.22,0.11,0.32,0.17
		c0.03,0.02,0.05,0.04,0.08,0.05c0.1,0.04,0.18,0.11,0.27,0.18c0.05,0.04,0.1,0.08,0.15,0.12c0.04,0.03,0.07,0.07,0.11,0.1
		c0.04,0.04,0.07,0.08,0.1,0.11c0.03,0.03,0.07,0.06,0.1,0.1c0.11,0.16,0.25,0.3,0.33,0.48c0.02,0.04,0.05,0.08,0.06,0.12
		c0.08,0.19,0.17,0.39,0.24,0.58c0.04,0.1,0.05,0.2,0.07,0.3c0.02,0.11,0.04,0.21,0.06,0.32c0.01,0.09,0.03,0.17,0.04,0.26
		c0.02,0.29,0.04,0.58,0.02,0.87c-0.01,0.11-0.01,0.22-0.02,0.33c-0.01,0.13-0.03,0.26-0.05,0.38c-0.02,0.23-0.08,0.45-0.13,0.67
		c-0.05,0.23-0.15,0.45-0.23,0.67c-0.07,0.2-0.16,0.39-0.26,0.58c-0.12,0.23-0.24,0.45-0.36,0.68c-0.06,0.11-0.13,0.21-0.2,0.31
		c-0.13,0.2-0.25,0.4-0.38,0.6c-0.03,0.05-0.07,0.09-0.11,0.14c-0.06,0.08-0.11,0.17-0.17,0.25c-0.09,0.13-0.18,0.25-0.27,0.38
		c-0.02,0.02-0.03,0.04-0.05,0.06c-0.14,0.18-0.28,0.36-0.43,0.55c-0.06,0.07-0.11,0.14-0.17,0.21c-0.17,0.21-0.34,0.41-0.51,0.62
		c-0.02,0.02-0.04,0.05-0.06,0.07c-0.19,0.21-0.37,0.42-0.56,0.63c-0.12,0.14-0.25,0.26-0.38,0.4c-0.14,0.15-0.28,0.3-0.41,0.45
		c-0.03,0.03-0.06,0.06-0.09,0.1c-0.06,0.07-0.12,0.13-0.19,0.2c-0.03,0.04-0.07,0.07-0.1,0.11c-0.06,0.07-0.12,0.13-0.19,0.2
		c-0.01,0.01-0.01,0.02-0.02,0.03c-0.12,0.12-0.23,0.23-0.35,0.35c-0.07,0.07-0.14,0.14-0.21,0.21c-0.01,0.01-0.01,0.01-0.02,0.02
		c-0.15,0.14-0.29,0.28-0.44,0.42c-0.04,0.04-0.07,0.08-0.11,0.11c-0.05,0.05-0.11,0.1-0.16,0.15c-0.01,0.01-0.03,0.02-0.04,0.03
		c-0.13,0.13-0.26,0.25-0.39,0.38c-0.1,0.1-0.21,0.19-0.32,0.29c-0.12,0.11-0.24,0.23-0.37,0.34c-0.1,0.09-0.2,0.16-0.33,0.18
		c-0.17,0.03-0.32-0.02-0.45-0.13c-0.19-0.16-0.37-0.33-0.56-0.5c-0.17-0.15-0.34-0.3-0.51-0.46c-0.12-0.11-0.24-0.22-0.36-0.33
		c-0.15-0.14-0.29-0.27-0.44-0.41c-0.04-0.04-0.08-0.08-0.12-0.12c-0.06-0.06-0.12-0.11-0.17-0.16c-0.03-0.02-0.05-0.05-0.08-0.07
		c-0.08-0.07-0.15-0.14-0.23-0.22c-0.03-0.03-0.06-0.06-0.08-0.09c-0.06-0.06-0.12-0.13-0.18-0.19c-0.05-0.05-0.1-0.11-0.15-0.17
		c-0.03-0.03-0.07-0.07-0.1-0.1c-0.05-0.05-0.1-0.09-0.14-0.14c-0.06-0.06-0.12-0.12-0.18-0.18c-0.03-0.03-0.06-0.06-0.09-0.08
		c-0.07-0.07-0.15-0.15-0.22-0.22c-0.12-0.13-0.25-0.27-0.37-0.4c-0.08-0.08-0.15-0.16-0.23-0.24c-0.16-0.18-0.33-0.36-0.49-0.55
		c-0.15-0.17-0.3-0.33-0.44-0.5c-0.09-0.11-0.18-0.22-0.26-0.33c-0.09-0.11-0.18-0.22-0.27-0.33c-0.13-0.16-0.25-0.32-0.37-0.48
		c-0.2-0.27-0.39-0.55-0.58-0.83c-0.02-0.03-0.04-0.07-0.07-0.11c-0.08-0.13-0.17-0.26-0.25-0.39c-0.09-0.15-0.18-0.31-0.26-0.46
		c-0.09-0.16-0.17-0.33-0.25-0.5c-0.07-0.15-0.13-0.31-0.19-0.46c-0.09-0.22-0.14-0.44-0.2-0.67c-0.05-0.18-0.06-0.36-0.09-0.54
		c-0.07-0.39-0.07-0.79-0.06-1.18c0-0.13,0.01-0.26,0.04-0.38c0.02-0.1,0.02-0.2,0.04-0.3c0.01-0.06,0.02-0.11,0.04-0.17
		c0.01-0.03,0.02-0.06,0.02-0.09c0.05-0.29,0.18-0.56,0.3-0.82c0.03-0.06,0.06-0.12,0.09-0.17c0.03-0.05,0.06-0.1,0.09-0.15
		c0.04-0.05,0.07-0.11,0.11-0.16c0.01-0.01,0.02-0.03,0.03-0.04c0.12-0.13,0.23-0.27,0.36-0.39c0.16-0.15,0.34-0.28,0.52-0.39
		c0.09-0.05,0.18-0.1,0.27-0.15c0.23-0.1,0.45-0.2,0.69-0.26c0.14-0.04,0.29-0.06,0.44-0.09C88.88,232.56,89.2,232.56,89.52,232.56z
		"/>
	<path class="st48" d="M130.39,300.38c0.47,0.01,0.94,0.02,1.42,0.05c0.24,0.01,0.49,0.06,0.73,0.1c0.06,0.01,0.12,0.03,0.17,0.03
		c0.41,0.03,0.8,0.18,1.18,0.32c0.01,0,0.02,0.01,0.03,0.01c0.53,0.15,1,0.42,1.47,0.68c0.38,0.21,0.69,0.5,1.04,0.75
		c0.34,0.25,0.6,0.57,0.88,0.87c0.06,0.06,0.11,0.13,0.17,0.18c0.23,0.22,0.41,0.48,0.57,0.75c0.05,0.09,0.12,0.17,0.18,0.25
		c0.02,0.02,0.04,0.05,0.05,0.07c0.17,0.28,0.37,0.55,0.52,0.84c0.24,0.47,0.46,0.96,0.69,1.44c0.03,0.05,0.05,0.11,0.08,0.16
		c0.05,0.06,0.11,0.06,0.16-0.01c0.02-0.03,0.04-0.07,0.05-0.11c0.12-0.29,0.24-0.59,0.37-0.88c0.11-0.23,0.22-0.46,0.35-0.68
		c0.15-0.27,0.3-0.55,0.47-0.8c0.24-0.35,0.48-0.7,0.75-1.02c0.27-0.32,0.56-0.62,0.88-0.89c0.44-0.38,0.92-0.72,1.42-1.03
		c0.41-0.25,0.86-0.41,1.31-0.58c0.32-0.12,0.64-0.22,0.97-0.3c0.29-0.07,0.58-0.12,0.87-0.16c0.66-0.1,1.32-0.14,1.99-0.13
		c0.79,0.01,1.58,0.08,2.37,0.21c0.35,0.06,0.69,0.16,1.03,0.26c0.37,0.11,0.73,0.24,1.08,0.39c0.25,0.1,0.48,0.25,0.72,0.38
		c0.06,0.04,0.12,0.09,0.19,0.12c0.22,0.1,0.41,0.25,0.6,0.4c0.11,0.09,0.22,0.17,0.32,0.26c0.08,0.07,0.16,0.15,0.23,0.22
		c0.08,0.08,0.15,0.17,0.23,0.25c0.07,0.07,0.16,0.13,0.22,0.22c0.24,0.36,0.55,0.67,0.74,1.06c0.04,0.09,0.1,0.17,0.14,0.26
		c0.18,0.43,0.37,0.86,0.54,1.29c0.08,0.21,0.11,0.45,0.16,0.67c0.05,0.24,0.09,0.47,0.13,0.71c0.03,0.19,0.07,0.38,0.09,0.57
		c0.05,0.64,0.08,1.28,0.04,1.92c-0.02,0.24-0.02,0.48-0.04,0.72c-0.03,0.28-0.07,0.57-0.1,0.85c-0.05,0.5-0.18,0.99-0.29,1.48
		c-0.11,0.51-0.33,0.99-0.51,1.48c-0.16,0.44-0.36,0.87-0.58,1.29c-0.27,0.5-0.52,1-0.79,1.5c-0.13,0.24-0.29,0.46-0.43,0.68
		c-0.28,0.44-0.56,0.88-0.84,1.32c-0.07,0.11-0.16,0.2-0.23,0.31c-0.13,0.18-0.25,0.37-0.38,0.55c-0.2,0.28-0.4,0.56-0.6,0.84
		c-0.03,0.05-0.07,0.1-0.11,0.14c-0.32,0.4-0.63,0.81-0.95,1.21c-0.12,0.15-0.25,0.3-0.37,0.46c-0.37,0.46-0.75,0.91-1.12,1.37
		c-0.04,0.05-0.08,0.1-0.12,0.15c-0.41,0.47-0.82,0.93-1.23,1.39c-0.27,0.3-0.56,0.58-0.83,0.88c-0.31,0.33-0.61,0.67-0.92,1
		c-0.07,0.07-0.14,0.14-0.2,0.21c-0.14,0.15-0.27,0.3-0.41,0.44c-0.07,0.08-0.15,0.16-0.22,0.23c-0.14,0.15-0.28,0.29-0.41,0.44
		c-0.02,0.02-0.03,0.04-0.05,0.06c-0.26,0.26-0.52,0.51-0.78,0.77c-0.16,0.16-0.31,0.31-0.47,0.47c-0.01,0.01-0.03,0.03-0.04,0.04
		c-0.32,0.31-0.65,0.62-0.97,0.93c-0.08,0.08-0.15,0.17-0.23,0.25c-0.12,0.11-0.24,0.22-0.36,0.33c-0.03,0.02-0.06,0.04-0.08,0.06
		c-0.29,0.28-0.58,0.56-0.87,0.84c-0.23,0.22-0.47,0.42-0.7,0.63c-0.27,0.25-0.54,0.51-0.81,0.76c-0.21,0.2-0.45,0.35-0.74,0.4
		c-0.38,0.06-0.72-0.04-1-0.28c-0.42-0.36-0.83-0.74-1.24-1.11c-0.38-0.34-0.76-0.67-1.14-1.01c-0.27-0.24-0.53-0.49-0.79-0.74
		c-0.32-0.3-0.65-0.61-0.97-0.91c-0.09-0.08-0.17-0.17-0.26-0.26c-0.13-0.12-0.26-0.24-0.39-0.36c-0.06-0.05-0.12-0.11-0.17-0.16
		c-0.17-0.16-0.33-0.32-0.5-0.48c-0.06-0.06-0.12-0.13-0.19-0.19c-0.14-0.14-0.27-0.28-0.41-0.42c-0.11-0.12-0.23-0.25-0.34-0.37
		c-0.07-0.08-0.14-0.15-0.22-0.22c-0.1-0.1-0.21-0.21-0.31-0.31c-0.13-0.13-0.26-0.27-0.39-0.4c-0.06-0.06-0.13-0.12-0.19-0.19
		c-0.16-0.16-0.33-0.33-0.49-0.49c-0.28-0.29-0.55-0.59-0.82-0.89c-0.17-0.18-0.34-0.36-0.5-0.54c-0.36-0.4-0.72-0.81-1.08-1.21
		c-0.33-0.37-0.66-0.73-0.97-1.11c-0.2-0.24-0.39-0.48-0.58-0.72c-0.19-0.25-0.39-0.49-0.59-0.74c-0.28-0.35-0.55-0.71-0.81-1.07
		c-0.43-0.61-0.86-1.22-1.28-1.84c-0.05-0.08-0.1-0.16-0.15-0.24c-0.18-0.29-0.37-0.57-0.55-0.86c-0.2-0.34-0.4-0.68-0.58-1.03
		c-0.19-0.36-0.38-0.72-0.55-1.1c-0.15-0.34-0.28-0.68-0.42-1.02c-0.2-0.48-0.31-0.98-0.44-1.48c-0.1-0.39-0.14-0.79-0.2-1.19
		c-0.15-0.87-0.15-1.74-0.13-2.62c0.01-0.29,0.02-0.57,0.08-0.85c0.04-0.22,0.05-0.44,0.09-0.66c0.02-0.13,0.05-0.25,0.08-0.37
		c0.02-0.07,0.04-0.13,0.05-0.2c0.11-0.65,0.39-1.23,0.67-1.82c0.06-0.13,0.13-0.26,0.2-0.38c0.06-0.11,0.14-0.22,0.21-0.32
		c0.08-0.12,0.16-0.23,0.24-0.35c0.02-0.03,0.04-0.07,0.07-0.1c0.26-0.3,0.52-0.59,0.8-0.87c0.35-0.34,0.75-0.61,1.15-0.87
		c0.19-0.12,0.39-0.23,0.6-0.32c0.5-0.22,1-0.44,1.53-0.57c0.32-0.08,0.65-0.13,0.97-0.19
		C128.96,300.39,129.68,300.38,130.39,300.38z"/>
	<path class="st49" d="M89.17,260.8c0.65,0.02,1.29,0.03,1.94,0.06c0.34,0.02,0.67,0.09,1,0.14c0.08,0.01,0.16,0.04,0.24,0.04
		c0.57,0.04,1.09,0.24,1.61,0.44c0.01,0,0.02,0.01,0.04,0.01c0.72,0.21,1.36,0.57,2.01,0.93c0.52,0.29,0.95,0.68,1.42,1.03
		c0.46,0.34,0.82,0.78,1.21,1.19c0.08,0.08,0.15,0.17,0.23,0.25c0.32,0.3,0.56,0.65,0.79,1.03c0.07,0.12,0.16,0.23,0.25,0.35
		c0.02,0.03,0.05,0.06,0.07,0.1c0.24,0.38,0.5,0.75,0.71,1.15c0.34,0.65,0.63,1.31,0.95,1.97c0.03,0.07,0.07,0.15,0.12,0.21
		c0.07,0.09,0.15,0.08,0.22-0.01c0.03-0.04,0.05-0.09,0.07-0.14c0.17-0.4,0.33-0.81,0.51-1.21c0.14-0.32,0.31-0.63,0.48-0.94
		c0.2-0.37,0.4-0.75,0.64-1.1c0.32-0.48,0.65-0.96,1.03-1.4c0.37-0.44,0.77-0.85,1.2-1.22c0.61-0.52,1.26-0.99,1.95-1.41
		c0.56-0.35,1.18-0.57,1.79-0.79c0.43-0.16,0.88-0.3,1.33-0.41c0.39-0.1,0.79-0.16,1.19-0.22c0.9-0.13,1.81-0.19,2.72-0.18
		c1.09,0.01,2.17,0.11,3.24,0.29c0.48,0.08,0.95,0.22,1.41,0.36c0.5,0.16,1,0.34,1.48,0.54c0.34,0.14,0.66,0.34,0.98,0.52
		c0.09,0.05,0.17,0.12,0.26,0.16c0.31,0.14,0.56,0.35,0.82,0.55c0.15,0.12,0.3,0.23,0.44,0.35c0.11,0.1,0.22,0.2,0.32,0.31
		c0.11,0.11,0.21,0.23,0.32,0.34c0.1,0.1,0.22,0.18,0.3,0.3c0.33,0.49,0.76,0.91,1.01,1.46c0.06,0.12,0.14,0.23,0.19,0.36
		c0.25,0.59,0.51,1.17,0.74,1.77c0.11,0.29,0.15,0.61,0.22,0.92c0.06,0.32,0.12,0.65,0.17,0.98c0.04,0.26,0.1,0.52,0.12,0.78
		c0.07,0.87,0.11,1.75,0.05,2.63c-0.02,0.33-0.02,0.66-0.05,0.99c-0.04,0.39-0.1,0.78-0.14,1.16c-0.07,0.69-0.25,1.35-0.4,2.02
		c-0.16,0.7-0.45,1.35-0.7,2.02c-0.22,0.61-0.49,1.2-0.8,1.77c-0.37,0.68-0.71,1.38-1.09,2.06c-0.18,0.32-0.4,0.63-0.59,0.94
		c-0.38,0.6-0.76,1.21-1.15,1.81c-0.09,0.15-0.22,0.28-0.32,0.42c-0.18,0.25-0.34,0.5-0.52,0.75c-0.27,0.38-0.55,0.77-0.83,1.15
		c-0.05,0.07-0.1,0.13-0.14,0.19c-0.43,0.55-0.86,1.1-1.3,1.65c-0.17,0.21-0.34,0.42-0.51,0.62c-0.51,0.63-1.02,1.25-1.54,1.88
		c-0.06,0.07-0.11,0.14-0.17,0.2c-0.56,0.64-1.12,1.28-1.69,1.91c-0.37,0.41-0.76,0.8-1.14,1.2c-0.42,0.45-0.84,0.91-1.26,1.37
		c-0.09,0.1-0.19,0.19-0.28,0.29c-0.19,0.2-0.37,0.41-0.56,0.61c-0.1,0.11-0.21,0.21-0.31,0.32c-0.19,0.2-0.38,0.4-0.57,0.61
		c-0.02,0.02-0.04,0.05-0.06,0.08c-0.35,0.35-0.71,0.7-1.06,1.05c-0.22,0.21-0.43,0.43-0.64,0.65c-0.02,0.02-0.04,0.04-0.06,0.06
		c-0.44,0.43-0.89,0.85-1.33,1.28c-0.11,0.11-0.21,0.23-0.32,0.34c-0.16,0.15-0.33,0.3-0.49,0.45c-0.04,0.03-0.08,0.05-0.11,0.09
		c-0.4,0.38-0.79,0.77-1.19,1.15c-0.31,0.3-0.64,0.58-0.96,0.87c-0.37,0.34-0.74,0.69-1.11,1.04c-0.29,0.27-0.61,0.48-1.02,0.55
		c-0.52,0.08-0.98-0.05-1.38-0.39c-0.58-0.5-1.14-1.01-1.7-1.52c-0.52-0.46-1.04-0.92-1.56-1.39c-0.36-0.33-0.72-0.67-1.08-1.01
		c-0.44-0.42-0.88-0.83-1.33-1.25c-0.12-0.12-0.24-0.24-0.36-0.36c-0.17-0.17-0.35-0.33-0.53-0.5c-0.08-0.07-0.16-0.15-0.24-0.22
		c-0.23-0.22-0.46-0.44-0.68-0.66c-0.09-0.08-0.17-0.17-0.25-0.26c-0.19-0.19-0.38-0.39-0.56-0.58c-0.16-0.17-0.31-0.34-0.47-0.5
		c-0.1-0.1-0.2-0.2-0.3-0.3c-0.14-0.14-0.29-0.28-0.43-0.43c-0.18-0.18-0.36-0.37-0.54-0.55c-0.09-0.09-0.17-0.17-0.26-0.26
		c-0.22-0.23-0.45-0.45-0.67-0.68c-0.38-0.4-0.75-0.81-1.13-1.22c-0.23-0.25-0.46-0.49-0.69-0.74c-0.5-0.55-0.99-1.11-1.48-1.66
		c-0.45-0.51-0.9-1-1.33-1.53c-0.27-0.33-0.54-0.66-0.8-0.99c-0.27-0.34-0.54-0.67-0.81-1.01c-0.38-0.48-0.76-0.97-1.11-1.46
		c-0.6-0.83-1.18-1.68-1.76-2.52c-0.07-0.11-0.13-0.22-0.2-0.33c-0.25-0.39-0.51-0.78-0.75-1.17c-0.28-0.46-0.54-0.93-0.8-1.41
		c-0.26-0.49-0.52-0.99-0.75-1.5c-0.21-0.46-0.38-0.93-0.58-1.4c-0.28-0.66-0.43-1.35-0.61-2.03c-0.14-0.54-0.19-1.09-0.28-1.63
		c-0.2-1.19-0.2-2.39-0.18-3.59c0.01-0.39,0.03-0.78,0.11-1.17c0.06-0.3,0.08-0.6,0.12-0.9c0.03-0.17,0.07-0.34,0.11-0.51
		c0.02-0.09,0.06-0.18,0.07-0.27c0.15-0.89,0.54-1.69,0.92-2.49c0.08-0.18,0.17-0.35,0.27-0.52c0.09-0.15,0.19-0.3,0.29-0.44
		c0.11-0.16,0.22-0.32,0.33-0.48c0.03-0.04,0.06-0.09,0.09-0.13c0.35-0.41,0.71-0.81,1.1-1.19c0.48-0.46,1.02-0.84,1.58-1.19
		c0.26-0.17,0.54-0.31,0.82-0.44c0.68-0.31,1.37-0.61,2.1-0.79c0.44-0.11,0.88-0.18,1.33-0.26C87.21,260.81,88.19,260.8,89.17,260.8
		z"/>
</g>
</svg>
